<?xml version="1.0" encoding="utf-8"?>
<!-- Generator: Adobe Illustrator 19.0.0, SVG Export Plug-In . SVG Version: 6.00 Build 0)  -->
<svg version="1.1" id="Capa_2" xmlns="http://www.w3.org/2000/svg" xmlns:xlink="http://www.w3.org/1999/xlink" x="0px" y="0px"
	 viewBox="-269 392.3 56.6 56.6" style="enable-background:new -269 392.3 56.6 56.6;" xml:space="preserve">
<style type="text/css">
	.st0{fill:#FFFFFF;}
</style>
<path class="st0" d="M-227.6,416.4c0-0.1-0.1-0.1-0.2-0.1c0.2-3.2-8.1-2.8-9.7-2.8c-3.6-0.1-7.3-0.1-10.8,0.3
	c-0.5,0.1-0.9,0.1-1.3,0.2c0-0.1-0.1-0.2-0.2-0.2c-6.3-1-13.7-1-16.6,5.8c-1.2,2.8-1.5,6.3-0.4,9.2c1.1,3,4,4.8,6.8,6
	c4.2,1.7,8.9,2.8,13.4,3.4c4.5,0.6,8.9,0.1,13.3-0.4c6.5-0.7,16.7-2,19.1-9.3C-211.9,421.2-221.2,415.2-227.6,416.4z M-228.2,418.8
	c0,0,0.1,0,0.1,0c3.2-0.1,7.2,1.4,8,4.8c1,4.1-3.3,6.5-6.7,7.3c-5.7,1.3-11.8,1.5-17.5,1c-5.2-0.4-12.9-1-16.8-5
	c-2.8-2.9-2.7-7.8,1-9.9c2.7-1.6,5.8-1.2,8.7-1.2c0,0,0,0,0.1,0.1c-0.1,0-0.1,0-0.2,0.1c-0.1,0.2-0.1,0.4-0.2,0.5c0,0,0,0-0.1,0
	c-1.8-0.3-3.7-0.2-5.5,0.4c-0.5,0.2-1.9,0.8-1.6,1.5c-2.6,5.5,5.6,8.8,9.7,9.6c2,0.4,5.5,0.7,8.5,0.1c3.5,1.6,8.9,2.4,12.3,0.4
	c1.1-0.6,4.3-4.2,2.3-5.1c0-0.3-0.1-0.6-0.2-0.9c-0.6-1.4-2-1.9-3.4-2.2C-229,419.9-228.5,419.4-228.2,418.8z M-255.4,420.2
	c0.1,0.2,0.4,0.2,0.4-0.1c0-0.4-0.1-0.7,0-1.1c-0.1-0.7,0.4-0.8,1.4-0.5c0.1,0.1,0.1,0.3,0.2,0.4c0.1,0.5,0.2,1.1,0.3,1.7
	c0.1,0.8,0.3,2.1,1.1,2.6c0.5,0.3,1.1,0.2,1.4-0.3c0.2-0.3,0.1-0.8,0.2-1.1c0.1-0.6,0.2-1.2,0.2-1.8c0.6,0.4,1.3,0.8,2,1.1
	c-0.2,0.9-0.2,1.9-0.1,2.8c0.1,0.7,0.3,1.6,1,1.9c0.7,0.3,1.2-0.2,1.5-0.8c0.4-0.9,0.7-2.1,1-3.1c0.5,0.1,0.9,0.1,1.3,0.2
	c0,1.2,0.2,3.3,1.5,3.4c0.6,0.1,1-0.5,1.1-1c0.1-0.5,0.2-0.9,0.5-1.4c0.1-0.3,0.3-0.5,0.4-0.7c0.8,0,1.7,0,2.6,0
	c-2.2,7.9-20.2,2.6-19.7-4.7c0.8-0.3,1.7-0.6,1.9-0.6c1.2-0.2,2.4-0.2,3.6,0c0,0,0,0,0.1,0c-0.2,1.1,0.2,2,0.9,2.7
	c-0.1,0-0.1,0.1-0.1,0.1c-0.4,0.5-0.5,1.1-0.5,1.7c0,0.1,0,0.8-0.1,0.8c-0.3,0.2-0.5-0.7-0.6-0.9c-0.4-1.1-0.2-2.6-1-3.6
	c-0.4-0.5-1.2-0.7-1.8-0.3C-255.9,418.2-255.7,419.3-255.4,420.2z M-243.1,422.2c0.7,0.1,1.3,0.1,1.7,0.1c0.1,0,0.1,0,0.2,0
	c-0.3,0.6-0.5,1.3-0.7,1.8c-0.1,0.4-0.4,0.6-0.6,0.2c-0.2-0.2-0.3-0.5-0.4-0.8C-243,423.1-243.1,422.7-243.1,422.2z M-234.8,422.1
	c0.5-0.1,1-0.2,1.5-0.3c-0.3,0.4-0.4,0.9-0.5,1.4c-0.1,0.4,0,0.8,0,1.2c0,0.2,0.1,0.9-0.1,1.1c-0.3,0.1-0.7,0.2-1,0.2
	c-0.1-0.2-0.3-0.4-0.4-0.5c-0.1-0.1-0.2-0.1-0.3-0.1c0.2-0.4,0.4-0.8,0.5-1.3c0.1,0,0.3-0.1,0.3-0.2
	C-234.6,423.2-234.6,422.6-234.8,422.1z M-228.7,422.9c0.3,0.1,0.7-0.2,0.5-0.5c-0.2-0.4-0.6-0.5-1-0.3c-0.5,0.2-0.7,0.6-0.7,1.1
	c0,0.2,0.2,0.7,0.1,0.9c-0.3,0.6-0.7,0-0.9-0.4c-0.4-0.8-0.7-1.6-1.1-2.4c0.4-0.1,0.8-0.3,1.2-0.5c1.3,0.2,3.9,0.8,4,2.4
	c-0.2,0.1-0.2,0.3,0,0.5c-0.1,0.5-0.4,1.1-1.1,1.8c-0.9,1-2.4,1.3-3.6,1.7c-2.2,0.6-4.3,0.7-6.5-0.1c0.8-0.5,1.5-1,2-1.8
	c0,0,0,0,0,0c0.3,0.8,1.2,1.9,2.1,1.1c0.4-0.4,0.6-1,0.6-1.6c0.1-1.1-0.1-2.1,0.7-2.9c0.1-0.1,0.1-0.1,0.1-0.2
	c0.2,0.8,0.5,1.5,0.8,2.2c0.2,0.6,0.5,1.1,1.2,1.3c0.5,0.1,1-0.1,1.2-0.5c0.1-0.2,0.2-0.5,0.2-0.7
	C-228.9,424-229.1,422.8-228.7,422.9z M-226.4,424.9c0,0.8-0.3,1.5-0.9,2.1c-0.7,0.7-1.4,1.2-2.3,1.5c-1.1,0.4-2.4,0.5-3.6,0.5
	c-2.3,0-4.5-0.5-6.7-1c0.6-0.2,1.1-0.3,1.7-0.6c3,1.8,8.5,1.2,11-1.3C-226.9,425.7-226.6,425.3-226.4,424.9z M-235.8,423.2
	c-1.3,5.1-9.2,4.8-13.2,4c-4.4-0.9-11-3.4-9.4-9.1c0.1-0.1,0.3-0.2,0.5-0.3c-1,4.2,6,7.4,9,8.3c4,1.1,10.7,1.6,11.7-3.7
	c0.5,0,1-0.1,1.6-0.1c0,0.3,0,0.5,0,0.8C-235.6,423-235.7,423-235.8,423.2z M-239.4,421.5c-3.2,0.1-12.3,0-11.8-5.1
	c1.2,3.2,7.8,3.5,10.4,3.5c2.6,0,5.3,0,7.9-0.6c1-0.2,3.2-0.9,4.4-1.9C-230.2,421.2-235.8,421.4-239.4,421.5z M-244.7,414.2
	c1.9-0.1,3.8-0.1,5.7-0.1c0.2,0,0.4,0,0.6,0c0,0,0,0,0,0c-0.3,0.1-0.4,0.3-0.5,0.5c-0.1,0-0.3,0.1-0.3,0.3c0,0.7,0.2,1.4,0.4,2.2
	c0.1,0.4,0.1,1.1-0.6,0.7c-0.3-0.2-0.5-0.5-0.6-0.8c-0.5-0.9-0.8-2.2-1.9-2.5c-0.1,0-0.2,0-0.2,0c-0.5-0.1-1,0.3-1.2,0.8
	c-0.1,0.3-0.1,0.7,0,1c0.1,0.2,0.1,0.4,0.2,0.7c0.1,0.2,0.1,0.5,0.1,0.7c-1.3-0.1-1.6-1.2-2.2-2.2c-0.4-0.5-0.8-1.1-1.5-1.1
	c0-0.1-0.1-0.1-0.2-0.1c-0.6-0.2-1.1,0.5-1.2,1c-0.2,0.7,0.2,1.4,0.6,2c0.2,0.2,0.6,0.1,0.5-0.2c-0.2-0.4-0.4-0.9-0.4-1.3
	c0-0.5,0.3-0.6,0.6-0.8c0.3,0.4,0.6,0.7,0.8,1.2c0.3,0.5,0.5,1,0.8,1.5c0.5,0.8,1.5,1.5,2.4,0.9c0.2-0.1,0.4-0.2,0.4-0.4
	c0.2-0.4,0.1-0.8,0-1.2c-0.1-0.3-0.3-0.7-0.3-1c0-0.4,0.2-0.5,0.5-0.7c0,0,0,0,0.1-0.1c1.1,1.1,1.1,3.6,2.9,3.7
	c1.7,0.1,1.2-2.2,0.7-3.5c0-0.4,0.4-0.8,0.7-0.3c0.1,0.2,0.2,0.5,0.3,0.7c0.1,0.3,0.2,0.7,0.4,1c0.3,0.6,0.9,1.4,1.6,1.6
	c0.4,0.2,1,0.1,1.1-0.4c0.1-0.4-0.1-0.7-0.2-1.1c-0.1-0.5-0.1-1-0.1-1.4c0,0,0.1-0.1,0.2-0.1c0.4-0.1,0.3,0.2,0.4,0.5
	c0.1,0.4,0.3,0.9,0.5,1.3c0.2,0.5,0.4,1,0.9,1.1c0.4,0.1,0.9-0.1,1.1-0.5c0.1-0.3,0-0.6,0-0.9c0-0.5,0.3-0.7,0.6-1
	c0.2-0.3,0-0.6-0.3-0.6c-0.6,0.1-1,0.8-1.1,1.3c0,0.2,0.1,0.4,0,0.6c-0.1,0.4-0.4,0-0.5-0.2c-0.3-0.5-0.4-1.1-0.6-1.6
	c-0.2-0.5-0.4-1.1-1-0.9c-0.2,0-0.4,0.1-0.5,0.3c-0.2-0.1-0.4,0-0.4,0.2c-0.1,0.5-0.1,1,0,1.6c0,0.3,0.2,0.6,0.2,0.9
	c0,0.3,0.1,0.4-0.3,0.1c-1-0.6-1.1-1.8-1.6-2.7c-0.2-0.3-0.4-0.6-0.8-0.7c1.3,0,2.6,0,3.9,0.1c1.5,0.1,7.4,0.6,3.6,3.5
	c-2.5,1.9-6.7,1.6-9.7,1.6c-2.9,0-9.5-0.1-10.9-3.5c0,0,0-0.1,0.1-0.1C-250,413.9-246.2,414.3-244.7,414.2z M-221.1,434.2
	c-4,1.8-8.5,2.4-12.7,2.9c-4.2,0.5-8.4,0.9-12.7,0.3c-7.4-1-20.2-3-20.2-12.6c0-3.7,1.7-7.6,5.1-9.5c3.4-1.9,7.6-1.5,11.4-1.1
	c-0.4,0.2-0.7,0.5-0.9,0.9c-0.1,0-0.1,0.1-0.1,0.2c0,0,0,0,0,0c-5.5-1-14,0.9-12.4,8.3c1.6,7.7,12.8,8.5,19,9.1
	c4.8,0.4,9.7,0.3,14.4-0.3c3.3-0.4,7.2-1,9.5-3.6c4.8-5.3-1.6-10.6-7.1-10.6c0.1-0.3,0.2-0.6,0.2-0.9c4.4-0.9,9.2,1.5,11.7,5.2
	C-212.5,427.2-216.7,432.1-221.1,434.2z"/>
</svg>
