<?xml version="1.0" encoding="utf-8"?>
<!-- Generator: Adobe Illustrator 19.0.0, SVG Export Plug-In . SVG Version: 6.00 Build 0)  -->
<svg version="1.1" id="Capa_1" xmlns="http://www.w3.org/2000/svg" xmlns:xlink="http://www.w3.org/1999/xlink" x="0px" y="0px"
	 viewBox="-269 392.3 56.6 56.6" style="enable-background:new -269 392.3 56.6 56.6;" xml:space="preserve">
<style type="text/css">
	.st0{fill:#FFFFFF;}
</style>
<g>
	<path class="st0" d="M-226.2,402c-0.5-0.5-1.5-0.2-2.1-0.1c-1.4,0.1-2.8,0.3-4.2,0.4c-0.3,0-0.5,0.4-0.3,0.6c1.6,1.6,3.2,3.2,5,4.6
		c0.2,0.2,0.5-0.1,0.3-0.3c-1.3-1.5-2.8-2.9-4.3-4.3c1.3-0.1,2.6-0.3,3.8-0.4c0.2,0,0.7-0.2,0.9-0.1c0.5,0.2,0.5,0.9,0.5,1.3
		c0.1,1.1-0.1,2-0.5,3c-0.2,0.4,0.4,0.8,0.6,0.4c0.5-0.9,0.7-1.8,0.7-2.8C-225.6,403.7-225.7,402.5-226.2,402z"/>
	<path class="st0" d="M-228.4,399.5c-1.4,0.4-2.8,0.9-4.2,1.4c0-0.5,0.1-1.1,0.1-1.6c0.1-0.4,0.2-1.6,0.7-1.7
		c0.4-0.1,1.2,0.5,1.5,0.7c0.6,0.3,1,0.8,1.6,1.2c0.3,0.2,0.8-0.1,0.5-0.4c-0.5-0.7-1.2-1.2-2-1.6c-0.5-0.3-1.4-0.8-2-0.7
		c-0.7,0.2-0.8,1-0.9,1.5c-0.3,1.1-0.4,2.1-0.4,3.2c0,0.3,0.3,0.5,0.5,0.4c1.6-0.5,3.2-1.1,4.8-1.9
		C-227.9,399.9-228.1,399.5-228.4,399.5z"/>
	<path class="st0" d="M-234.6,398.2c0-0.2-0.4-0.3-0.5-0.2c-0.8,0.4-1.5,1-2.1,1.6c-0.4,0.4-1.2,1.2-1.3,1.8
		c-0.1,0.6,0.4,0.8,0.9,0.9c1,0.3,2,0.4,3.1,0.3c0.2,0,0.3-0.2,0.3-0.3c0.1,0,0.2-0.1,0.2-0.2C-234.2,400.8-234.4,399.5-234.6,398.2
		z M-236.8,401.8c-0.1,0-1-0.1-1-0.2c0-0.2,0.2-0.4,0.3-0.5c0.6-0.8,1.4-1.5,2.3-2.1c0.2,1,0.4,2,0.6,3c0,0,0,0,0,0
		C-235.4,401.9-236.1,401.9-236.8,401.8z"/>
	<path class="st0" d="M-229.6,393.6c-5.7-1.7-11.6,2.2-12.9,7.8c-0.1,0.2-0.1,0.4-0.1,0.7c0,0,0,0,0,0c-5.6-0.8-11.5-0.7-17,0.8
		c-0.1-0.2-0.5-0.2-0.5,0.1c-0.3-0.1-0.4,0.3-0.2,0.4c0.1,0,0.1,0.1,0.2,0.1c-0.1,6.9,0.7,14,1.2,20.9c0.5,7.1,1,14.3,1.4,21.4
		c0,0.5,0.5,0.6,0.8,0.5c5.9,2.9,13.8,4,19.1-0.7c0.2-0.2,0.2-0.4,0.1-0.6c1.2-10.2,2.9-20.5,3.7-30.8c4.8,2.4,10.6-0.7,12.1-5.7
		C-220.1,402.6-223.6,395.4-229.6,393.6z M-242.8,403.1C-242.8,403.1-242.8,403.1-242.8,403.1c0,1.2,0.1,2.6,0.4,3.8
		c-5.6,0.5-11.9-1.5-16.7-3.4C-253.6,402.9-248.4,402.6-242.8,403.1z M-236.2,423.7c-0.8,7.1-1.6,14.2-2.4,21.4
		c-5.8,4-11.5,2.3-17.8,0.6c-0.5-7.3-1-14.6-1.5-21.9c-0.4-6.6-0.6-13.2-1.5-19.8c4.5,2.7,11.4,4.5,17.4,3.9c1.1,3,3.4,5.4,6.8,5.5
		C-235.6,416.8-235.9,420.3-236.2,423.7z M-235.2,412.9c-2.6-1-4.6-2.9-5.7-5.2c0.4-0.1,0.8-0.1,1.1-0.2c1,2,2.7,3.6,4.7,4
		C-235.1,412-235.2,412.4-235.2,412.9z M-235,411.1c-1.5-0.7-2.9-2.1-3.9-3.8c0.4-0.1,0.9-0.3,1.3-0.4c0.3,0.4,0.6,0.8,0.9,1.1
		c0.2,0.2,0.5,0.1,0.6-0.1c0.4-0.8,0.9-1.6,1.2-2.4c0.2-0.1,0.4-0.3,0.7-0.5C-234.6,407-234.8,409.1-235,411.1z M-237.5,405.7
		c-0.2-0.4-0.5-0.9-0.5-1.1c0.2-0.2,1.2-0.3,1.5-0.4c0.4-0.1,0.9-0.2,1.3-0.3c-0.1,0.2-0.2,0.4-0.3,0.6
		C-236.1,405-236.8,405.4-237.5,405.7z M-236.2,406.2c-0.1,0.3-0.3,0.5-0.4,0.8c-0.1-0.1-0.2-0.3-0.3-0.4
		C-236.7,406.5-236.4,406.4-236.2,406.2z M-234,403.6c0,0.1,0,0.1,0,0.2c-0.1,0-0.1,0-0.2,0c0-0.2-0.3-0.3-0.5-0.3c0,0,0,0-0.1,0
		c-0.9,0.1-1.8,0.2-2.6,0.3c-0.5,0.1-1.2,0-1.3,0.6c-0.1,0.5,0.3,1.2,0.6,1.6c-0.4,0.1-0.8,0.3-1.2,0.4c-0.7-1.6-1-3.3-0.6-4.8
		c1-3.9,6.5-6.3,9.9-4.9c2.8,1.1,6,4.7,5.9,8c0,4.4-5.4,8.3-9.6,6.7c0-0.3,0-0.6,0-0.9c0,0.1,0.1,0.1,0.2,0.1
		c1.3,0.5,4.5,0.1,4.6-1.8c0-0.9-0.9-1.7-1.4-2.2c-0.9-1-1.9-2-3-2.8c0,0,0,0,0,0c0,0,0-0.1,0-0.1C-233.4,403.3-234,403.2-234,403.6
		z M-233.7,410c0.1-2,0.2-4,0.2-5.9c0.9,1.1,1.8,2,2.7,3.1c0.7,0.8,1.5,1.7,0.2,2.5c-0.8,0.5-2,0.4-2.9,0.2
		C-233.5,409.9-233.6,410-233.7,410z M-233.8,413.2C-233.8,413.2-233.9,413.2-233.8,413.2c0-0.3,0-0.6,0-1c3.9,1.5,8.5-1.4,10-5.2
		c1.7-4.4-1.9-9.5-6-11.2c-3.9-1.6-9.4,1-10.8,5c-0.6,1.7-0.4,3.7,0.4,5.6c-0.4,0.1-0.7,0.1-1.1,0.2c-0.5-1.5-0.6-3.2-0.2-5
		c1.1-4.7,5.7-8.2,10.6-7.2c5,1,8.4,6.1,8.3,11.1C-222.7,411.5-228.3,415.6-233.8,413.2z"/>
	<path class="st0" d="M-236.7,414.7c0-0.1-0.1-0.2-0.2-0.3c-6-2.7-13.7-3.3-20.2-2c-0.1,0-0.1,0.1-0.1,0.2c-0.1,0-0.2,0.1-0.2,0.2
		c-0.3,10.4,0.6,21.3,2,31.6c0,0.2,0.1,0.2,0.3,0.2c0,0,0,0,0,0c4.8,2.6,10.6,2.3,15.4-0.2c0.2-0.1,0.2-0.3,0.1-0.5
		c0.1,0.1,0.2,0,0.3-0.1c1.1-4.4,1-9.2,1.5-13.8c0.5-5,0.9-10.1,1.3-15.1C-236.4,414.8-236.5,414.7-236.7,414.7z M-237.4,415.2
		c-2.7,2.2-6.7,2-10,1.8c-3.5-0.2-7.2-1.2-9.5-4.1C-250.3,413-243.6,412.5-237.4,415.2z M-238.3,429.4c-0.4,4.8-1.4,9.6-1.3,14.4
		c0,0,0,0,0,0c-0.1-0.1-0.3-0.2-0.5-0.1c-4.8,2.5-9.7,2.4-14.7,0.6l0,0c-0.6-10.1-1.2-20.4-2.2-30.5c1.2,2.7,5.9,3.7,8.3,3.9
		c3.5,0.4,8.5,0.7,11.4-1.7C-237.6,420.5-238,425-238.3,429.4z"/>
	<path class="st0" d="M-241.4,439.1c-0.4-1-0.8-1.9-1.3-2.9c-0.1-0.2-0.4-0.3-0.6-0.2c-1.8,0.5-3.5,1.1-5.1,1.8
		c-0.4,0.2-0.3,0.5-0.1,0.8c0.4,1,0.7,1.9,1.1,2.9c0.2,0.6,0.5,1.5,0.9,2c0.9,0.9,2.7-0.2,3.6-0.6c0.9-0.3,2.2-0.6,2.2-1.8
		C-240.6,440.5-241.1,439.7-241.4,439.1z M-241.8,441.5c-0.2,0.3-1.7,0.6-2.1,0.8c-0.5,0.2-1.1,0.6-1.7,0.4
		c-0.6-0.2-0.7-0.7-0.9-1.3c-0.4-0.9-0.9-1.8-1.4-2.7c1.4-0.6,2.9-1.2,4.4-1.6c0.4,0.8,0.7,1.7,1.1,2.5
		C-242.1,440-241.5,441.1-241.8,441.5z"/>
	<path class="st0" d="M-247.7,433.9c-1.5-0.9-3.1-1.7-4.7-2.4c-0.3-0.1-0.6,0-0.7,0.3c-0.4,1-0.8,2-1.1,3c-0.3,0.7-0.8,1.5-0.7,2.2
		c0.2,1.1,1.9,2,2.7,2.4c0.2,0.1,0.3,0.1,0.4,0c0,0.2,0.3,0.3,0.4,0.1c1.4-1.6,2.6-3.3,3.9-5C-247.3,434.3-247.5,434-247.7,433.9z
		 M-251.5,438.9c0-0.1-0.1-0.2-0.2-0.3c-0.6-0.4-1.3-0.7-1.7-1.2c-0.5-0.6-0.4-0.9-0.1-1.6c0.4-1.1,0.8-2.1,1.3-3.2
		c1.2,0.6,2.5,1.2,3.7,1.9C-249.6,435.9-250.6,437.4-251.5,438.9z"/>
	<path class="st0" d="M-241.6,427.2c-0.1-0.2-0.3-0.4-0.6-0.3c-2,0.6-3.9,1.2-5.7,2.1c-0.4,0.2-0.3,0.6,0,0.8
		c0.4,0.8,0.8,1.6,1.2,2.5c0.3,0.6,0.6,1.5,1,1.9c0.8,0.8,2.7,0.1,3.7-0.1c1.1-0.2,1.8-0.4,1.7-1.6
		C-240.4,430.8-241.1,428.9-241.6,427.2z M-243.1,433.3c-0.5,0.1-1.2,0.3-1.7,0.2c-0.6-0.2-0.7-0.6-1.1-1.2c-0.5-0.8-1-1.7-1.6-2.5
		c1.6-0.7,3.3-1.4,5-1.9c0.3,0.9,0.5,1.8,0.7,2.6c0.1,0.4,0.4,1.1,0.4,1.6C-241.4,433.4-242.2,433.2-243.1,433.3z"/>
</g>
</svg>
