<?xml version="1.0" encoding="utf-8"?>
<!-- Generator: Adobe Illustrator 19.0.0, SVG Export Plug-In . SVG Version: 6.00 Build 0)  -->
<svg version="1.1" id="Capa_1" xmlns="http://www.w3.org/2000/svg" xmlns:xlink="http://www.w3.org/1999/xlink" x="0px" y="0px"
	 viewBox="-269 392.3 56.6 56.6" style="enable-background:new -269 392.3 56.6 56.6;" xml:space="preserve">
<style type="text/css">
	.st0{fill:#F6F6F6;}
	.st1{fill:#FFFFFF;}
</style>
<g>
	<path class="st0" d="M51.9,815.5c-3.5-1.4-7.1-2.8-10.6-4c0,0,0-0.1,0-0.1c0-0.3-0.4-0.3-0.5-0.1c-0.3-0.1-0.7-0.2-1-0.4
		c-0.2-0.1-0.4,0.2-0.3,0.3c-0.2-0.1-0.4,0-0.5,0.2c-1.3,3.2,1.4,7.3,4.5,8.4c3.1,1.2,6.8-0.4,8.4-3.3c0-0.1,0-0.2,0-0.2
		C52.2,816.4,52.4,815.7,51.9,815.5z M45.8,814.1c0,0,0,0.1,0,0.1c-0.1,0.6-0.2,1.3,0.4,1.8c0.4,0.3,1,0.3,1.3-0.2
		c0.1-0.2-0.1-0.5-0.3-0.3c-0.2,0.2-0.5,0-0.6-0.2c-0.1-0.3-0.1-0.6-0.1-0.9c0.9,0.4,1.7,0.7,2.6,1c-1.7,4.3-6.6,0.1-7.6-3.1
		C42.9,812.8,44.3,813.5,45.8,814.1z M43.9,818.8c-2.6-0.9-4.8-4.3-4.3-7.1c0-0.1,0-0.2,0-0.3c0.4,0.2,0.7,0.3,1.1,0.5
		c0,2.5,2,4.8,4.3,5.8c1.6,0.7,5.1,0.2,4.8-2c0.4,0.2,0.9,0.4,1.3,0.5C49.1,818.2,46.8,819.9,43.9,818.8z"/>
	<path class="st0" d="M44.8,814.4c-0.2,0-0.5-0.2-0.5-0.4c-0.1-0.4-0.6-0.3-0.6,0.1c0,0.7,0.7,1.2,1.4,0.8
		C45.3,814.8,45.1,814.3,44.8,814.4z"/>
	<path class="st0" d="M27.3,812c-0.2-0.1-0.4,0.1-0.4,0.3c0.1,0.3,0.2,0.4,0.2,0.8c0,0.3,0.4,0.3,0.4,0.1
		C27.7,812.7,27.7,812.2,27.3,812z"/>
	<path class="st0" d="M52.7,800c-0.1,0.2-0.3,0.5-0.6,0.4c-0.3-0.1-0.3-0.4-0.2-0.6c0.1-0.2-0.3-0.3-0.4-0.2
		c-0.3,0.5-0.1,1.1,0.4,1.4c0.6,0.2,1.3-0.2,1.3-0.8C53.3,799.8,52.8,799.7,52.7,800z"/>
	<path class="st0" d="M52.2,801.7c-0.6,0.3-0.8,1-0.4,1.5c0.1,0.2,0.4,0,0.3-0.2c-0.1-0.3,0-0.8,0.5-0.8c0.3,0,0.4,0.3,0.6,0.4
		c0.2,0.2,0.4,0,0.4-0.2C53.6,801.8,52.7,801.4,52.2,801.7z"/>
	<path class="st0" d="M85.7,822.6c-0.1-0.4-0.4-0.7-0.8-0.6c-0.1,0-0.3,0-0.4,0.1c0.1-1.4-0.8-2.7-1.9-3.5c0.7-0.9,0.9-2.1,0.1-3.1
		c-0.3-0.4-0.7-0.7-1.2-0.8c-1.3-0.5-1.3,0.7-1-0.9c0.7-3.5-2.1-5.3-4.9-3.6c-0.6-2.2-2.5-4.1-4.5-5.2c-0.2-0.1-0.6-0.1-0.8,0.2
		c-0.2,0.4-0.3,0.7-0.5,1.1c-0.4-0.7-1.3-1.1-2-1.1c-0.4,0-0.7,0.2-1,0.4c0.3-1.4,0-2.9-1-4.1c-1.3-1.5-3.1-1.4-4.6-0.5
		c-0.3-2.3-3.1-3.6-4.7-2c0.1-0.8,0.2-1.6,0.3-2.5c0.2-1.4,0.1-2.4-1.6-2.3c-3.3,0.3-7.8,3.5-8.3,7.1c-0.1-0.3-0.2-0.5-0.3-0.7
		c-0.5-0.9-1.4-1.5-2.4-1.7c-1.3-0.2-2.6,0.6-3.1,1.8c-1.2-1.8-3.7-2.8-5.8-1.8c-2.5,1.2-2.7,3.6-1.7,5.6c-1.9-0.4-3.7,0.8-3.8,3.1
		c-0.3-0.3-0.7-0.6-1.1-0.8c-0.1-0.1-0.3,0-0.4,0.1c-0.2-0.1-0.5,0-0.6,0.3c-0.5,1.1-0.7,2.3-1.3,3.4c-0.2,0.3-0.4,0.6-0.6,0.9
		c-0.6-2-2.5-3.2-4.5-1.6c-1.4,1.1-2.6,3.3-2.1,5.1c-0.8,0-1.5,0.4-1.9,1.2c-0.7,1.4,0.4,2.8,1.9,3c0.4,0,0.4-0.5,0.1-0.6
		c-2.1-0.7-0.4-3.3,0.9-2c0.6,0.5,1.5-0.3,0.9-0.9c-1.2-1-0.5-2.6,0.2-3.7c0.6-1,0.6-1,1.9-0.9c1.4,0.1,1.2,0.1,1.6,1.2
		c0,0.1,0.1,0.2,0.1,0.2c-0.3,0.3-0.7,0.7-1.1,1c-0.1,0-0.1,0.1-0.1,0.1c-0.3,0-0.7,0.1-1,0.3c-0.3,0.2-0.1,0.7,0.3,0.6
		c1-0.2,1.4,0.2,1.4,0.9c0,0.6,0.6,0.7,1,0.4c0.6-0.5,1.5-0.6,2.3-0.4c0.8,0.3,1,0.8,1.6,1.3c0.3,0.3,0.8,0.1,0.8-0.3
		c0.1,0,0.2,0,0.4-0.1c2.1-2,1.6-6-0.3-8.3c0.1,0,0.3-0.1,0.3-0.2c0.3-2,2.4-3.2,4.2-1.7c0.5,0.4,1.1-0.2,0.7-0.7
		c-1.7-2.1-1.7-5.6,1.7-5.7c2,0,3,1.3,3.9,2.9c0.3,0.4,0.9,0.1,0.8-0.3c0-0.2-0.1-0.3-0.1-0.5c0.5-1.2,1.6-2.2,2.9-1.5
		c0.6,0.3,1,0.9,1.1,1.6c0.1,0.6,0,1.2,0.4,1.7c0,0.3,0.3,0.5,0.6,0.3c1.4-1.5,3.6-0.4,3.1,1.6c-0.2,0.6,0.6,1,1,0.6
		c1.9-1.6,3.8-0.2,4.3,1.9c0.2,0.6,1,0.4,1.1-0.1c0.1-1-0.2-1.8-0.8-2.4c0.1-0.1,0.2-0.2,0.2-0.3c0.2-1.5,0.4-3.1,0.6-4.7
		c0.5-0.6,1.1-1,1.9-1c1.2,0.1,2.4,1.4,1.7,2.8c-0.3,0.6,0.4,1.3,1,0.8c1.4-1.3,3.5-1.8,4.4,0.4c0.6,1.5,0.2,2.8-0.6,4.1
		c-0.4,0.6,0.5,1.3,1,0.8c0.1-0.1,0.2-0.2,0.2-0.3c0.2,0.2,0.5,0.1,0.6-0.2c0.1-0.8,0.7-1.5,1.6-1.3c0.7,0.1,0.9,0.7,1.4,1.2
		c-0.9,2.1-1.7,4.2-2.2,6.4c0,0.1,0,0.3,0.1,0.4c-0.2,0.1-0.3,0.1-0.5,0.2c-1.3,0.8-1.1,2.9,0.4,3.2c0.2,0,0.5-0.3,0.3-0.5
		c-0.4-0.2-0.5-0.6-0.2-1c-0.2-1.5,0.5-1.3,1.9,0.6c0,0.4,0.5,0.6,0.8,0.3c0.9-0.8,1.7-1.6,3-1.6c1.5,0,2.6,1.5,1.4,2.8
		c-0.4,0.5,0.1,1.1,0.7,0.8c1.6-0.8,1.5-3.1,0.1-4.1c-0.1-0.1-0.2-0.1-0.3-0.2c0,0,0,0,0,0c0.9-1.2,1.1-2.5,1-3.7
		c3.1-0.1,4.3,0.8,3.5,2.9c-0.1,0.3-0.3,0.6-0.3,1c0,0.2,0,0.4,0.2,0.6c0,0,0.5,0.3,0.5,0.4c0.1,0,0.1,0,0.2,0
		c1.1-0.2,1.6,0.6,1.3,2.4c-0.3,0.3-0.2,0.8,0.1,1c1.1,0.7,1.8,1.6,2,2.9c-0.1,0-0.2,0.1-0.3,0.3c-11.6,2.2-23,2.4-34.8,1.3
		c-11.7-1.1-23.6-2.2-34.7-6.2c-0.1,0-0.2,0-0.3,0c-0.3-0.2-0.8,0.1-0.6,0.5c2.9,5.5,7.1,9.2,13.2,10.5c7.4,1.6,15.3,2.2,22.9,2.8
		c11.2,0.9,30.7,4.3,37.3-7.9C86.3,823,86,822.7,85.7,822.6z M28.4,814.3c-0.2-0.1-0.3-0.1-0.5-0.2c-0.9-0.2-1.8-0.1-2.6,0.3
		c-0.1-0.2-0.3-0.4-0.6-0.6c1.4-1,2.8-2.5,3.5-4.2c0.2,0.7,0.4,1.4,0.5,2.1C28.9,812.7,28.7,813.5,28.4,814.3z M30.5,811.4
		c0.2,1.5-0.3,2.6-0.7,3.9c-0.2-0.3-0.6-0.5-0.9-0.7c0.8-1.7,1.1-4.3-0.2-5.7c0,0,0,0,0,0c0.1-0.4,0.2-0.7,0.2-1.1
		C29.7,808.9,30.3,810,30.5,811.4z M55.5,797.2c-0.1,0.7-0.2,1.5-0.3,2.2c-0.2,1.7-0.5,3.4-0.6,5c-1-0.5-2.4-0.6-3.5-0.1
		c-0.2-1.1-1-1.9-2-2.2c0.1-3.3,4.1-4.1,6.4-5.2c0.1,0,0.1-0.1,0.1-0.1C55.5,797,55.5,797.1,55.5,797.2z M55.6,796.7
		c0-0.2-0.1-0.4-0.3-0.4c-2.8-0.1-7.1,2.7-6.8,5.8c-0.3,0-0.6,0-0.9,0.1c0,0,0,0,0-0.1c0.2-2,1.5-3.5,3-4.7c1-0.8,3-2.2,4.3-2.1
		C55.9,795.5,55.7,796.1,55.6,796.7z M69.8,815.5c-0.3-0.9-1-1.5-1.9-1.6c0,0,0,0,0,0c0.8-2.1,1.6-4.2,2.5-6.2
		c0.8,0.9,1.5,1.8,1.9,3.1c0.3,1.2,0.1,2.3,0.2,3.4C71.5,814.3,70.6,814.8,69.8,815.5z M74.1,814.1c0,0,0,0.1,0,0.1
		c-0.2-0.1-0.5-0.1-0.7-0.1c1.2-2.3-0.7-5.7-2.6-7.1c0.1-0.3,0.2-0.5,0.4-0.8C73.8,807.9,76,810.9,74.1,814.1z M48.7,829.8
		c-6.5-0.5-13-1.2-19.4-2.2c-6.8-1.1-11.3-3.7-15.3-9.1c4.6,2.6,9.9,3.4,15,4.1c6.1,0.9,12.2,1.8,18.3,2.4
		c12.3,1.2,25.2,1.6,37.2-1.5C76.2,833.5,60.3,830.7,48.7,829.8z"/>
	<path class="st0" d="M71.5,811c-0.3,0-0.6-0.1-0.9-0.3c-0.2-0.2-0.5,0.2-0.3,0.4c0.3,0.4,0.7,0.5,1.2,0.6
		C72,811.8,72,811.1,71.5,811z"/>
	<path class="st0" d="M71.2,812.8c-0.3,0.2-0.7,0.2-1,0c-0.3-0.2-0.6,0.2-0.3,0.4c0.5,0.4,1.2,0.5,1.6,0
		C71.7,813,71.5,812.7,71.2,812.8z"/>
	<path class="st0" d="M58.6,815.5c-0.9,0.2-1.5,1.1-1.5,2c-0.9-0.6-2.1-0.8-2.8,0.1c-0.7,0.9,0,2.2,1.2,2c0.3,0,0.2-0.5-0.1-0.5
		c0.1-0.4,0.2-0.9,0.2-1.3c0.3,0,0.5,0,0.8,0.2c0.4,0.2,0.8,0.5,1.2,0.8c0.4,0.3,1-0.1,0.7-0.5c-0.3-0.5-0.3-1.3,0.2-1.7
		c1-0.8,2.1,0.4,1.8,1.4c-0.1,0.5,0.6,0.7,0.8,0.2C61.5,816.9,60.2,815.2,58.6,815.5z"/>
	<path class="st0" d="M45.8,807c-1.1-0.7-2.4-0.3-3.3,0.6c-0.6-0.9-1.4-1.8-2.6-1.4c-1,0.3-1.3,1.5-0.5,2.2c0.3,0.3,0.7-0.2,0.5-0.5
		c0.3-0.3,0.5-0.7,0.8-1c0.4,0.1,0.7,0.4,0.9,0.7c0.2,0.3,0.4,0.6,0.5,0.9c0.1,0.3,0.6,0.3,0.7,0.1c0.5-0.6,1.3-1.2,2.2-0.9
		c1,0.3,1.1,1.2,0.9,2.1c-0.1,0.4,0.4,0.8,0.8,0.4C47.5,809.2,46.9,807.6,45.8,807z"/>
</g>
<g>
	<path class="st0" d="M51.9,815.5c-3.5-1.4-7.1-2.8-10.6-4c0,0,0-0.1,0-0.1c0-0.3-0.4-0.3-0.5-0.1c-0.3-0.1-0.7-0.2-1-0.4
		c-0.2-0.1-0.4,0.2-0.3,0.3c-0.2-0.1-0.4,0-0.5,0.2c-1.3,3.2,1.4,7.3,4.5,8.4c3.1,1.2,6.8-0.4,8.4-3.3c0-0.1,0-0.2,0-0.2
		C52.2,816.4,52.4,815.7,51.9,815.5z M45.8,814.1c0,0,0,0.1,0,0.1c-0.1,0.6-0.2,1.3,0.4,1.8c0.4,0.3,1,0.3,1.3-0.2
		c0.1-0.2-0.1-0.5-0.3-0.3c-0.2,0.2-0.5,0-0.6-0.2c-0.1-0.3-0.1-0.6-0.1-0.9c0.9,0.4,1.7,0.7,2.6,1c-1.7,4.3-6.6,0.1-7.6-3.1
		C42.9,812.8,44.3,813.5,45.8,814.1z M43.9,818.8c-2.6-0.9-4.8-4.3-4.3-7.1c0-0.1,0-0.2,0-0.3c0.4,0.2,0.7,0.3,1.1,0.5
		c0,2.5,2,4.8,4.3,5.8c1.6,0.7,5.1,0.2,4.8-2c0.4,0.2,0.9,0.4,1.3,0.5C49.1,818.2,46.8,819.9,43.9,818.8z"/>
	<path class="st0" d="M44.8,814.4c-0.2,0-0.5-0.2-0.5-0.4c-0.1-0.4-0.6-0.3-0.6,0.1c0,0.7,0.7,1.2,1.4,0.8
		C45.3,814.8,45.1,814.3,44.8,814.4z"/>
	<path class="st0" d="M27.3,812c-0.2-0.1-0.4,0.1-0.4,0.3c0.1,0.3,0.2,0.4,0.2,0.8c0,0.3,0.4,0.3,0.4,0.1
		C27.7,812.7,27.7,812.2,27.3,812z"/>
	<path class="st0" d="M52.7,800c-0.1,0.2-0.3,0.5-0.6,0.4c-0.3-0.1-0.3-0.4-0.2-0.6c0.1-0.2-0.3-0.3-0.4-0.2
		c-0.3,0.5-0.1,1.1,0.4,1.4c0.6,0.2,1.3-0.2,1.3-0.8C53.3,799.8,52.8,799.7,52.7,800z"/>
	<path class="st0" d="M52.2,801.7c-0.6,0.3-0.8,1-0.4,1.5c0.1,0.2,0.4,0,0.3-0.2c-0.1-0.3,0-0.8,0.5-0.8c0.3,0,0.4,0.3,0.6,0.4
		c0.2,0.2,0.4,0,0.4-0.2C53.6,801.8,52.7,801.4,52.2,801.7z"/>
	<path class="st0" d="M85.7,822.6c-0.1-0.4-0.4-0.7-0.8-0.6c-0.1,0-0.3,0-0.4,0.1c0.1-1.4-0.8-2.7-1.9-3.5c0.7-0.9,0.9-2.1,0.1-3.1
		c-0.3-0.4-0.7-0.7-1.2-0.8c-1.3-0.5-1.3,0.7-1-0.9c0.7-3.5-2.1-5.3-4.9-3.6c-0.6-2.2-2.5-4.1-4.5-5.2c-0.2-0.1-0.6-0.1-0.8,0.2
		c-0.2,0.4-0.3,0.7-0.5,1.1c-0.4-0.7-1.3-1.1-2-1.1c-0.4,0-0.7,0.2-1,0.4c0.3-1.4,0-2.9-1-4.1c-1.3-1.5-3.1-1.4-4.6-0.5
		c-0.3-2.3-3.1-3.6-4.7-2c0.1-0.8,0.2-1.6,0.3-2.5c0.2-1.4,0.1-2.4-1.6-2.3c-3.3,0.3-7.8,3.5-8.3,7.1c-0.1-0.3-0.2-0.5-0.3-0.7
		c-0.5-0.9-1.4-1.5-2.4-1.7c-1.3-0.2-2.6,0.6-3.1,1.8c-1.2-1.8-3.7-2.8-5.8-1.8c-2.5,1.2-2.7,3.6-1.7,5.6c-1.9-0.4-3.7,0.8-3.8,3.1
		c-0.3-0.3-0.7-0.6-1.1-0.8c-0.1-0.1-0.3,0-0.4,0.1c-0.2-0.1-0.5,0-0.6,0.3c-0.5,1.1-0.7,2.3-1.3,3.4c-0.2,0.3-0.4,0.6-0.6,0.9
		c-0.6-2-2.5-3.2-4.5-1.6c-1.4,1.1-2.6,3.3-2.1,5.1c-0.8,0-1.5,0.4-1.9,1.2c-0.7,1.4,0.4,2.8,1.9,3c0.4,0,0.4-0.5,0.1-0.6
		c-2.1-0.7-0.4-3.3,0.9-2c0.6,0.5,1.5-0.3,0.9-0.9c-1.2-1-0.5-2.6,0.2-3.7c0.6-1,0.6-1,1.9-0.9c1.4,0.1,1.2,0.1,1.6,1.2
		c0,0.1,0.1,0.2,0.1,0.2c-0.3,0.3-0.7,0.7-1.1,1c-0.1,0-0.1,0.1-0.1,0.1c-0.3,0-0.7,0.1-1,0.3c-0.3,0.2-0.1,0.7,0.3,0.6
		c1-0.2,1.4,0.2,1.4,0.9c0,0.6,0.6,0.7,1,0.4c0.6-0.5,1.5-0.6,2.3-0.4c0.8,0.3,1,0.8,1.6,1.3c0.3,0.3,0.8,0.1,0.8-0.3
		c0.1,0,0.2,0,0.4-0.1c2.1-2,1.6-6-0.3-8.3c0.1,0,0.3-0.1,0.3-0.2c0.3-2,2.4-3.2,4.2-1.7c0.5,0.4,1.1-0.2,0.7-0.7
		c-1.7-2.1-1.7-5.6,1.7-5.7c2,0,3,1.3,3.9,2.9c0.3,0.4,0.9,0.1,0.8-0.3c0-0.2-0.1-0.3-0.1-0.5c0.5-1.2,1.6-2.2,2.9-1.5
		c0.6,0.3,1,0.9,1.1,1.6c0.1,0.6,0,1.2,0.4,1.7c0,0.3,0.3,0.5,0.6,0.3c1.4-1.5,3.6-0.4,3.1,1.6c-0.2,0.6,0.6,1,1,0.6
		c1.9-1.6,3.8-0.2,4.3,1.9c0.2,0.6,1,0.4,1.1-0.1c0.1-1-0.2-1.8-0.8-2.4c0.1-0.1,0.2-0.2,0.2-0.3c0.2-1.5,0.4-3.1,0.6-4.7
		c0.5-0.6,1.1-1,1.9-1c1.2,0.1,2.4,1.4,1.7,2.8c-0.3,0.6,0.4,1.3,1,0.8c1.4-1.3,3.5-1.8,4.4,0.4c0.6,1.5,0.2,2.8-0.6,4.1
		c-0.4,0.6,0.5,1.3,1,0.8c0.1-0.1,0.2-0.2,0.2-0.3c0.2,0.2,0.5,0.1,0.6-0.2c0.1-0.8,0.7-1.5,1.6-1.3c0.7,0.1,0.9,0.7,1.4,1.2
		c-0.9,2.1-1.7,4.2-2.2,6.4c0,0.1,0,0.3,0.1,0.4c-0.2,0.1-0.3,0.1-0.5,0.2c-1.3,0.8-1.1,2.9,0.4,3.2c0.2,0,0.5-0.3,0.3-0.5
		c-0.4-0.2-0.5-0.6-0.2-1c-0.2-1.5,0.5-1.3,1.9,0.6c0,0.4,0.5,0.6,0.8,0.3c0.9-0.8,1.7-1.6,3-1.6c1.5,0,2.6,1.5,1.4,2.8
		c-0.4,0.5,0.1,1.1,0.7,0.8c1.6-0.8,1.5-3.1,0.1-4.1c-0.1-0.1-0.2-0.1-0.3-0.2c0,0,0,0,0,0c0.9-1.2,1.1-2.5,1-3.7
		c3.1-0.1,4.3,0.8,3.5,2.9c-0.1,0.3-0.3,0.6-0.3,1c0,0.2,0,0.4,0.2,0.6c0,0,0.5,0.3,0.5,0.4c0.1,0,0.1,0,0.2,0
		c1.1-0.2,1.6,0.6,1.3,2.4c-0.3,0.3-0.2,0.8,0.1,1c1.1,0.7,1.8,1.6,2,2.9c-0.1,0-0.2,0.1-0.3,0.3c-11.6,2.2-23,2.4-34.8,1.3
		c-11.7-1.1-23.6-2.2-34.7-6.2c-0.1,0-0.2,0-0.3,0c-0.3-0.2-0.8,0.1-0.6,0.5c2.9,5.5,7.1,9.2,13.2,10.5c7.4,1.6,15.3,2.2,22.9,2.8
		c11.2,0.9,30.7,4.3,37.3-7.9C86.3,823,86,822.7,85.7,822.6z M28.4,814.3c-0.2-0.1-0.3-0.1-0.5-0.2c-0.9-0.2-1.8-0.1-2.6,0.3
		c-0.1-0.2-0.3-0.4-0.6-0.6c1.4-1,2.8-2.5,3.5-4.2c0.2,0.7,0.4,1.4,0.5,2.1C28.9,812.7,28.7,813.5,28.4,814.3z M30.5,811.4
		c0.2,1.5-0.3,2.6-0.7,3.9c-0.2-0.3-0.6-0.5-0.9-0.7c0.8-1.7,1.1-4.3-0.2-5.7c0,0,0,0,0,0c0.1-0.4,0.2-0.7,0.2-1.1
		C29.7,808.9,30.3,810,30.5,811.4z M55.5,797.2c-0.1,0.7-0.2,1.5-0.3,2.2c-0.2,1.7-0.5,3.4-0.6,5c-1-0.5-2.4-0.6-3.5-0.1
		c-0.2-1.1-1-1.9-2-2.2c0.1-3.3,4.1-4.1,6.4-5.2c0.1,0,0.1-0.1,0.1-0.1C55.5,797,55.5,797.1,55.5,797.2z M55.6,796.7
		c0-0.2-0.1-0.4-0.3-0.4c-2.8-0.1-7.1,2.7-6.8,5.8c-0.3,0-0.6,0-0.9,0.1c0,0,0,0,0-0.1c0.2-2,1.5-3.5,3-4.7c1-0.8,3-2.2,4.3-2.1
		C55.9,795.5,55.7,796.1,55.6,796.7z M69.8,815.5c-0.3-0.9-1-1.5-1.9-1.6c0,0,0,0,0,0c0.8-2.1,1.6-4.2,2.5-6.2
		c0.8,0.9,1.5,1.8,1.9,3.1c0.3,1.2,0.1,2.3,0.2,3.4C71.5,814.3,70.6,814.8,69.8,815.5z M74.1,814.1c0,0,0,0.1,0,0.1
		c-0.2-0.1-0.5-0.1-0.7-0.1c1.2-2.3-0.7-5.7-2.6-7.1c0.1-0.3,0.2-0.5,0.4-0.8C73.8,807.9,76,810.9,74.1,814.1z M48.7,829.8
		c-6.5-0.5-13-1.2-19.4-2.2c-6.8-1.1-11.3-3.7-15.3-9.1c4.6,2.6,9.9,3.4,15,4.1c6.1,0.9,12.2,1.8,18.3,2.4
		c12.3,1.2,25.2,1.6,37.2-1.5C76.2,833.5,60.3,830.7,48.7,829.8z"/>
	<path class="st0" d="M71.5,811c-0.3,0-0.6-0.1-0.9-0.3c-0.2-0.2-0.5,0.2-0.3,0.4c0.3,0.4,0.7,0.5,1.2,0.6
		C72,811.8,72,811.1,71.5,811z"/>
	<path class="st0" d="M71.2,812.8c-0.3,0.2-0.7,0.2-1,0c-0.3-0.2-0.6,0.2-0.3,0.4c0.5,0.4,1.2,0.5,1.6,0
		C71.7,813,71.5,812.7,71.2,812.8z"/>
	<path class="st0" d="M58.6,815.5c-0.9,0.2-1.5,1.1-1.5,2c-0.9-0.6-2.1-0.8-2.8,0.1c-0.7,0.9,0,2.2,1.2,2c0.3,0,0.2-0.5-0.1-0.5
		c0.1-0.4,0.2-0.9,0.2-1.3c0.3,0,0.5,0,0.8,0.2c0.4,0.2,0.8,0.5,1.2,0.8c0.4,0.3,1-0.1,0.7-0.5c-0.3-0.5-0.3-1.3,0.2-1.7
		c1-0.8,2.1,0.4,1.8,1.4c-0.1,0.5,0.6,0.7,0.8,0.2C61.5,816.9,60.2,815.2,58.6,815.5z"/>
	<path class="st0" d="M45.8,807c-1.1-0.7-2.4-0.3-3.3,0.6c-0.6-0.9-1.4-1.8-2.6-1.4c-1,0.3-1.3,1.5-0.5,2.2c0.3,0.3,0.7-0.2,0.5-0.5
		c0.3-0.3,0.5-0.7,0.8-1c0.4,0.1,0.7,0.4,0.9,0.7c0.2,0.3,0.4,0.6,0.5,0.9c0.1,0.3,0.6,0.3,0.7,0.1c0.5-0.6,1.3-1.2,2.2-0.9
		c1,0.3,1.1,1.2,0.9,2.1c-0.1,0.4,0.4,0.8,0.8,0.4C47.5,809.2,46.9,807.6,45.8,807z"/>
</g>
<g>
	<path class="st1" d="M-238.7,423.3c-2.6-1.1-5.3-2.1-7.9-3c0,0,0-0.1,0-0.1c0-0.2-0.3-0.2-0.4-0.1c-0.3-0.1-0.5-0.2-0.8-0.3
		c-0.2-0.1-0.3,0.1-0.2,0.3c-0.1-0.1-0.3,0-0.4,0.2c-0.9,2.4,1.1,5.4,3.3,6.3c2.3,0.9,5.1-0.3,6.3-2.4c0-0.1,0-0.1,0-0.2
		C-238.5,424-238.4,423.4-238.7,423.3z M-243.3,422.2C-243.3,422.2-243.3,422.2-243.3,422.2c-0.1,0.5-0.2,1.1,0.2,1.4
		c0.3,0.2,0.7,0.2,0.9-0.1c0.1-0.2-0.1-0.4-0.3-0.3c-0.2,0.1-0.4,0-0.5-0.2c-0.1-0.2-0.1-0.4,0-0.7c0.6,0.3,1.3,0.5,1.9,0.8
		c-1.3,3.2-4.9,0.1-5.7-2.3C-245.5,421.3-244.4,421.7-243.3,422.2z M-244.7,425.7c-1.9-0.7-3.6-3.2-3.2-5.3c0-0.1,0-0.1,0-0.2
		c0.3,0.1,0.6,0.2,0.8,0.4c0,1.9,1.5,3.6,3.2,4.3c1.2,0.5,3.8,0.1,3.6-1.5c0.3,0.1,0.7,0.3,1,0.4
		C-240.8,425.2-242.5,426.5-244.7,425.7z"/>
	<path class="st1" d="M-244.1,422.4c-0.2,0-0.3-0.1-0.4-0.3c-0.1-0.3-0.5-0.2-0.5,0.1c0,0.5,0.5,0.9,1,0.6
		C-243.6,422.7-243.8,422.4-244.1,422.4z"/>
	<path class="st1" d="M-257.1,420.6c-0.1-0.1-0.3,0.1-0.3,0.2c0.1,0.2,0.2,0.3,0.2,0.6c0,0.2,0.3,0.2,0.3,0
		C-256.8,421.2-256.8,420.8-257.1,420.6z"/>
	<path class="st1" d="M-238.1,411.7c-0.1,0.2-0.2,0.4-0.4,0.3c-0.2-0.1-0.2-0.3-0.2-0.5c0.1-0.2-0.2-0.3-0.3-0.1
		c-0.2,0.4-0.1,0.9,0.3,1c0.4,0.2,1-0.1,1-0.6C-237.7,411.6-238,411.5-238.1,411.7z"/>
	<path class="st1" d="M-238.5,412.9c-0.4,0.2-0.6,0.7-0.3,1.1c0.1,0.2,0.3,0,0.2-0.1c-0.1-0.3,0-0.6,0.3-0.6c0.2,0,0.3,0.2,0.5,0.3
		c0.1,0.1,0.3,0,0.3-0.1C-237.4,413-238.1,412.8-238.5,412.9z"/>
	<path class="st1" d="M-213.5,428.6c0-0.3-0.3-0.5-0.6-0.5c-0.1,0-0.2,0-0.3,0.1c0.1-1-0.6-2-1.4-2.6c0.5-0.7,0.7-1.6,0.1-2.3
		c-0.2-0.3-0.5-0.5-0.9-0.6c-1-0.3-0.9,0.5-0.7-0.7c0.5-2.6-1.5-3.9-3.6-2.7c-0.4-1.6-1.9-3.1-3.4-3.9c-0.2-0.1-0.5-0.1-0.6,0.1
		c-0.1,0.3-0.3,0.5-0.4,0.8c-0.3-0.5-1-0.8-1.5-0.8c-0.3,0-0.5,0.1-0.7,0.3c0.2-1.1,0-2.2-0.7-3c-1-1.1-2.3-1-3.4-0.4
		c-0.2-1.7-2.3-2.7-3.5-1.5c0.1-0.6,0.2-1.2,0.2-1.8c0.1-1.1,0.1-1.8-1.2-1.7c-2.5,0.2-5.8,2.6-6.2,5.3c-0.1-0.2-0.1-0.4-0.2-0.5
		c-0.4-0.7-1-1.1-1.8-1.2c-1-0.1-1.9,0.4-2.3,1.3c-0.9-1.4-2.8-2.1-4.3-1.3c-1.9,0.9-2,2.7-1.3,4.2c-1.4-0.3-2.7,0.6-2.9,2.3
		c-0.3-0.2-0.5-0.5-0.8-0.6c-0.1-0.1-0.2,0-0.3,0.1c-0.2,0-0.3,0-0.4,0.2c-0.4,0.8-0.5,1.7-1,2.5c-0.1,0.2-0.3,0.5-0.5,0.7
		c-0.5-1.5-1.9-2.4-3.4-1.2c-1,0.8-1.9,2.5-1.6,3.8c-0.6,0-1.1,0.3-1.4,0.9c-0.5,1.1,0.3,2.1,1.4,2.2c0.3,0,0.3-0.4,0.1-0.5
		c-1.5-0.6-0.3-2.5,0.7-1.5c0.5,0.4,1.1-0.3,0.7-0.7c-0.9-0.8-0.4-2,0.2-2.8c0.5-0.7,0.5-0.7,1.4-0.6c1.1,0.1,0.9,0.1,1.2,0.9
		c0,0.1,0.1,0.1,0.1,0.2c-0.3,0.3-0.5,0.5-0.8,0.7c0,0-0.1,0.1-0.1,0.1c-0.2,0-0.5,0.1-0.7,0.2c-0.3,0.2,0,0.6,0.2,0.4
		c0.7-0.1,1.1,0.1,1,0.7c0,0.4,0.5,0.5,0.7,0.3c0.5-0.4,1.1-0.5,1.7-0.3c0.6,0.2,0.8,0.6,1.2,1c0.2,0.2,0.6,0.1,0.6-0.2
		c0.1,0,0.2,0,0.3-0.1c1.6-1.5,1.2-4.5-0.3-6.2c0.1,0,0.2-0.1,0.2-0.2c0.3-1.5,1.8-2.4,3.1-1.3c0.4,0.3,0.9-0.2,0.5-0.5
		c-1.3-1.6-1.2-4.2,1.3-4.2c1.5,0,2.2,1,2.9,2.1c0.2,0.3,0.7,0.1,0.6-0.3c0-0.1-0.1-0.2-0.1-0.4c0.4-0.9,1.2-1.6,2.2-1.1
		c0.5,0.2,0.7,0.7,0.8,1.2c0.1,0.4,0,0.9,0.3,1.3c0,0.2,0.2,0.4,0.4,0.2c1-1.1,2.7-0.3,2.3,1.2c-0.1,0.5,0.4,0.7,0.8,0.4
		c1.4-1.2,2.8-0.1,3.2,1.4c0.1,0.5,0.8,0.3,0.8-0.1c0.1-0.8-0.2-1.4-0.6-1.8c0.1,0,0.2-0.1,0.2-0.3c0.2-1.2,0.3-2.3,0.5-3.5
		c0.4-0.4,0.8-0.8,1.4-0.7c0.9,0.1,1.8,1,1.3,2.1c-0.2,0.5,0.3,1,0.7,0.6c1-1,2.6-1.3,3.3,0.3c0.5,1.1,0.1,2.1-0.5,3
		c-0.3,0.4,0.4,1,0.7,0.6c0.1-0.1,0.1-0.2,0.2-0.2c0.1,0.1,0.4,0.1,0.4-0.2c0.1-0.6,0.6-1.1,1.2-1c0.5,0.1,0.7,0.5,1,0.9
		c-0.7,1.5-1.3,3.1-1.7,4.8c0,0.1,0,0.2,0,0.3c-0.1,0-0.3,0.1-0.4,0.2c-0.9,0.6-0.8,2.2,0.3,2.4c0.2,0,0.4-0.2,0.2-0.3
		c-0.3-0.2-0.4-0.4-0.2-0.8c-0.1-1.1,0.3-1,1.4,0.5c0,0.3,0.4,0.5,0.6,0.3c0.6-0.6,1.3-1.2,2.2-1.2c1.1,0,1.9,1.2,1.1,2.1
		c-0.3,0.3,0.1,0.8,0.5,0.6c1.2-0.6,1.1-2.3,0.1-3.1c-0.1-0.1-0.1-0.1-0.2-0.1c0,0,0,0,0,0c0.6-0.9,0.8-1.8,0.7-2.7
		c2.3-0.1,3.2,0.6,2.6,2.2c-0.1,0.2-0.2,0.5-0.2,0.7c0,0.1,0,0.3,0.1,0.4c0,0,0.4,0.2,0.4,0.3c0,0,0.1,0,0.1,0
		c0.8-0.2,1.2,0.5,1,1.8c-0.2,0.2-0.1,0.6,0.1,0.7c0.8,0.5,1.3,1.2,1.5,2.2c-0.1,0-0.2,0.1-0.2,0.2c-8.6,1.6-17.2,1.8-25.9,1
		c-8.7-0.8-17.6-1.7-25.9-4.6c-0.1,0-0.1,0-0.2,0c-0.2-0.2-0.6,0.1-0.4,0.4c2.2,4.1,5.3,6.8,9.8,7.8c5.6,1.2,11.4,1.6,17,2.1
		c8.3,0.6,22.9,3.2,27.8-5.9C-213.1,428.9-213.3,428.6-213.5,428.6z M-256.2,422.4c-0.1,0-0.2-0.1-0.3-0.1c-0.7-0.2-1.3-0.1-1.9,0.2
		c-0.1-0.2-0.3-0.3-0.4-0.4c1.1-0.7,2.1-1.9,2.6-3.1c0.1,0.5,0.3,1,0.4,1.6C-255.9,421.2-256,421.8-256.2,422.4z M-254.7,420.2
		c0.1,1.1-0.2,1.9-0.5,2.9c-0.2-0.2-0.4-0.4-0.7-0.5c0.6-1.3,0.8-3.2-0.2-4.3c0,0,0,0,0,0c0.1-0.3,0.1-0.5,0.1-0.8
		C-255.3,418.3-254.8,419.2-254.7,420.2z M-236.1,409.6c-0.1,0.6-0.1,1.1-0.2,1.7c-0.2,1.3-0.3,2.5-0.5,3.8
		c-0.8-0.4-1.8-0.4-2.6-0.1c-0.2-0.8-0.8-1.4-1.5-1.6c0-2.5,3-3.1,4.8-3.9c0.1,0,0.1-0.1,0.1-0.1C-236,409.4-236,409.5-236.1,409.6z
		 M-236,409.3c0-0.1-0.1-0.3-0.2-0.3c-2.1-0.1-5.3,2-5.1,4.3c-0.2,0-0.5,0-0.7,0.1c0,0,0,0,0,0c0.1-1.5,1.1-2.6,2.3-3.5
		c0.8-0.6,2.2-1.6,3.2-1.6C-235.8,408.3-235.9,408.8-236,409.3z M-225.4,423.2c-0.2-0.6-0.8-1.1-1.4-1.2c0,0,0,0,0,0
		c0.6-1.6,1.2-3.1,1.8-4.6c0.6,0.7,1.1,1.4,1.4,2.3c0.2,0.9,0.1,1.7,0.2,2.6C-224.1,422.3-224.8,422.7-225.4,423.2z M-222.2,422.2
		C-222.2,422.3-222.2,422.3-222.2,422.2c-0.2,0-0.4,0-0.6,0c0.9-1.7-0.5-4.3-1.9-5.3c0.1-0.2,0.2-0.4,0.3-0.6
		C-222.4,417.6-220.8,419.8-222.2,422.2z M-241.1,433.9c-4.8-0.4-9.7-0.9-14.5-1.6c-5.1-0.8-8.4-2.8-11.4-6.8
		c3.4,1.9,7.4,2.5,11.2,3.1c4.5,0.7,9.1,1.3,13.6,1.8c9.2,0.9,18.8,1.2,27.8-1.1C-220.6,436.7-232.4,434.6-241.1,433.9z"/>
	<path class="st1" d="M-224.1,419.9c-0.3,0-0.5-0.1-0.7-0.2c-0.2-0.1-0.4,0.2-0.2,0.3c0.3,0.3,0.6,0.4,0.9,0.4
		C-223.8,420.5-223.7,419.9-224.1,419.9z"/>
	<path class="st1" d="M-224.3,421.3c-0.2,0.1-0.5,0.2-0.7,0c-0.2-0.1-0.4,0.2-0.3,0.3c0.4,0.3,0.9,0.4,1.2,0
		C-223.9,421.4-224.1,421.2-224.3,421.3z"/>
	<path class="st1" d="M-233.7,423.3c-0.7,0.2-1.1,0.8-1.1,1.5c-0.7-0.4-1.5-0.6-2.1,0.1c-0.6,0.7,0,1.7,0.9,1.5
		c0.2,0,0.2-0.4-0.1-0.4c0.1-0.3,0.1-0.6,0.2-1c0.2,0,0.4,0,0.6,0.1c0.3,0.1,0.6,0.4,0.9,0.6c0.3,0.2,0.7-0.1,0.5-0.4
		c-0.3-0.4-0.2-0.9,0.1-1.3c0.7-0.6,1.5,0.3,1.3,1.1c-0.1,0.4,0.5,0.5,0.6,0.2C-231.6,424.3-232.6,423-233.7,423.3z"/>
	<path class="st1" d="M-243.3,416.9c-0.9-0.5-1.8-0.2-2.5,0.4c-0.5-0.6-1.1-1.3-2-1c-0.7,0.2-0.9,1.1-0.4,1.6
		c0.2,0.2,0.6-0.1,0.3-0.3c0.2-0.3,0.4-0.5,0.6-0.8c0.3,0.1,0.5,0.3,0.7,0.5c0.2,0.2,0.3,0.4,0.4,0.7c0.1,0.2,0.4,0.2,0.6,0.1
		c0.4-0.5,1-0.9,1.6-0.7c0.8,0.2,0.8,0.9,0.7,1.6c-0.1,0.3,0.3,0.6,0.6,0.3C-242,418.6-242.5,417.4-243.3,416.9z"/>
</g>
</svg>
