<?xml version="1.0" encoding="utf-8"?>
<!-- Generator: Adobe Illustrator 19.0.0, SVG Export Plug-In . SVG Version: 6.00 Build 0)  -->
<svg version="1.1" id="Capa_1" xmlns="http://www.w3.org/2000/svg" xmlns:xlink="http://www.w3.org/1999/xlink" x="0px" y="0px"
	 viewBox="-269 392.3 56.6 56.6" style="enable-background:new -269 392.3 56.6 56.6;" xml:space="preserve">
<style type="text/css">
	.st0{fill:#F6F6F6;}
	.st1{fill:#FFFFFF;}
</style>
<g>
	<path class="st0" d="M51.9,815.5c-3.5-1.4-7.1-2.8-10.6-4c0,0,0-0.1,0-0.1c0-0.3-0.4-0.3-0.5-0.1c-0.3-0.1-0.7-0.2-1-0.4
		c-0.2-0.1-0.4,0.2-0.3,0.3c-0.2-0.1-0.4,0-0.5,0.2c-1.3,3.2,1.4,7.3,4.5,8.4c3.1,1.2,6.8-0.4,8.4-3.3c0-0.1,0-0.2,0-0.2
		C52.2,816.4,52.4,815.7,51.9,815.5z M45.8,814.1c0,0,0,0.1,0,0.1c-0.1,0.6-0.2,1.3,0.4,1.8c0.4,0.3,1,0.3,1.3-0.2
		c0.1-0.2-0.1-0.5-0.3-0.3c-0.2,0.2-0.5,0-0.6-0.2c-0.1-0.3-0.1-0.6-0.1-0.9c0.9,0.4,1.7,0.7,2.6,1c-1.7,4.3-6.6,0.1-7.6-3.1
		C42.9,812.8,44.3,813.5,45.8,814.1z M43.9,818.8c-2.6-0.9-4.8-4.3-4.3-7.1c0-0.1,0-0.2,0-0.3c0.4,0.2,0.7,0.3,1.1,0.5
		c0,2.5,2,4.8,4.3,5.8c1.6,0.7,5.1,0.2,4.8-2c0.4,0.2,0.9,0.4,1.3,0.5C49.1,818.2,46.8,819.9,43.9,818.8z"/>
	<path class="st0" d="M44.8,814.4c-0.2,0-0.5-0.2-0.5-0.4c-0.1-0.4-0.6-0.3-0.6,0.1c0,0.7,0.7,1.2,1.4,0.8
		C45.3,814.8,45.1,814.3,44.8,814.4z"/>
	<path class="st0" d="M27.3,812c-0.2-0.1-0.4,0.1-0.4,0.3c0.1,0.3,0.2,0.4,0.2,0.8c0,0.3,0.4,0.3,0.4,0.1
		C27.7,812.7,27.7,812.2,27.3,812z"/>
	<path class="st0" d="M52.7,800c-0.1,0.2-0.3,0.5-0.6,0.4c-0.3-0.1-0.3-0.4-0.2-0.6c0.1-0.2-0.3-0.3-0.4-0.2
		c-0.3,0.5-0.1,1.1,0.4,1.4c0.6,0.2,1.3-0.2,1.3-0.8C53.3,799.8,52.8,799.7,52.7,800z"/>
	<path class="st0" d="M52.2,801.7c-0.6,0.3-0.8,1-0.4,1.5c0.1,0.2,0.4,0,0.3-0.2c-0.1-0.3,0-0.8,0.5-0.8c0.3,0,0.4,0.3,0.6,0.4
		c0.2,0.2,0.4,0,0.4-0.2C53.6,801.8,52.7,801.4,52.2,801.7z"/>
	<path class="st0" d="M85.7,822.6c-0.1-0.4-0.4-0.7-0.8-0.6c-0.1,0-0.3,0-0.4,0.1c0.1-1.4-0.8-2.7-1.9-3.5c0.7-0.9,0.9-2.1,0.1-3.1
		c-0.3-0.4-0.7-0.7-1.2-0.8c-1.3-0.5-1.3,0.7-1-0.9c0.7-3.5-2.1-5.3-4.9-3.6c-0.6-2.2-2.5-4.1-4.5-5.2c-0.2-0.1-0.6-0.1-0.8,0.2
		c-0.2,0.4-0.3,0.7-0.5,1.1c-0.4-0.7-1.3-1.1-2-1.1c-0.4,0-0.7,0.2-1,0.4c0.3-1.4,0-2.9-1-4.1c-1.3-1.5-3.1-1.4-4.6-0.5
		c-0.3-2.3-3.1-3.6-4.7-2c0.1-0.8,0.2-1.6,0.3-2.5c0.2-1.4,0.1-2.4-1.6-2.3c-3.3,0.3-7.8,3.5-8.3,7.1c-0.1-0.3-0.2-0.5-0.3-0.7
		c-0.5-0.9-1.4-1.5-2.4-1.7c-1.3-0.2-2.6,0.6-3.1,1.8c-1.2-1.8-3.7-2.8-5.8-1.8c-2.5,1.2-2.7,3.6-1.7,5.6c-1.9-0.4-3.7,0.8-3.8,3.1
		c-0.3-0.3-0.7-0.6-1.1-0.8c-0.1-0.1-0.3,0-0.4,0.1c-0.2-0.1-0.5,0-0.6,0.3c-0.5,1.1-0.7,2.3-1.3,3.4c-0.2,0.3-0.4,0.6-0.6,0.9
		c-0.6-2-2.5-3.2-4.5-1.6c-1.4,1.1-2.6,3.3-2.1,5.1c-0.8,0-1.5,0.4-1.9,1.2c-0.7,1.4,0.4,2.8,1.9,3c0.4,0,0.4-0.5,0.1-0.6
		c-2.1-0.7-0.4-3.3,0.9-2c0.6,0.5,1.5-0.3,0.9-0.9c-1.2-1-0.5-2.6,0.2-3.7c0.6-1,0.6-1,1.9-0.9c1.4,0.1,1.2,0.1,1.6,1.2
		c0,0.1,0.1,0.2,0.1,0.2c-0.3,0.3-0.7,0.7-1.1,1c-0.1,0-0.1,0.1-0.1,0.1c-0.3,0-0.7,0.1-1,0.3c-0.3,0.2-0.1,0.7,0.3,0.6
		c1-0.2,1.4,0.2,1.4,0.9c0,0.6,0.6,0.7,1,0.4c0.6-0.5,1.5-0.6,2.3-0.4c0.8,0.3,1,0.8,1.6,1.3c0.3,0.3,0.8,0.1,0.8-0.3
		c0.1,0,0.2,0,0.4-0.1c2.1-2,1.6-6-0.3-8.3c0.1,0,0.3-0.1,0.3-0.2c0.3-2,2.4-3.2,4.2-1.7c0.5,0.4,1.1-0.2,0.7-0.7
		c-1.7-2.1-1.7-5.6,1.7-5.7c2,0,3,1.3,3.9,2.9c0.3,0.4,0.9,0.1,0.8-0.3c0-0.2-0.1-0.3-0.1-0.5c0.5-1.2,1.6-2.2,2.9-1.5
		c0.6,0.3,1,0.9,1.1,1.6c0.1,0.6,0,1.2,0.4,1.7c0,0.3,0.3,0.5,0.6,0.3c1.4-1.5,3.6-0.4,3.1,1.6c-0.2,0.6,0.6,1,1,0.6
		c1.9-1.6,3.8-0.2,4.3,1.9c0.2,0.6,1,0.4,1.1-0.1c0.1-1-0.2-1.8-0.8-2.4c0.1-0.1,0.2-0.2,0.2-0.3c0.2-1.5,0.4-3.1,0.6-4.7
		c0.5-0.6,1.1-1,1.9-1c1.2,0.1,2.4,1.4,1.7,2.8c-0.3,0.6,0.4,1.3,1,0.8c1.4-1.3,3.5-1.8,4.4,0.4c0.6,1.5,0.2,2.8-0.6,4.1
		c-0.4,0.6,0.5,1.3,1,0.8c0.1-0.1,0.2-0.2,0.2-0.3c0.2,0.2,0.5,0.1,0.6-0.2c0.1-0.8,0.7-1.5,1.6-1.3c0.7,0.1,0.9,0.7,1.4,1.2
		c-0.9,2.1-1.7,4.2-2.2,6.4c0,0.1,0,0.3,0.1,0.4c-0.2,0.1-0.3,0.1-0.5,0.2c-1.3,0.8-1.1,2.9,0.4,3.2c0.2,0,0.5-0.3,0.3-0.5
		c-0.4-0.2-0.5-0.6-0.2-1c-0.2-1.5,0.5-1.3,1.9,0.6c0,0.4,0.5,0.6,0.8,0.3c0.9-0.8,1.7-1.6,3-1.6c1.5,0,2.6,1.5,1.4,2.8
		c-0.4,0.5,0.1,1.1,0.7,0.8c1.6-0.8,1.5-3.1,0.1-4.1c-0.1-0.1-0.2-0.1-0.3-0.2c0,0,0,0,0,0c0.9-1.2,1.1-2.5,1-3.7
		c3.1-0.1,4.3,0.8,3.5,2.9c-0.1,0.3-0.3,0.6-0.3,1c0,0.2,0,0.4,0.2,0.6c0,0,0.5,0.3,0.5,0.4c0.1,0,0.1,0,0.2,0
		c1.1-0.2,1.6,0.6,1.3,2.4c-0.3,0.3-0.2,0.8,0.1,1c1.1,0.7,1.8,1.6,2,2.9c-0.1,0-0.2,0.1-0.3,0.3c-11.6,2.2-23,2.4-34.8,1.3
		c-11.7-1.1-23.6-2.2-34.7-6.2c-0.1,0-0.2,0-0.3,0c-0.3-0.2-0.8,0.1-0.6,0.5c2.9,5.5,7.1,9.2,13.2,10.5c7.4,1.6,15.3,2.2,22.9,2.8
		c11.2,0.9,30.7,4.3,37.3-7.9C86.3,823,86,822.7,85.7,822.6z M28.4,814.3c-0.2-0.1-0.3-0.1-0.5-0.2c-0.9-0.2-1.8-0.1-2.6,0.3
		c-0.1-0.2-0.3-0.4-0.6-0.6c1.4-1,2.8-2.5,3.5-4.2c0.2,0.7,0.4,1.4,0.5,2.1C28.9,812.7,28.7,813.5,28.4,814.3z M30.5,811.4
		c0.2,1.5-0.3,2.6-0.7,3.9c-0.2-0.3-0.6-0.5-0.9-0.7c0.8-1.7,1.1-4.3-0.2-5.7c0,0,0,0,0,0c0.1-0.4,0.2-0.7,0.2-1.1
		C29.7,808.9,30.3,810,30.5,811.4z M55.5,797.2c-0.1,0.7-0.2,1.5-0.3,2.2c-0.2,1.7-0.5,3.4-0.6,5c-1-0.5-2.4-0.6-3.5-0.1
		c-0.2-1.1-1-1.9-2-2.2c0.1-3.3,4.1-4.1,6.4-5.2c0.1,0,0.1-0.1,0.1-0.1C55.5,797,55.5,797.1,55.5,797.2z M55.6,796.7
		c0-0.2-0.1-0.4-0.3-0.4c-2.8-0.1-7.1,2.7-6.8,5.8c-0.3,0-0.6,0-0.9,0.1c0,0,0,0,0-0.1c0.2-2,1.5-3.5,3-4.7c1-0.8,3-2.2,4.3-2.1
		C55.9,795.5,55.7,796.1,55.6,796.7z M69.8,815.5c-0.3-0.9-1-1.5-1.9-1.6c0,0,0,0,0,0c0.8-2.1,1.6-4.2,2.5-6.2
		c0.8,0.9,1.5,1.8,1.9,3.1c0.3,1.2,0.1,2.3,0.2,3.4C71.5,814.3,70.6,814.8,69.8,815.5z M74.1,814.1c0,0,0,0.1,0,0.1
		c-0.2-0.1-0.5-0.1-0.7-0.1c1.2-2.3-0.7-5.7-2.6-7.1c0.1-0.3,0.2-0.5,0.4-0.8C73.8,807.9,76,810.9,74.1,814.1z M48.7,829.8
		c-6.5-0.5-13-1.2-19.4-2.2c-6.8-1.1-11.3-3.7-15.3-9.1c4.6,2.6,9.9,3.4,15,4.1c6.1,0.9,12.2,1.8,18.3,2.4
		c12.3,1.2,25.2,1.6,37.2-1.5C76.2,833.5,60.3,830.7,48.7,829.8z"/>
	<path class="st0" d="M71.5,811c-0.3,0-0.6-0.1-0.9-0.3c-0.2-0.2-0.5,0.2-0.3,0.4c0.3,0.4,0.7,0.5,1.2,0.6
		C72,811.8,72,811.1,71.5,811z"/>
	<path class="st0" d="M71.2,812.8c-0.3,0.2-0.7,0.2-1,0c-0.3-0.2-0.6,0.2-0.3,0.4c0.5,0.4,1.2,0.5,1.6,0
		C71.7,813,71.5,812.7,71.2,812.8z"/>
	<path class="st0" d="M58.6,815.5c-0.9,0.2-1.5,1.1-1.5,2c-0.9-0.6-2.1-0.8-2.8,0.1c-0.7,0.9,0,2.2,1.2,2c0.3,0,0.2-0.5-0.1-0.5
		c0.1-0.4,0.2-0.9,0.2-1.3c0.3,0,0.5,0,0.8,0.2c0.4,0.2,0.8,0.5,1.2,0.8c0.4,0.3,1-0.1,0.7-0.5c-0.3-0.5-0.3-1.3,0.2-1.7
		c1-0.8,2.1,0.4,1.8,1.4c-0.1,0.5,0.6,0.7,0.8,0.2C61.5,816.9,60.2,815.2,58.6,815.5z"/>
	<path class="st0" d="M45.8,807c-1.1-0.7-2.4-0.3-3.3,0.6c-0.6-0.9-1.4-1.8-2.6-1.4c-1,0.3-1.3,1.5-0.5,2.2c0.3,0.3,0.7-0.2,0.5-0.5
		c0.3-0.3,0.5-0.7,0.8-1c0.4,0.1,0.7,0.4,0.9,0.7c0.2,0.3,0.4,0.6,0.5,0.9c0.1,0.3,0.6,0.3,0.7,0.1c0.5-0.6,1.3-1.2,2.2-0.9
		c1,0.3,1.1,1.2,0.9,2.1c-0.1,0.4,0.4,0.8,0.8,0.4C47.5,809.2,46.9,807.6,45.8,807z"/>
</g>
<g>
	<path class="st0" d="M51.9,815.5c-3.5-1.4-7.1-2.8-10.6-4c0,0,0-0.1,0-0.1c0-0.3-0.4-0.3-0.5-0.1c-0.3-0.1-0.7-0.2-1-0.4
		c-0.2-0.1-0.4,0.2-0.3,0.3c-0.2-0.1-0.4,0-0.5,0.2c-1.3,3.2,1.4,7.3,4.5,8.4c3.1,1.2,6.8-0.4,8.4-3.3c0-0.1,0-0.2,0-0.2
		C52.2,816.4,52.4,815.7,51.9,815.5z M45.8,814.1c0,0,0,0.1,0,0.1c-0.1,0.6-0.2,1.3,0.4,1.8c0.4,0.3,1,0.3,1.3-0.2
		c0.1-0.2-0.1-0.5-0.3-0.3c-0.2,0.2-0.5,0-0.6-0.2c-0.1-0.3-0.1-0.6-0.1-0.9c0.9,0.4,1.7,0.7,2.6,1c-1.7,4.3-6.6,0.1-7.6-3.1
		C42.9,812.8,44.3,813.5,45.8,814.1z M43.9,818.8c-2.6-0.9-4.8-4.3-4.3-7.1c0-0.1,0-0.2,0-0.3c0.4,0.2,0.7,0.3,1.1,0.5
		c0,2.5,2,4.8,4.3,5.8c1.6,0.7,5.1,0.2,4.8-2c0.4,0.2,0.9,0.4,1.3,0.5C49.1,818.2,46.8,819.9,43.9,818.8z"/>
	<path class="st0" d="M44.8,814.4c-0.2,0-0.5-0.2-0.5-0.4c-0.1-0.4-0.6-0.3-0.6,0.1c0,0.7,0.7,1.2,1.4,0.8
		C45.3,814.8,45.1,814.3,44.8,814.4z"/>
	<path class="st0" d="M27.3,812c-0.2-0.1-0.4,0.1-0.4,0.3c0.1,0.3,0.2,0.4,0.2,0.8c0,0.3,0.4,0.3,0.4,0.1
		C27.7,812.7,27.7,812.2,27.3,812z"/>
	<path class="st0" d="M52.7,800c-0.1,0.2-0.3,0.5-0.6,0.4c-0.3-0.1-0.3-0.4-0.2-0.6c0.1-0.2-0.3-0.3-0.4-0.2
		c-0.3,0.5-0.1,1.1,0.4,1.4c0.6,0.2,1.3-0.2,1.3-0.8C53.3,799.8,52.8,799.7,52.7,800z"/>
	<path class="st0" d="M52.2,801.7c-0.6,0.3-0.8,1-0.4,1.5c0.1,0.2,0.4,0,0.3-0.2c-0.1-0.3,0-0.8,0.5-0.8c0.3,0,0.4,0.3,0.6,0.4
		c0.2,0.2,0.4,0,0.4-0.2C53.6,801.8,52.7,801.4,52.2,801.7z"/>
	<path class="st0" d="M85.7,822.6c-0.1-0.4-0.4-0.7-0.8-0.6c-0.1,0-0.3,0-0.4,0.1c0.1-1.4-0.8-2.7-1.9-3.5c0.7-0.9,0.9-2.1,0.1-3.1
		c-0.3-0.4-0.7-0.7-1.2-0.8c-1.3-0.5-1.3,0.7-1-0.9c0.7-3.5-2.1-5.3-4.9-3.6c-0.6-2.2-2.5-4.1-4.5-5.2c-0.2-0.1-0.6-0.1-0.8,0.2
		c-0.2,0.4-0.3,0.7-0.5,1.1c-0.4-0.7-1.3-1.1-2-1.1c-0.4,0-0.7,0.2-1,0.4c0.3-1.4,0-2.9-1-4.1c-1.3-1.5-3.1-1.4-4.6-0.5
		c-0.3-2.3-3.1-3.6-4.7-2c0.1-0.8,0.2-1.6,0.3-2.5c0.2-1.4,0.1-2.4-1.6-2.3c-3.3,0.3-7.8,3.5-8.3,7.1c-0.1-0.3-0.2-0.5-0.3-0.7
		c-0.5-0.9-1.4-1.5-2.4-1.7c-1.3-0.2-2.6,0.6-3.1,1.8c-1.2-1.8-3.7-2.8-5.8-1.8c-2.5,1.2-2.7,3.6-1.7,5.6c-1.9-0.4-3.7,0.8-3.8,3.1
		c-0.3-0.3-0.7-0.6-1.1-0.8c-0.1-0.1-0.3,0-0.4,0.1c-0.2-0.1-0.5,0-0.6,0.3c-0.5,1.1-0.7,2.3-1.3,3.4c-0.2,0.3-0.4,0.6-0.6,0.9
		c-0.6-2-2.5-3.2-4.5-1.6c-1.4,1.1-2.6,3.3-2.1,5.1c-0.8,0-1.5,0.4-1.9,1.2c-0.7,1.4,0.4,2.8,1.9,3c0.4,0,0.4-0.5,0.1-0.6
		c-2.1-0.7-0.4-3.3,0.9-2c0.6,0.5,1.5-0.3,0.9-0.9c-1.2-1-0.5-2.6,0.2-3.7c0.6-1,0.6-1,1.9-0.9c1.4,0.1,1.2,0.1,1.6,1.2
		c0,0.1,0.1,0.2,0.1,0.2c-0.3,0.3-0.7,0.7-1.1,1c-0.1,0-0.1,0.1-0.1,0.1c-0.3,0-0.7,0.1-1,0.3c-0.3,0.2-0.1,0.7,0.3,0.6
		c1-0.2,1.4,0.2,1.4,0.9c0,0.6,0.6,0.7,1,0.4c0.6-0.5,1.5-0.6,2.3-0.4c0.8,0.3,1,0.8,1.6,1.3c0.3,0.3,0.8,0.1,0.8-0.3
		c0.1,0,0.2,0,0.4-0.1c2.1-2,1.6-6-0.3-8.3c0.1,0,0.3-0.1,0.3-0.2c0.3-2,2.4-3.2,4.2-1.7c0.5,0.4,1.1-0.2,0.7-0.7
		c-1.7-2.1-1.7-5.6,1.7-5.7c2,0,3,1.3,3.9,2.9c0.3,0.4,0.9,0.1,0.8-0.3c0-0.2-0.1-0.3-0.1-0.5c0.5-1.2,1.6-2.2,2.9-1.5
		c0.6,0.3,1,0.9,1.1,1.6c0.1,0.6,0,1.2,0.4,1.7c0,0.3,0.3,0.5,0.6,0.3c1.4-1.5,3.6-0.4,3.1,1.6c-0.2,0.6,0.6,1,1,0.6
		c1.9-1.6,3.8-0.2,4.3,1.9c0.2,0.6,1,0.4,1.1-0.1c0.1-1-0.2-1.8-0.8-2.4c0.1-0.1,0.2-0.2,0.2-0.3c0.2-1.5,0.4-3.1,0.6-4.7
		c0.5-0.6,1.1-1,1.9-1c1.2,0.1,2.4,1.4,1.7,2.8c-0.3,0.6,0.4,1.3,1,0.8c1.4-1.3,3.5-1.8,4.4,0.4c0.6,1.5,0.2,2.8-0.6,4.1
		c-0.4,0.6,0.5,1.3,1,0.8c0.1-0.1,0.2-0.2,0.2-0.3c0.2,0.2,0.5,0.1,0.6-0.2c0.1-0.8,0.7-1.5,1.6-1.3c0.7,0.1,0.9,0.7,1.4,1.2
		c-0.9,2.1-1.7,4.2-2.2,6.4c0,0.1,0,0.3,0.1,0.4c-0.2,0.1-0.3,0.1-0.5,0.2c-1.3,0.8-1.1,2.9,0.4,3.2c0.2,0,0.5-0.3,0.3-0.5
		c-0.4-0.2-0.5-0.6-0.2-1c-0.2-1.5,0.5-1.3,1.9,0.6c0,0.4,0.5,0.6,0.8,0.3c0.9-0.8,1.7-1.6,3-1.6c1.5,0,2.6,1.5,1.4,2.8
		c-0.4,0.5,0.1,1.1,0.7,0.8c1.6-0.8,1.5-3.1,0.1-4.1c-0.1-0.1-0.2-0.1-0.3-0.2c0,0,0,0,0,0c0.9-1.2,1.1-2.5,1-3.7
		c3.1-0.1,4.3,0.8,3.5,2.9c-0.1,0.3-0.3,0.6-0.3,1c0,0.2,0,0.4,0.2,0.6c0,0,0.5,0.3,0.5,0.4c0.1,0,0.1,0,0.2,0
		c1.1-0.2,1.6,0.6,1.3,2.4c-0.3,0.3-0.2,0.8,0.1,1c1.1,0.7,1.8,1.6,2,2.9c-0.1,0-0.2,0.1-0.3,0.3c-11.6,2.2-23,2.4-34.8,1.3
		c-11.7-1.1-23.6-2.2-34.7-6.2c-0.1,0-0.2,0-0.3,0c-0.3-0.2-0.8,0.1-0.6,0.5c2.9,5.5,7.1,9.2,13.2,10.5c7.4,1.6,15.3,2.2,22.9,2.8
		c11.2,0.9,30.7,4.3,37.3-7.9C86.3,823,86,822.7,85.7,822.6z M28.4,814.3c-0.2-0.1-0.3-0.1-0.5-0.2c-0.9-0.2-1.8-0.1-2.6,0.3
		c-0.1-0.2-0.3-0.4-0.6-0.6c1.4-1,2.8-2.5,3.5-4.2c0.2,0.7,0.4,1.4,0.5,2.1C28.9,812.7,28.7,813.5,28.4,814.3z M30.5,811.4
		c0.2,1.5-0.3,2.6-0.7,3.9c-0.2-0.3-0.6-0.5-0.9-0.7c0.8-1.7,1.1-4.3-0.2-5.7c0,0,0,0,0,0c0.1-0.4,0.2-0.7,0.2-1.1
		C29.7,808.9,30.3,810,30.5,811.4z M55.5,797.2c-0.1,0.7-0.2,1.5-0.3,2.2c-0.2,1.7-0.5,3.4-0.6,5c-1-0.5-2.4-0.6-3.5-0.1
		c-0.2-1.1-1-1.9-2-2.2c0.1-3.3,4.1-4.1,6.4-5.2c0.1,0,0.1-0.1,0.1-0.1C55.5,797,55.5,797.1,55.5,797.2z M55.6,796.7
		c0-0.2-0.1-0.4-0.3-0.4c-2.8-0.1-7.1,2.7-6.8,5.8c-0.3,0-0.6,0-0.9,0.1c0,0,0,0,0-0.1c0.2-2,1.5-3.5,3-4.7c1-0.8,3-2.2,4.3-2.1
		C55.9,795.5,55.7,796.1,55.6,796.7z M69.8,815.5c-0.3-0.9-1-1.5-1.9-1.6c0,0,0,0,0,0c0.8-2.1,1.6-4.2,2.5-6.2
		c0.8,0.9,1.5,1.8,1.9,3.1c0.3,1.2,0.1,2.3,0.2,3.4C71.5,814.3,70.6,814.8,69.8,815.5z M74.1,814.1c0,0,0,0.1,0,0.1
		c-0.2-0.1-0.5-0.1-0.7-0.1c1.2-2.3-0.7-5.7-2.6-7.1c0.1-0.3,0.2-0.5,0.4-0.8C73.8,807.9,76,810.9,74.1,814.1z M48.7,829.8
		c-6.5-0.5-13-1.2-19.4-2.2c-6.8-1.1-11.3-3.7-15.3-9.1c4.6,2.6,9.9,3.4,15,4.1c6.1,0.9,12.2,1.8,18.3,2.4
		c12.3,1.2,25.2,1.6,37.2-1.5C76.2,833.5,60.3,830.7,48.7,829.8z"/>
	<path class="st0" d="M71.5,811c-0.3,0-0.6-0.1-0.9-0.3c-0.2-0.2-0.5,0.2-0.3,0.4c0.3,0.4,0.7,0.5,1.2,0.6
		C72,811.8,72,811.1,71.5,811z"/>
	<path class="st0" d="M71.2,812.8c-0.3,0.2-0.7,0.2-1,0c-0.3-0.2-0.6,0.2-0.3,0.4c0.5,0.4,1.2,0.5,1.6,0
		C71.7,813,71.5,812.7,71.2,812.8z"/>
	<path class="st0" d="M58.6,815.5c-0.9,0.2-1.5,1.1-1.5,2c-0.9-0.6-2.1-0.8-2.8,0.1c-0.7,0.9,0,2.2,1.2,2c0.3,0,0.2-0.5-0.1-0.5
		c0.1-0.4,0.2-0.9,0.2-1.3c0.3,0,0.5,0,0.8,0.2c0.4,0.2,0.8,0.5,1.2,0.8c0.4,0.3,1-0.1,0.7-0.5c-0.3-0.5-0.3-1.3,0.2-1.7
		c1-0.8,2.1,0.4,1.8,1.4c-0.1,0.5,0.6,0.7,0.8,0.2C61.5,816.9,60.2,815.2,58.6,815.5z"/>
	<path class="st0" d="M45.8,807c-1.1-0.7-2.4-0.3-3.3,0.6c-0.6-0.9-1.4-1.8-2.6-1.4c-1,0.3-1.3,1.5-0.5,2.2c0.3,0.3,0.7-0.2,0.5-0.5
		c0.3-0.3,0.5-0.7,0.8-1c0.4,0.1,0.7,0.4,0.9,0.7c0.2,0.3,0.4,0.6,0.5,0.9c0.1,0.3,0.6,0.3,0.7,0.1c0.5-0.6,1.3-1.2,2.2-0.9
		c1,0.3,1.1,1.2,0.9,2.1c-0.1,0.4,0.4,0.8,0.8,0.4C47.5,809.2,46.9,807.6,45.8,807z"/>
</g>
<g>
	<path class="st1" d="M-215.9,422.3c-0.1-2.3-1.3-4.7-3.5-5.5c-1.5-0.6-3.3-0.4-4.5,0.7c0.1-1.2,0.2-2.3,0.2-3.4
		c0-0.2-0.1-0.3-0.3-0.4c0-0.1-0.1-0.2-0.2-0.2c0-0.1-0.1-0.2-0.2-0.3c-5.1-2.4-11.3-2.4-16.9-2.6c-3.3-0.1-6.5-0.2-9.8-0.1
		c-1.3,0-3-0.3-3.8,0.8c-0.1,0-0.2-0.1-0.2,0c-0.1,0.1-0.1,0.2-0.2,0.3c0,0-0.1,0.1-0.1,0.1c-0.9,5.3-0.7,11.1,1.2,15.9
		c-5.3-1.8-12.7,1.4-11,8c0.8,3.3,4.4,5.1,7.2,6.4c4,1.8,8.4,2.8,12.7,3.7c4.4,0.9,8.8,1.1,13.3,0.4c3.6-0.6,8-1.3,10.9-3.7
		c2.1-1.8,3.4-4.8,2.1-7.5c-1.5-3.1-5.1-3.9-8.1-4.5c0,0,0,0,0,0c0.2-0.3,0.3-0.7,0.5-1C-221.6,432.5-215.6,427.8-215.9,422.3z
		 M-224,418.3c3.4-3,7.5,1,7.1,4.9c-0.4,4.7-5.2,7.4-9.3,5.2c0.2-0.5,0.4-1,0.6-1.6c2.5,1.4,6.4,1,6.8-2.4c0.3-2.7-2.6-5.5-5.4-4.7
		c0,0,0,0,0,0C-224.1,419.2-224.1,418.8-224,418.3z M-224.3,420.3C-224.2,420.3-224.2,420.3-224.3,420.3c1,0.2,1.9,0.2,2.7,0.6
		c1.1,0.6,1.8,1.7,1.9,2.9c0.1,3.3-3.6,3.4-5.9,2.5C-224.9,424.4-224.5,422.3-224.3,420.3z M-255,411.7c1.7-1.4,6.1-0.6,8.2-0.6
		c2.4,0,4.7,0.1,7.1,0.3c5,0.3,10.2,0.5,14.8,2.5c0,0,0.1,0,0.1,0c-1.5,2.6-6.3,3.2-8.9,3.5c-2.7,0.3-5.4,0.2-8-0.2
		c-0.9-0.1-1.8-0.2-2.7-0.4c-0.2-0.8-0.6-1.6-1.4-1.9c-0.7-0.4-1.6-0.2-2.1,0.4c-0.2,0.2-0.3,0.4-0.4,0.6c-0.1,0-0.2,0-0.3-0.1
		c-0.7-0.2-5.8-2.3-6.4-3.9C-255,411.9-255,411.8-255,411.7C-255,411.7-255,411.7-255,411.7z M-245.2,416.7
		c-0.8-0.2-1.6-0.3-2.4-0.6c0.1-0.3,0.3-0.6,0.7-0.6c0.6-0.1,1.4,0.5,1.6,1C-245.2,416.6-245.2,416.7-245.2,416.7z M-255,413
		c0.6,0.8,1.5,1.5,1.9,1.7c1.3,1,2.9,1.6,4.5,2.1c-0.3,1.5,0.2,3.3,0.9,4.4c-0.7,0.5-1.3,1.1-1.9,1.7c-0.1,0-0.2,0.1-0.2,0.2
		c-0.2,0.5-0.2,0.6,0.1,1.1c0.7,1.1,1.9,2.2,2.8,3.2c0.5,0.5,0.9,0.8,1.6,0.7c1.2-0.2,2.5-1.2,3.6-1.7c0.3-0.1,0.3-0.5,0.1-0.7
		c-1.4-1.7-2.7-3.5-3.9-5.3c-0.1-0.2-0.4-0.3-0.6-0.2c-0.4,0.3-0.7,0.5-1.1,0.8c-0.3-1.1-0.7-2.2-0.7-3.4c0-0.1,0-0.2,0-0.3
		c1.8,0.5,3.6,0.7,5.3,1c3.8,0.5,7.6,0.6,11.3-0.1c1.9-0.4,5.1-0.9,6.5-2.7c-0.5,4.3-1,8.7-2.4,12.7c-2.1,5.8-7,8.4-13.1,8.3
		c-5-0.1-9.4-2.2-12.1-6.2c0-0.1,0-0.2-0.2-0.3c-0.3-0.5-0.6-1-0.8-1.5C-255.5,423.3-255,418.2-255,413z M-246,421
		c1.1,1.6,2.2,3.2,3.4,4.7c-0.6,0.3-1.1,0.6-1.7,0.8c-0.8,0.3-1.3,0.5-2.1-0.1c-0.4-0.3-0.8-0.9-1.1-1.3c-0.5-0.5-1.3-1.2-1.6-1.9
		C-248,422.6-247,421.8-246,421z M-229.3,433.8c1.8,0.2,2.1,1.6,1,4.2c-0.6,0.2-1.1,0.3-1.7,0.5c-1.3,0.3-2.6,0.5-3.9,0.7
		c-2.4,0.3-4.8,0.3-7.1,0.1c-2.7-0.2-5.3-0.7-7.9-1.5c-1-0.3-2-0.6-2.9-1c-1.3-0.4-2.4-1.2-3.3-2.3c0.1-2.1,0.9-3.5,2.3-4.1
		c2.4,3.8,6.1,6.4,11.8,6.8c4.2,0.3,8.5-0.7,11.5-3.5C-229.5,433.7-229.4,433.7-229.3,433.8z M-227.3,431.2c3.2,0.6,8,1.7,7.9,6
		c-0.1,3.7-3.8,5.6-6.9,6.6c-6.2,1.9-12.4,2.3-18.7,1c-5.4-1.1-11.2-2.4-15.9-5.4c-3.3-2.2-4.9-6-2-9.3c2.2-2.5,5.9-2.6,8.9-1.8
		c0.3,0.6,0.5,1.2,0.9,1.7c-2.7,0.7-4.5,3.1-2.3,5.7c1.3,1.5,3.5,2.1,5.2,2.7c2.6,0.9,5.3,1.4,8.1,1.7c4.3,0.5,10.8,0.7,14.8-1.5
		c3.2-1.8,1-4.8-1.7-5.4c0.5-0.5,0.9-1.1,1.3-1.7c0.1-0.1,0.1-0.2,0.1-0.3C-227.5,431.1-227.4,431.2-227.3,431.2z"/>
	<path class="st1" d="M-247.2,409.1c-0.4-0.3-1.1-0.7-1.4-1.2c-0.5-1,0-0.8,0.4-1.3c0.3-0.3,0.4-0.7,0.4-1.1c0-1.2-1.4-2.6-2.2-3.4
		c-0.3-0.3-0.9,0.1-0.6,0.5c0.2,0.4,0.4,0.7,0.7,1c0.5,0.7,0.9,1,0.8,1.8c0,1-0.2,0.6-0.5,1.3c-0.1,0.2-0.1,0.3-0.1,0.5
		c-0.1,1.1,1.4,2.2,2.3,2.3C-247.1,409.6-247,409.3-247.2,409.1z"/>
	<path class="st1" d="M-241.2,398.4c-0.4-0.3-1,0.4-0.6,0.8c2.7,2.6-0.7,2.3-0.9,3.6c-0.2,1.2,2,1.6,0.6,3.1
		c-0.5,0.6-1.2,0.4-1.4,1.3c-0.2,0.7,0.4,1.3,0.9,1.7c0.2,0.2,0.5,0,0.4-0.3c-0.3-0.6,0.3-1.5,0.6-1.9c0.1-0.1,0.3-0.2,0.5-0.3
		c0.3-0.2,0.5-0.5,0.7-0.8c0.4-1.2-0.8-1.5-0.9-2.5c-0.1-0.6,1.2-1.5,1.3-2.4C-239.9,399.8-240.4,399-241.2,398.4z"/>
	<path class="st1" d="M-231.1,397.9c-0.5,1-1.2,1.3-1.1,2.6c0.1,0.7,0.3,0.7-0.2,1.4c-0.5,0.9-0.4,0.3-1.1,0.7
		c-0.4,0.2-0.7,0.1-0.9,0.5c-0.4,0.7,0.2,1.6,0.5,2.2c0.2,0.3,0.6,0.7,0.7,1.1c0.6,3.1-0.9,1.3-1.7,1.8c-0.4,0.3-0.5,0-0.7,0.4
		c-0.1,0.2-0.1,0.4,0.1,0.5c0,0,0,0,0.1,0c0.1,0.1,0.3,0,0.4-0.1c1-0.3,2.4,0,2.9-1.2c0.7-1.6-1.4-2.5-1.3-3.9c0-0.4,2-0.6,2.4-1.6
		c0.3-0.7-0.2-1.2-0.1-1.9c0-0.8,0.7-1.4,0.9-2.1C-230.1,397.7-230.9,397.3-231.1,397.9z"/>
	<path class="st1" d="M-222.9,400.9c0-0.1-0.1-0.1-0.1-0.2c-0.1-0.2-0.4-0.3-0.6-0.2c-0.4,0.1-0.6,0.2-0.8,0.5
		c-0.1,0.2,0,0.3-0.1,0.5c0,0.5-0.2,1-0.5,1.5c-0.1,0.1-0.2,0.1-0.4,0.2c-0.3,0.3-0.5,0.4-0.6,0.7c-0.2,0.8,1.1,2.6-0.3,3
		c-0.5,0.2-1.3-0.2-1.9,0c-0.4,0.1-0.7,0.3-0.9,0.6c-0.3,0.4-0.6,1.3-0.1,1.6c0.1,0.1,0.3,0.1,0.4,0c0,0,0-0.1,0.1-0.1
		c0.2-0.2-0.1-0.6-0.3-0.4c0.9-0.6,1.7-0.6,2.8-0.7c0.3,0,0.6,0,1-0.1c0.5-0.3,0.7-0.8,0.7-1.3c0.1-0.6-0.3-1.3-0.2-1.8
		c0-0.5,0.5-0.7,0.8-1c0.2-0.3,0.5-0.5,0.6-0.9c0.1-0.2,0-1.2,0.2-1.2C-223,401.5-222.8,401.2-222.9,400.9z"/>
</g>
</svg>
