<?xml version="1.0" encoding="utf-8"?>
<!-- Generator: Adobe Illustrator 19.0.0, SVG Export Plug-In . SVG Version: 6.00 Build 0)  -->
<svg version="1.1" id="Capa_1" xmlns="http://www.w3.org/2000/svg" xmlns:xlink="http://www.w3.org/1999/xlink" x="0px" y="0px"
	 viewBox="-269 392.3 56.6 56.6" style="enable-background:new -269 392.3 56.6 56.6;" xml:space="preserve">
<style type="text/css">
	.st0{fill:#F6F6F6;}
	.st1{fill:#FFFFFF;}
</style>
<g>
	<path class="st0" d="M-217.1,1207.8c-3.5-1.4-7.1-2.8-10.6-4v-0.1c0-0.3-0.4-0.3-0.5-0.1c-0.3-0.1-0.7-0.2-1-0.4
		c-0.2-0.1-0.4,0.2-0.3,0.3c-0.2-0.1-0.4,0-0.5,0.2c-1.3,3.2,1.4,7.3,4.5,8.4c3.1,1.2,6.8-0.4,8.4-3.3c0-0.1,0-0.2,0-0.2
		C-216.8,1208.7-216.6,1208-217.1,1207.8z M-223.2,1206.4L-223.2,1206.4c-0.1,0.7-0.2,1.4,0.4,1.9c0.4,0.3,1,0.3,1.3-0.2
		c0.1-0.2-0.1-0.5-0.3-0.3c-0.2,0.2-0.5,0-0.6-0.2c-0.1-0.3-0.1-0.6-0.1-0.9c0.9,0.4,1.7,0.7,2.6,1c-1.7,4.3-6.6,0.1-7.6-3.1
		C-226.1,1205.1-224.7,1205.8-223.2,1206.4z M-225.1,1211.1c-2.6-0.9-4.8-4.3-4.3-7.1c0-0.1,0-0.2,0-0.3c0.4,0.2,0.7,0.3,1.1,0.5
		c0,2.5,2,4.8,4.3,5.8c1.6,0.7,5.1,0.2,4.8-2c0.4,0.2,0.9,0.4,1.3,0.5C-219.9,1210.5-222.2,1212.2-225.1,1211.1z"/>
	<path class="st0" d="M-224.2,1206.7c-0.2,0-0.5-0.2-0.5-0.4c-0.1-0.4-0.6-0.3-0.6,0.1c0,0.7,0.7,1.2,1.4,0.8
		C-223.7,1207.1-223.9,1206.6-224.2,1206.7z"/>
	<path class="st0" d="M-241.7,1204.3c-0.2-0.1-0.4,0.1-0.4,0.3c0.1,0.3,0.2,0.4,0.2,0.8c0,0.3,0.4,0.3,0.4,0.1
		C-241.3,1205-241.3,1204.5-241.7,1204.3z"/>
	<path class="st0" d="M-216.3,1192.3c-0.1,0.2-0.3,0.5-0.6,0.4c-0.3-0.1-0.3-0.4-0.2-0.6c0.1-0.2-0.3-0.3-0.4-0.2
		c-0.3,0.5-0.1,1.1,0.4,1.4c0.6,0.2,1.3-0.2,1.3-0.8C-215.7,1192.1-216.2,1192-216.3,1192.3z"/>
	<path class="st0" d="M-216.8,1194c-0.6,0.3-0.8,1-0.4,1.5c0.1,0.2,0.4,0,0.3-0.2c-0.1-0.3,0-0.8,0.5-0.8c0.3,0,0.4,0.3,0.6,0.4
		c0.2,0.2,0.4,0,0.4-0.2C-215.4,1194.1-216.3,1193.7-216.8,1194z"/>
	<path class="st0" d="M-183.3,1214.9c-0.1-0.4-0.4-0.7-0.8-0.6c-0.1,0-0.3,0-0.4,0.1c0.1-1.4-0.8-2.7-1.9-3.5
		c0.7-0.9,0.9-2.1,0.1-3.1c-0.3-0.4-0.7-0.7-1.2-0.8c-1.3-0.5-1.3,0.7-1-0.9c0.7-3.5-2.1-5.3-4.9-3.6c-0.6-2.2-2.5-4.1-4.5-5.2
		c-0.2-0.1-0.6-0.1-0.8,0.2c-0.2,0.4-0.3,0.7-0.5,1.1c-0.4-0.7-1.3-1.1-2-1.1c-0.4,0-0.7,0.2-1,0.4c0.3-1.4,0-2.9-1-4.1
		c-1.3-1.5-3.1-1.4-4.6-0.5c-0.3-2.3-3.1-3.6-4.7-2c0.1-0.8,0.2-1.6,0.3-2.5c0.2-1.4,0.1-2.4-1.6-2.3c-3.3,0.3-7.8,3.5-8.3,7.1
		c-0.1-0.3-0.2-0.5-0.3-0.7c-0.5-0.9-1.4-1.5-2.4-1.7c-1.3-0.2-2.6,0.6-3.1,1.8c-1.2-1.8-3.7-2.8-5.8-1.8c-2.5,1.2-2.7,3.6-1.7,5.6
		c-1.9-0.4-3.7,0.8-3.8,3.1c-0.3-0.3-0.7-0.6-1.1-0.8c-0.1-0.1-0.3,0-0.4,0.1c-0.2-0.1-0.5,0-0.6,0.3c-0.5,1.1-0.7,2.3-1.3,3.4
		c-0.2,0.3-0.4,0.6-0.6,0.9c-0.6-2-2.5-3.2-4.5-1.6c-1.4,1.1-2.6,3.3-2.1,5.1c-0.8,0-1.5,0.4-1.9,1.2c-0.7,1.4,0.4,2.8,1.9,3
		c0.4,0,0.4-0.5,0.1-0.6c-2.1-0.7-0.4-3.3,0.9-2c0.6,0.5,1.5-0.3,0.9-0.9c-1.2-1-0.5-2.6,0.2-3.7c0.6-1,0.6-1,1.9-0.9
		c1.4,0.1,1.2,0.1,1.6,1.2c0,0.1,0.1,0.2,0.1,0.2c-0.3,0.3-0.7,0.7-1.1,1c-0.1,0-0.1,0.1-0.1,0.1c-0.3,0-0.7,0.1-1,0.3
		c-0.3,0.2-0.1,0.7,0.3,0.6c1-0.2,1.4,0.2,1.4,0.9c0,0.6,0.6,0.7,1,0.4c0.6-0.5,1.5-0.6,2.3-0.4c0.8,0.3,1,0.8,1.6,1.3
		c0.3,0.3,0.8,0.1,0.8-0.3c0.1,0,0.2,0,0.4-0.1c2.1-2,1.6-6-0.3-8.3c0.1,0,0.3-0.1,0.3-0.2c0.3-2,2.4-3.2,4.2-1.7
		c0.5,0.4,1.1-0.2,0.7-0.7c-1.7-2.1-1.7-5.6,1.7-5.7c2,0,3,1.3,3.9,2.9c0.3,0.4,0.9,0.1,0.8-0.3c0-0.2-0.1-0.3-0.1-0.5
		c0.5-1.2,1.6-2.2,2.9-1.5c0.6,0.3,1,0.9,1.1,1.6c0.1,0.6,0,1.2,0.4,1.7c0,0.3,0.3,0.5,0.6,0.3c1.4-1.5,3.6-0.4,3.1,1.6
		c-0.2,0.6,0.6,1,1,0.6c1.9-1.6,3.8-0.2,4.3,1.9c0.2,0.6,1,0.4,1.1-0.1c0.1-1-0.2-1.8-0.8-2.4c0.1-0.1,0.2-0.2,0.2-0.3
		c0.2-1.5,0.4-3.1,0.6-4.7c0.5-0.6,1.1-1,1.9-1c1.2,0.1,2.4,1.4,1.7,2.8c-0.3,0.6,0.4,1.3,1,0.8c1.4-1.3,3.5-1.8,4.4,0.4
		c0.6,1.5,0.2,2.8-0.6,4.1c-0.4,0.6,0.5,1.3,1,0.8c0.1-0.1,0.2-0.2,0.2-0.3c0.2,0.2,0.5,0.1,0.6-0.2c0.1-0.8,0.7-1.5,1.6-1.3
		c0.7,0.1,0.9,0.7,1.4,1.2c-0.9,2.1-1.7,4.2-2.2,6.4c0,0.1,0,0.3,0.1,0.4c-0.2,0.1-0.3,0.1-0.5,0.2c-1.3,0.8-1.1,2.9,0.4,3.2
		c0.2,0,0.5-0.3,0.3-0.5c-0.4-0.2-0.5-0.6-0.2-1c-0.2-1.5,0.5-1.3,1.9,0.6c0,0.4,0.5,0.6,0.8,0.3c0.9-0.8,1.7-1.6,3-1.6
		c1.5,0,2.6,1.5,1.4,2.8c-0.4,0.5,0.1,1.1,0.7,0.8c1.6-0.8,1.5-3.1,0.1-4.1c-0.1-0.1-0.2-0.1-0.3-0.2l0,0c0.9-1.2,1.1-2.5,1-3.7
		c3.1-0.1,4.3,0.8,3.5,2.9c-0.1,0.3-0.3,0.6-0.3,1c0,0.2,0,0.4,0.2,0.6c0,0,0.5,0.3,0.5,0.4c0.1,0,0.1,0,0.2,0
		c1.1-0.2,1.6,0.6,1.3,2.4c-0.3,0.3-0.2,0.8,0.1,1c1.1,0.7,1.8,1.6,2,2.9c-0.1,0-0.2,0.1-0.3,0.3c-11.6,2.2-23,2.4-34.8,1.3
		c-11.7-1.1-23.6-2.2-34.7-6.2c-0.1,0-0.2,0-0.3,0c-0.3-0.2-0.8,0.1-0.6,0.5c2.9,5.5,7.1,9.2,13.2,10.5c7.4,1.6,15.3,2.2,22.9,2.8
		c11.2,0.9,30.7,4.3,37.3-7.9C-182.7,1215.3-183,1215-183.3,1214.9z M-240.6,1206.6c-0.2-0.1-0.3-0.1-0.5-0.2
		c-0.9-0.2-1.8-0.1-2.6,0.3c-0.1-0.2-0.3-0.4-0.6-0.6c1.4-1,2.8-2.5,3.5-4.2c0.2,0.7,0.4,1.4,0.5,2.1
		C-240.1,1205-240.3,1205.8-240.6,1206.6z M-238.5,1203.7c0.2,1.5-0.3,2.6-0.7,3.9c-0.2-0.3-0.6-0.5-0.9-0.7
		c0.8-1.7,1.1-4.3-0.2-5.7l0,0c0.1-0.4,0.2-0.7,0.2-1.1C-239.3,1201.2-238.7,1202.3-238.5,1203.7z M-213.5,1189.5
		c-0.1,0.7-0.2,1.5-0.3,2.2c-0.2,1.7-0.5,3.4-0.6,5c-1-0.5-2.4-0.6-3.5-0.1c-0.2-1.1-1-1.9-2-2.2c0.1-3.3,4.1-4.1,6.4-5.2
		c0.1,0,0.1-0.1,0.1-0.1C-213.5,1189.3-213.5,1189.4-213.5,1189.5z M-213.4,1189c0-0.2-0.1-0.4-0.3-0.4c-2.8-0.1-7.1,2.7-6.8,5.8
		c-0.3,0-0.6,0-0.9,0.1c0,0,0,0,0-0.1c0.2-2,1.5-3.5,3-4.7c1-0.8,3-2.2,4.3-2.1C-213.1,1187.8-213.3,1188.4-213.4,1189z
		 M-199.2,1207.8c-0.3-0.9-1-1.5-1.9-1.6l0,0c0.8-2.1,1.6-4.2,2.5-6.2c0.8,0.9,1.5,1.8,1.9,3.1c0.3,1.2,0.1,2.3,0.2,3.4
		C-197.5,1206.6-198.4,1207.1-199.2,1207.8z M-194.9,1206.4L-194.9,1206.4c-0.2,0-0.5,0-0.7,0c1.2-2.3-0.7-5.7-2.6-7.1
		c0.1-0.3,0.2-0.5,0.4-0.8C-195.2,1200.2-193,1203.2-194.9,1206.4z M-220.3,1222.1c-6.5-0.5-13-1.2-19.4-2.2
		c-6.8-1.1-11.3-3.7-15.3-9.1c4.6,2.6,9.9,3.4,15,4.1c6.1,0.9,12.2,1.8,18.3,2.4c12.3,1.2,25.2,1.6,37.2-1.5
		C-192.8,1225.8-208.7,1223-220.3,1222.1z"/>
	<path class="st0" d="M-197.5,1203.3c-0.3,0-0.6-0.1-0.9-0.3c-0.2-0.2-0.5,0.2-0.3,0.4c0.3,0.4,0.7,0.5,1.2,0.6
		S-197,1203.4-197.5,1203.3z"/>
	<path class="st0" d="M-197.8,1205.1c-0.3,0.2-0.7,0.2-1,0c-0.3-0.2-0.6,0.2-0.3,0.4c0.5,0.4,1.2,0.5,1.6,0
		C-197.3,1205.3-197.5,1205-197.8,1205.1z"/>
	<path class="st0" d="M-210.4,1207.8c-0.9,0.2-1.5,1.1-1.5,2c-0.9-0.6-2.1-0.8-2.8,0.1s0,2.2,1.2,2c0.3,0,0.2-0.5-0.1-0.5
		c0.1-0.4,0.2-0.9,0.2-1.3c0.3,0,0.5,0,0.8,0.2c0.4,0.2,0.8,0.5,1.2,0.8c0.4,0.3,1-0.1,0.7-0.5c-0.3-0.5-0.3-1.3,0.2-1.7
		c1-0.8,2.1,0.4,1.8,1.4c-0.1,0.5,0.6,0.7,0.8,0.2C-207.5,1209.2-208.8,1207.5-210.4,1207.8z"/>
	<path class="st0" d="M-223.2,1199.3c-1.1-0.7-2.4-0.3-3.3,0.6c-0.6-0.9-1.4-1.8-2.6-1.4c-1,0.3-1.3,1.5-0.5,2.2
		c0.3,0.3,0.7-0.2,0.5-0.5c0.3-0.3,0.5-0.7,0.8-1c0.4,0.1,0.7,0.4,0.9,0.7c0.2,0.3,0.4,0.6,0.5,0.9c0.1,0.3,0.6,0.3,0.7,0.1
		c0.5-0.6,1.3-1.2,2.2-0.9c1,0.3,1.1,1.2,0.9,2.1c-0.1,0.4,0.4,0.8,0.8,0.4C-221.5,1201.5-222.1,1199.9-223.2,1199.3z"/>
</g>
<g>
	<path class="st0" d="M-217.1,1207.8c-3.5-1.4-7.1-2.8-10.6-4v-0.1c0-0.3-0.4-0.3-0.5-0.1c-0.3-0.1-0.7-0.2-1-0.4
		c-0.2-0.1-0.4,0.2-0.3,0.3c-0.2-0.1-0.4,0-0.5,0.2c-1.3,3.2,1.4,7.3,4.5,8.4c3.1,1.2,6.8-0.4,8.4-3.3c0-0.1,0-0.2,0-0.2
		C-216.8,1208.7-216.6,1208-217.1,1207.8z M-223.2,1206.4L-223.2,1206.4c-0.1,0.7-0.2,1.4,0.4,1.9c0.4,0.3,1,0.3,1.3-0.2
		c0.1-0.2-0.1-0.5-0.3-0.3c-0.2,0.2-0.5,0-0.6-0.2c-0.1-0.3-0.1-0.6-0.1-0.9c0.9,0.4,1.7,0.7,2.6,1c-1.7,4.3-6.6,0.1-7.6-3.1
		C-226.1,1205.1-224.7,1205.8-223.2,1206.4z M-225.1,1211.1c-2.6-0.9-4.8-4.3-4.3-7.1c0-0.1,0-0.2,0-0.3c0.4,0.2,0.7,0.3,1.1,0.5
		c0,2.5,2,4.8,4.3,5.8c1.6,0.7,5.1,0.2,4.8-2c0.4,0.2,0.9,0.4,1.3,0.5C-219.9,1210.5-222.2,1212.2-225.1,1211.1z"/>
	<path class="st0" d="M-224.2,1206.7c-0.2,0-0.5-0.2-0.5-0.4c-0.1-0.4-0.6-0.3-0.6,0.1c0,0.7,0.7,1.2,1.4,0.8
		C-223.7,1207.1-223.9,1206.6-224.2,1206.7z"/>
	<path class="st0" d="M-241.7,1204.3c-0.2-0.1-0.4,0.1-0.4,0.3c0.1,0.3,0.2,0.4,0.2,0.8c0,0.3,0.4,0.3,0.4,0.1
		C-241.3,1205-241.3,1204.5-241.7,1204.3z"/>
	<path class="st0" d="M-216.3,1192.3c-0.1,0.2-0.3,0.5-0.6,0.4c-0.3-0.1-0.3-0.4-0.2-0.6c0.1-0.2-0.3-0.3-0.4-0.2
		c-0.3,0.5-0.1,1.1,0.4,1.4c0.6,0.2,1.3-0.2,1.3-0.8C-215.7,1192.1-216.2,1192-216.3,1192.3z"/>
	<path class="st0" d="M-216.8,1194c-0.6,0.3-0.8,1-0.4,1.5c0.1,0.2,0.4,0,0.3-0.2c-0.1-0.3,0-0.8,0.5-0.8c0.3,0,0.4,0.3,0.6,0.4
		c0.2,0.2,0.4,0,0.4-0.2C-215.4,1194.1-216.3,1193.7-216.8,1194z"/>
	<path class="st0" d="M-183.3,1214.9c-0.1-0.4-0.4-0.7-0.8-0.6c-0.1,0-0.3,0-0.4,0.1c0.1-1.4-0.8-2.7-1.9-3.5
		c0.7-0.9,0.9-2.1,0.1-3.1c-0.3-0.4-0.7-0.7-1.2-0.8c-1.3-0.5-1.3,0.7-1-0.9c0.7-3.5-2.1-5.3-4.9-3.6c-0.6-2.2-2.5-4.1-4.5-5.2
		c-0.2-0.1-0.6-0.1-0.8,0.2c-0.2,0.4-0.3,0.7-0.5,1.1c-0.4-0.7-1.3-1.1-2-1.1c-0.4,0-0.7,0.2-1,0.4c0.3-1.4,0-2.9-1-4.1
		c-1.3-1.5-3.1-1.4-4.6-0.5c-0.3-2.3-3.1-3.6-4.7-2c0.1-0.8,0.2-1.6,0.3-2.5c0.2-1.4,0.1-2.4-1.6-2.3c-3.3,0.3-7.8,3.5-8.3,7.1
		c-0.1-0.3-0.2-0.5-0.3-0.7c-0.5-0.9-1.4-1.5-2.4-1.7c-1.3-0.2-2.6,0.6-3.1,1.8c-1.2-1.8-3.7-2.8-5.8-1.8c-2.5,1.2-2.7,3.6-1.7,5.6
		c-1.9-0.4-3.7,0.8-3.8,3.1c-0.3-0.3-0.7-0.6-1.1-0.8c-0.1-0.1-0.3,0-0.4,0.1c-0.2-0.1-0.5,0-0.6,0.3c-0.5,1.1-0.7,2.3-1.3,3.4
		c-0.2,0.3-0.4,0.6-0.6,0.9c-0.6-2-2.5-3.2-4.5-1.6c-1.4,1.1-2.6,3.3-2.1,5.1c-0.8,0-1.5,0.4-1.9,1.2c-0.7,1.4,0.4,2.8,1.9,3
		c0.4,0,0.4-0.5,0.1-0.6c-2.1-0.7-0.4-3.3,0.9-2c0.6,0.5,1.5-0.3,0.9-0.9c-1.2-1-0.5-2.6,0.2-3.7c0.6-1,0.6-1,1.9-0.9
		c1.4,0.1,1.2,0.1,1.6,1.2c0,0.1,0.1,0.2,0.1,0.2c-0.3,0.3-0.7,0.7-1.1,1c-0.1,0-0.1,0.1-0.1,0.1c-0.3,0-0.7,0.1-1,0.3
		c-0.3,0.2-0.1,0.7,0.3,0.6c1-0.2,1.4,0.2,1.4,0.9c0,0.6,0.6,0.7,1,0.4c0.6-0.5,1.5-0.6,2.3-0.4c0.8,0.3,1,0.8,1.6,1.3
		c0.3,0.3,0.8,0.1,0.8-0.3c0.1,0,0.2,0,0.4-0.1c2.1-2,1.6-6-0.3-8.3c0.1,0,0.3-0.1,0.3-0.2c0.3-2,2.4-3.2,4.2-1.7
		c0.5,0.4,1.1-0.2,0.7-0.7c-1.7-2.1-1.7-5.6,1.7-5.7c2,0,3,1.3,3.9,2.9c0.3,0.4,0.9,0.1,0.8-0.3c0-0.2-0.1-0.3-0.1-0.5
		c0.5-1.2,1.6-2.2,2.9-1.5c0.6,0.3,1,0.9,1.1,1.6c0.1,0.6,0,1.2,0.4,1.7c0,0.3,0.3,0.5,0.6,0.3c1.4-1.5,3.6-0.4,3.1,1.6
		c-0.2,0.6,0.6,1,1,0.6c1.9-1.6,3.8-0.2,4.3,1.9c0.2,0.6,1,0.4,1.1-0.1c0.1-1-0.2-1.8-0.8-2.4c0.1-0.1,0.2-0.2,0.2-0.3
		c0.2-1.5,0.4-3.1,0.6-4.7c0.5-0.6,1.1-1,1.9-1c1.2,0.1,2.4,1.4,1.7,2.8c-0.3,0.6,0.4,1.3,1,0.8c1.4-1.3,3.5-1.8,4.4,0.4
		c0.6,1.5,0.2,2.8-0.6,4.1c-0.4,0.6,0.5,1.3,1,0.8c0.1-0.1,0.2-0.2,0.2-0.3c0.2,0.2,0.5,0.1,0.6-0.2c0.1-0.8,0.7-1.5,1.6-1.3
		c0.7,0.1,0.9,0.7,1.4,1.2c-0.9,2.1-1.7,4.2-2.2,6.4c0,0.1,0,0.3,0.1,0.4c-0.2,0.1-0.3,0.1-0.5,0.2c-1.3,0.8-1.1,2.9,0.4,3.2
		c0.2,0,0.5-0.3,0.3-0.5c-0.4-0.2-0.5-0.6-0.2-1c-0.2-1.5,0.5-1.3,1.9,0.6c0,0.4,0.5,0.6,0.8,0.3c0.9-0.8,1.7-1.6,3-1.6
		c1.5,0,2.6,1.5,1.4,2.8c-0.4,0.5,0.1,1.1,0.7,0.8c1.6-0.8,1.5-3.1,0.1-4.1c-0.1-0.1-0.2-0.1-0.3-0.2l0,0c0.9-1.2,1.1-2.5,1-3.7
		c3.1-0.1,4.3,0.8,3.5,2.9c-0.1,0.3-0.3,0.6-0.3,1c0,0.2,0,0.4,0.2,0.6c0,0,0.5,0.3,0.5,0.4c0.1,0,0.1,0,0.2,0
		c1.1-0.2,1.6,0.6,1.3,2.4c-0.3,0.3-0.2,0.8,0.1,1c1.1,0.7,1.8,1.6,2,2.9c-0.1,0-0.2,0.1-0.3,0.3c-11.6,2.2-23,2.4-34.8,1.3
		c-11.7-1.1-23.6-2.2-34.7-6.2c-0.1,0-0.2,0-0.3,0c-0.3-0.2-0.8,0.1-0.6,0.5c2.9,5.5,7.1,9.2,13.2,10.5c7.4,1.6,15.3,2.2,22.9,2.8
		c11.2,0.9,30.7,4.3,37.3-7.9C-182.7,1215.3-183,1215-183.3,1214.9z M-240.6,1206.6c-0.2-0.1-0.3-0.1-0.5-0.2
		c-0.9-0.2-1.8-0.1-2.6,0.3c-0.1-0.2-0.3-0.4-0.6-0.6c1.4-1,2.8-2.5,3.5-4.2c0.2,0.7,0.4,1.4,0.5,2.1
		C-240.1,1205-240.3,1205.8-240.6,1206.6z M-238.5,1203.7c0.2,1.5-0.3,2.6-0.7,3.9c-0.2-0.3-0.6-0.5-0.9-0.7
		c0.8-1.7,1.1-4.3-0.2-5.7l0,0c0.1-0.4,0.2-0.7,0.2-1.1C-239.3,1201.2-238.7,1202.3-238.5,1203.7z M-213.5,1189.5
		c-0.1,0.7-0.2,1.5-0.3,2.2c-0.2,1.7-0.5,3.4-0.6,5c-1-0.5-2.4-0.6-3.5-0.1c-0.2-1.1-1-1.9-2-2.2c0.1-3.3,4.1-4.1,6.4-5.2
		c0.1,0,0.1-0.1,0.1-0.1C-213.5,1189.3-213.5,1189.4-213.5,1189.5z M-213.4,1189c0-0.2-0.1-0.4-0.3-0.4c-2.8-0.1-7.1,2.7-6.8,5.8
		c-0.3,0-0.6,0-0.9,0.1c0,0,0,0,0-0.1c0.2-2,1.5-3.5,3-4.7c1-0.8,3-2.2,4.3-2.1C-213.1,1187.8-213.3,1188.4-213.4,1189z
		 M-199.2,1207.8c-0.3-0.9-1-1.5-1.9-1.6l0,0c0.8-2.1,1.6-4.2,2.5-6.2c0.8,0.9,1.5,1.8,1.9,3.1c0.3,1.2,0.1,2.3,0.2,3.4
		C-197.5,1206.6-198.4,1207.1-199.2,1207.8z M-194.9,1206.4L-194.9,1206.4c-0.2,0-0.5,0-0.7,0c1.2-2.3-0.7-5.7-2.6-7.1
		c0.1-0.3,0.2-0.5,0.4-0.8C-195.2,1200.2-193,1203.2-194.9,1206.4z M-220.3,1222.1c-6.5-0.5-13-1.2-19.4-2.2
		c-6.8-1.1-11.3-3.7-15.3-9.1c4.6,2.6,9.9,3.4,15,4.1c6.1,0.9,12.2,1.8,18.3,2.4c12.3,1.2,25.2,1.6,37.2-1.5
		C-192.8,1225.8-208.7,1223-220.3,1222.1z"/>
	<path class="st0" d="M-197.5,1203.3c-0.3,0-0.6-0.1-0.9-0.3c-0.2-0.2-0.5,0.2-0.3,0.4c0.3,0.4,0.7,0.5,1.2,0.6
		S-197,1203.4-197.5,1203.3z"/>
	<path class="st0" d="M-197.8,1205.1c-0.3,0.2-0.7,0.2-1,0c-0.3-0.2-0.6,0.2-0.3,0.4c0.5,0.4,1.2,0.5,1.6,0
		C-197.3,1205.3-197.5,1205-197.8,1205.1z"/>
	<path class="st0" d="M-210.4,1207.8c-0.9,0.2-1.5,1.1-1.5,2c-0.9-0.6-2.1-0.8-2.8,0.1s0,2.2,1.2,2c0.3,0,0.2-0.5-0.1-0.5
		c0.1-0.4,0.2-0.9,0.2-1.3c0.3,0,0.5,0,0.8,0.2c0.4,0.2,0.8,0.5,1.2,0.8c0.4,0.3,1-0.1,0.7-0.5c-0.3-0.5-0.3-1.3,0.2-1.7
		c1-0.8,2.1,0.4,1.8,1.4c-0.1,0.5,0.6,0.7,0.8,0.2C-207.5,1209.2-208.8,1207.5-210.4,1207.8z"/>
	<path class="st0" d="M-223.2,1199.3c-1.1-0.7-2.4-0.3-3.3,0.6c-0.6-0.9-1.4-1.8-2.6-1.4c-1,0.3-1.3,1.5-0.5,2.2
		c0.3,0.3,0.7-0.2,0.5-0.5c0.3-0.3,0.5-0.7,0.8-1c0.4,0.1,0.7,0.4,0.9,0.7c0.2,0.3,0.4,0.6,0.5,0.9c0.1,0.3,0.6,0.3,0.7,0.1
		c0.5-0.6,1.3-1.2,2.2-0.9c1,0.3,1.1,1.2,0.9,2.1c-0.1,0.4,0.4,0.8,0.8,0.4C-221.5,1201.5-222.1,1199.9-223.2,1199.3z"/>
</g>
<g>
	<path class="st1" d="M-484.9,814.6c-0.1-2.3-1.3-4.7-3.5-5.5c-1.5-0.6-3.3-0.4-4.5,0.7c0.1-1.2,0.2-2.3,0.2-3.4
		c0-0.2-0.1-0.3-0.3-0.4c0-0.1-0.1-0.2-0.2-0.2c0-0.1-0.1-0.2-0.2-0.3c-5.1-2.4-11.3-2.4-16.9-2.6c-3.3-0.1-6.5-0.2-9.8-0.1
		c-1.3,0-3-0.3-3.8,0.8c-0.1,0-0.2-0.1-0.2,0c-0.1,0.1-0.1,0.2-0.2,0.3l-0.1,0.1c-0.9,5.3-0.7,11.1,1.2,15.9c-5.3-1.8-12.7,1.4-11,8
		c0.8,3.3,4.4,5.1,7.2,6.4c4,1.8,8.4,2.8,12.7,3.7c4.4,0.9,8.8,1.1,13.3,0.4c3.6-0.6,8-1.3,10.9-3.7c2.1-1.8,3.4-4.8,2.1-7.5
		c-1.5-3.1-5.1-3.9-8.1-4.5l0,0c0.2-0.3,0.3-0.7,0.5-1C-490.6,824.8-484.6,820.1-484.9,814.6z M-493,810.6c3.4-3,7.5,1,7.1,4.9
		c-0.4,4.7-5.2,7.4-9.3,5.2c0.2-0.5,0.4-1,0.6-1.6c2.5,1.4,6.4,1,6.8-2.4c0.3-2.7-2.6-5.5-5.4-4.7l0,0
		C-493.1,811.5-493.1,811.1-493,810.6z M-493.3,812.6C-493.2,812.6-493.2,812.6-493.3,812.6c1,0.2,1.9,0.2,2.7,0.6
		c1.1,0.6,1.8,1.7,1.9,2.9c0.1,3.3-3.6,3.4-5.9,2.5C-493.9,816.7-493.5,814.6-493.3,812.6z M-524,804c1.7-1.4,6.1-0.6,8.2-0.6
		c2.4,0,4.7,0.1,7.1,0.3c5,0.3,10.2,0.5,14.8,2.5h0.1c-1.5,2.6-6.3,3.2-8.9,3.5c-2.7,0.3-5.4,0.2-8-0.2c-0.9-0.1-1.8-0.2-2.7-0.4
		c-0.2-0.8-0.6-1.6-1.4-1.9c-0.7-0.4-1.6-0.2-2.1,0.4c-0.2,0.2-0.3,0.4-0.4,0.6c-0.1,0-0.2,0-0.3-0.1c-0.7-0.2-5.8-2.3-6.4-3.9
		C-524,804.2-524,804.1-524,804L-524,804z M-514.2,809c-0.8-0.2-1.6-0.3-2.4-0.6c0.1-0.3,0.3-0.6,0.7-0.6c0.6-0.1,1.4,0.5,1.6,1
		C-514.2,808.9-514.2,809-514.2,809z M-524,805.3c0.6,0.8,1.5,1.5,1.9,1.7c1.3,1,2.9,1.6,4.5,2.1c-0.3,1.5,0.2,3.3,0.9,4.4
		c-0.7,0.5-1.3,1.1-1.9,1.7c-0.1,0-0.2,0.1-0.2,0.2c-0.2,0.5-0.2,0.6,0.1,1.1c0.7,1.1,1.9,2.2,2.8,3.2c0.5,0.5,0.9,0.8,1.6,0.7
		c1.2-0.2,2.5-1.2,3.6-1.7c0.3-0.1,0.3-0.5,0.1-0.7c-1.4-1.7-2.7-3.5-3.9-5.3c-0.1-0.2-0.4-0.3-0.6-0.2c-0.4,0.3-0.7,0.5-1.1,0.8
		c-0.3-1.1-0.7-2.2-0.7-3.4c0-0.1,0-0.2,0-0.3c1.8,0.5,3.6,0.7,5.3,1c3.8,0.5,7.6,0.6,11.3-0.1c1.9-0.4,5.1-0.9,6.5-2.7
		c-0.5,4.3-1,8.7-2.4,12.7c-2.1,5.8-7,8.4-13.1,8.3c-5-0.1-9.4-2.2-12.1-6.2c0-0.1,0-0.2-0.2-0.3c-0.3-0.5-0.6-1-0.8-1.5
		C-524.5,815.6-524,810.5-524,805.3z M-515,813.3c1.1,1.6,2.2,3.2,3.4,4.7c-0.6,0.3-1.1,0.6-1.7,0.8c-0.8,0.3-1.3,0.5-2.1-0.1
		c-0.4-0.3-0.8-0.9-1.1-1.3c-0.5-0.5-1.3-1.2-1.6-1.9C-517,814.9-516,814.1-515,813.3z M-498.3,826.1c1.8,0.2,2.1,1.6,1,4.2
		c-0.6,0.2-1.1,0.3-1.7,0.5c-1.3,0.3-2.6,0.5-3.9,0.7c-2.4,0.3-4.8,0.3-7.1,0.1c-2.7-0.2-5.3-0.7-7.9-1.5c-1-0.3-2-0.6-2.9-1
		c-1.3-0.4-2.4-1.2-3.3-2.3c0.1-2.1,0.9-3.5,2.3-4.1c2.4,3.8,6.1,6.4,11.8,6.8c4.2,0.3,8.5-0.7,11.5-3.5
		C-498.5,826-498.4,826-498.3,826.1z M-496.3,823.5c3.2,0.6,8,1.7,7.9,6c-0.1,3.7-3.8,5.6-6.9,6.6c-6.2,1.9-12.4,2.3-18.7,1
		c-5.4-1.1-11.2-2.4-15.9-5.4c-3.3-2.2-4.9-6-2-9.3c2.2-2.5,5.9-2.6,8.9-1.8c0.3,0.6,0.5,1.2,0.9,1.7c-2.7,0.7-4.5,3.1-2.3,5.7
		c1.3,1.5,3.5,2.1,5.2,2.7c2.6,0.9,5.3,1.4,8.1,1.7c4.3,0.5,10.8,0.7,14.8-1.5c3.2-1.8,1-4.8-1.7-5.4c0.5-0.5,0.9-1.1,1.3-1.7
		c0.1-0.1,0.1-0.2,0.1-0.3C-496.5,823.4-496.4,823.5-496.3,823.5z"/>
	<path class="st1" d="M-516.2,801.4c-0.4-0.3-1.1-0.7-1.4-1.2c-0.5-1,0-0.8,0.4-1.3c0.3-0.3,0.4-0.7,0.4-1.1c0-1.2-1.4-2.6-2.2-3.4
		c-0.3-0.3-0.9,0.1-0.6,0.5c0.2,0.4,0.4,0.7,0.7,1c0.5,0.7,0.9,1,0.8,1.8c0,1-0.2,0.6-0.5,1.3c-0.1,0.2-0.1,0.3-0.1,0.5
		c-0.1,1.1,1.4,2.2,2.3,2.3C-516.1,801.9-516,801.6-516.2,801.4z"/>
	<path class="st1" d="M-510.2,790.7c-0.4-0.3-1,0.4-0.6,0.8c2.7,2.6-0.7,2.3-0.9,3.6c-0.2,1.2,2,1.6,0.6,3.1
		c-0.5,0.6-1.2,0.4-1.4,1.3c-0.2,0.7,0.4,1.3,0.9,1.7c0.2,0.2,0.5,0,0.4-0.3c-0.3-0.6,0.3-1.5,0.6-1.9c0.1-0.1,0.3-0.2,0.5-0.3
		c0.3-0.2,0.5-0.5,0.7-0.8c0.4-1.2-0.8-1.5-0.9-2.5c-0.1-0.6,1.2-1.5,1.3-2.4C-508.9,792.1-509.4,791.3-510.2,790.7z"/>
	<path class="st1" d="M-500.1,790.2c-0.5,1-1.2,1.3-1.1,2.6c0.1,0.7,0.3,0.7-0.2,1.4c-0.5,0.9-0.4,0.3-1.1,0.7
		c-0.4,0.2-0.7,0.1-0.9,0.5c-0.4,0.7,0.2,1.6,0.5,2.2c0.2,0.3,0.6,0.7,0.7,1.1c0.6,3.1-0.9,1.3-1.7,1.8c-0.4,0.3-0.5,0-0.7,0.4
		c-0.1,0.2-0.1,0.4,0.1,0.5c0,0,0,0,0.1,0c0.1,0.1,0.3,0,0.4-0.1c1-0.3,2.4,0,2.9-1.2c0.7-1.6-1.4-2.5-1.3-3.9c0-0.4,2-0.6,2.4-1.6
		c0.3-0.7-0.2-1.2-0.1-1.9c0-0.8,0.7-1.4,0.9-2.1C-499.1,790-499.9,789.6-500.1,790.2z"/>
	<path class="st1" d="M-491.9,793.2c0-0.1-0.1-0.1-0.1-0.2c-0.1-0.2-0.4-0.3-0.6-0.2c-0.4,0.1-0.6,0.2-0.8,0.5
		c-0.1,0.2,0,0.3-0.1,0.5c0,0.5-0.2,1-0.5,1.5c-0.1,0.1-0.2,0.1-0.4,0.2c-0.3,0.3-0.5,0.4-0.6,0.7c-0.2,0.8,1.1,2.6-0.3,3
		c-0.5,0.2-1.3-0.2-1.9,0c-0.4,0.1-0.7,0.3-0.9,0.6c-0.3,0.4-0.6,1.3-0.1,1.6c0.1,0.1,0.3,0.1,0.4,0c0,0,0-0.1,0.1-0.1
		c0.2-0.2-0.1-0.6-0.3-0.4c0.9-0.6,1.7-0.6,2.8-0.7c0.3,0,0.6,0,1-0.1c0.5-0.3,0.7-0.8,0.7-1.3c0.1-0.6-0.3-1.3-0.2-1.8
		c0-0.5,0.5-0.7,0.8-1c0.2-0.3,0.5-0.5,0.6-0.9c0.1-0.2,0-1.2,0.2-1.2C-492,793.8-491.8,793.5-491.9,793.2z"/>
</g>
<g>
	<path class="st1" d="M-253.4,410.1c-1.4-0.5-3.5,0.1-4.1,1.5c0,0-0.1,0-0.1,0.1c-2,3.7,4.9,6.4,6.3,2.5
		C-250.7,412.5-251.8,410.7-253.4,410.1z M-252.2,414.3c-1.1,1.7-3.2,1.2-4.3,0c0.5,0.4,1.2,0.7,1.9,0.7c1.5,0.1,3.1-1.3,2.2-2.9
		c-0.1-0.2-0.4-0.1-0.3,0.1c0.8,3-4.6,2.7-4.4,0.1c0.7-1.5,2.1-2.4,3.8-1.6C-252.2,411.4-251.4,413.1-252.2,414.3z"/>
	<path class="st1" d="M-255.2,412.7c-0.4,0.3-0.9,0-0.8-0.5c0-0.1-0.2-0.2-0.2-0.1c-0.3,0.7,0.6,1.3,1.1,0.8
		C-254.9,412.8-255,412.6-255.2,412.7z"/>
	<path class="st1" d="M-253.9,411.2c-0.3-0.3-0.9-0.5-1.4-0.2c-0.2,0.1-0.1,0.3,0.1,0.3c0.4-0.1,0.7-0.1,1.1,0.1
		C-254,411.4-253.8,411.3-253.9,411.2z"/>
	<path class="st1" d="M-253.8,411.9c0,0.1-0.1,0.2-0.1,0.3c0,0,0,0,0,0C-253.8,412.1-253.8,412-253.8,411.9
		C-253.7,411.9-253.7,411.9-253.8,411.9z"/>
	<path class="st1" d="M-253.6,413.1c-0.1,0.1-0.3,0.2-0.4,0.1c-0.1-0.1,0-0.4,0.1-0.4c0.2-0.1,0.1-0.5-0.2-0.4
		c-0.5,0.2-0.7,0.8-0.3,1.2c0.4,0.4,1.1,0.2,1.2-0.3C-253.1,413-253.4,412.9-253.6,413.1z"/>
	<path class="st1" d="M-237.4,426.3c-0.2,0-0.5,0.2-0.4,0.4c0.1,0.2,0.3,0.2,0.3,0c0,0,0-0.1,0-0.1c0.1,0,0.2,0,0.2,0
		c-0.1,0.2-0.3,0.4-0.5,0.5c-0.1,0.1-0.3,0.1-0.4,0c-0.1-0.1-0.2-0.2-0.1-0.3c0.1-0.1-0.1-0.3-0.2-0.2c-0.3,0.3-0.1,0.8,0.3,0.9
		c0.5,0.2,1-0.3,1.2-0.7c0,0,0.1,0,0.1,0.1c0.2,0.1,0.3,0.3,0.4,0.6c0,0.2,0.2,0.1,0.3,0C-236.3,426.6-236.9,426.2-237.4,426.3z"/>
	<path class="st1" d="M-236.3,428.5c-0.1,0.2-0.3,0.3-0.5,0.3c-0.3,0,0-0.3,0.2-0.3c0.1,0.1,0.3-0.1,0.1-0.2
		c-0.4-0.3-1.1,0.3-0.8,0.7c0.2,0.2,0.5,0.3,0.8,0.2c0.3-0.1,0.5-0.3,0.6-0.6C-235.9,428.4-236.2,428.3-236.3,428.5z"/>
	<path class="st1" d="M-239.9,434.6C-239.9,434.6-239.9,434.6-239.9,434.6c-0.1-0.6-0.3-1.1-0.7-1.6c-0.9-1.4-3.2-2.4-4.5-0.9
		c-0.1,0.1-0.1,0.2,0,0.3c-1.1,0.9-1.6,2.4-1.3,3.8c0.1,2.2,1.2,4.3,3.8,4C-239.9,439.9-238.4,436.9-239.9,434.6z M-244.7,432.5
		c1.4-0.7,2.9-0.4,3.7,1.1c0.9,1.5,0.5,3.8-1.3,4.4c-1.5,0.5-2.9-0.5-3.3-1.9C-245.9,434.8-245.5,433.4-244.7,432.5z M-243.1,439.7
		c-1.5,0-2.2-0.9-2.5-2.1c1,1.2,2.7,1.7,4.2,0.8c0.9-0.5,1.4-1.4,1.6-2.4C-239.7,437.9-241,439.8-243.1,439.7z"/>
	<path class="st1" d="M-243.1,436.1c0-0.1-0.3-0.1-0.3,0c0,0.4-0.3,0.9-0.8,0.8c-0.4-0.1-0.6-0.5-0.5-0.9c0-0.1-0.2-0.2-0.2-0.1
		c-0.2,0.5,0.2,1.2,0.7,1.3C-243.5,437.3-242.9,436.7-243.1,436.1z"/>
	<path class="st1" d="M-243.9,434.6c-0.4,0-0.6,0.4-0.4,0.7c0.1,0.1,0.3,0,0.2-0.1c-0.1-0.1,0.1-0.2,0.2-0.3c0.1,0,0.2,0,0.3,0.1
		c0.1,0.1,0.2,0.3,0.2,0.4c0,0.1,0.3,0.1,0.2,0C-243.2,435.1-243.5,434.6-243.9,434.6z"/>
	<path class="st1" d="M-241.6,435.4c0-0.2-0.3-0.1-0.3,0c0,0.4-0.2,0.7-0.6,0.8c0-0.1,0-0.1,0-0.2c0.1-0.1-0.1-0.3-0.2-0.2
		c-0.2,0.2-0.2,0.5-0.1,0.8c0,0.1,0.1,0.1,0.2,0.1C-241.9,436.5-241.5,436-241.6,435.4z"/>
	<path class="st1" d="M-243.1,433.4c-0.1,0.2-0.2,0.4-0.5,0.4c-0.3-0.1-0.3-0.4-0.2-0.6c0.1-0.1-0.1-0.3-0.2-0.2
		c-0.3,0.4-0.2,0.9,0.2,1.1c0.4,0.2,1.1-0.1,1.1-0.6C-242.8,433.3-243,433.1-243.1,433.4z"/>
	<path class="st1" d="M-248.8,423.5c-0.1-0.2-0.2-0.3-0.3-0.5c-0.6-0.7-1.5-1.1-2.5-1.3c-0.9-0.1-1.1,0.1-1.4,0.5
		c-0.1,0-0.1,0-0.2,0.1c-1.7,0-2.2,2.3-1.7,3.7c0.1,0.2,0.1,0.3,0.2,0.4c0.3,2,2.2,3.5,4.3,2.9
		C-247.8,428.6-246.9,425.4-248.8,423.5z M-253.8,423.4c0.1-0.2,0.3-0.3,0.4-0.4c0.3-0.1,0.3-0.2,0.6-0.3c0.1,0,0.1-0.1,0.2-0.1
		c0.1-0.1,0.3-0.1,0.4-0.1c0,0,0,0,0,0c0.3-0.1,0.7,0,1.1,0.1c1.5,0.5,2.5,2.1,1.6,3.6c-0.8,1.4-2.6,1.6-3.9,0.7
		c-0.5-0.4-1-1.2-1.1-2.1C-254.3,424.2-254.2,423.8-253.8,423.4z M-250.4,428.8c-1.6,0.5-3.1-0.4-3.7-1.8c1,1.1,2.7,1.4,4.1,0.6
		c1-0.6,1.6-1.6,1.7-2.7C-248,426.6-248.6,428.3-250.4,428.8z"/>
	<path class="st1" d="M-250.3,425c-0.1-0.2-0.4-0.1-0.4,0.1c0,0.3-0.1,0.6-0.4,0.7c-0.4,0.1-0.6-0.4-0.5-0.7c0-0.2-0.2-0.2-0.3-0.1
		c-0.2,0.5,0.2,1.2,0.8,1.2C-250.5,426.3-250.1,425.6-250.3,425z"/>
	<path class="st1" d="M-251.4,423.2c-0.3,0-0.5,0.4-0.4,0.6c-0.1-0.1-0.2-0.1-0.3,0.1c-0.1,0.3-0.4,0.4-0.7,0.5
		c-0.3,0-0.9-0.2-0.4-0.5c0.1-0.1,0-0.3-0.1-0.2c-0.3,0.1-0.6,0.4-0.4,0.7c0.1,0.2,0.4,0.4,0.7,0.5c0.6,0.1,1.3-0.1,1.4-0.8
		c0,0,0-0.1,0-0.1c0.1,0.1,0.2,0,0.1-0.1c-0.1-0.1,0-0.3,0.1-0.3c0.1-0.1,0.3,0.1,0.4,0.2c0.1,0.2,0.2,0.5,0.2,0.7
		c0,0.1,0.3,0.1,0.3,0C-250.6,423.9-250.8,423.2-251.4,423.2z"/>
	<path class="st1" d="M-238.1,410.9c0,0-0.1,0-0.1,0c-0.1-0.3-0.2-0.5-0.4-0.8c-0.8-1.1-2.8-1.6-3.7-0.5c0,0-0.1,0-0.1,0
		c-1.2,0.6-1.8,2.1-1.3,3.4c-0.3,1.8,2.6,3,4,2.6C-237.8,415-237.2,412.6-238.1,410.9z M-242.6,410.1c0,0.1,0.2,0.2,0.3,0.1
		c0.6-0.4,1.1-0.7,1.9-0.6c0.8,0.1,1.4,0.7,1.6,1.5c0.4,1.2-0.2,2.6-1.3,3c-1.1,0.4-2.4,0-3-1C-243.6,412-243.3,410.8-242.6,410.1z
		 M-239.4,414.9c-1,0.6-2.7,0.1-3.6-0.8c1,0.8,2.5,1,3.6,0.3c0.8-0.5,1.3-1.4,1.3-2.4C-238,413.2-238.3,414.3-239.4,414.9z"/>
	<path class="st1" d="M-241.4,411.4c-0.1-0.1-0.2,0-0.2,0.1c0,0.1,0,0.4-0.2,0.4c-0.2,0-0.3-0.2-0.3-0.4c0.1-0.2-0.2-0.3-0.2-0.1
		c-0.2,0.3,0,0.8,0.4,0.8C-241.5,412.2-241.2,411.7-241.4,411.4z"/>
	<path class="st1" d="M-241.6,410.7c-0.1,0.1,0.1,0.3,0.2,0.2c0.3-0.3,0.7,0,0.7,0.4c0,0.2,0.2,0.2,0.2,0.1
		C-240.2,410.7-241.1,410.2-241.6,410.7z"/>
	<path class="st1" d="M-240.8,413.1c-0.1,0.2-0.3,0.3-0.4,0.3c0-0.3,0.1-0.7,0.5-0.8c0.2-0.1,0.1-0.3-0.1-0.2
		c-0.5,0.1-1,0.7-0.8,1.3c0.1,0.2,0.5,0.2,0.7,0.2c0.3-0.1,0.5-0.3,0.5-0.6C-240.4,413-240.7,413-240.8,413.1z"/>
	<path class="st1" d="M-239.5,411.9c-0.1,0.2-0.4,0.3-0.5,0.1c-0.1-0.1-0.2,0-0.2,0.1c0.1,0.5,1.1,0.4,0.9-0.2
		C-239.3,411.7-239.5,411.7-239.5,411.9z"/>
	<path class="st1" d="M-240.8,402.8c-0.1-1-0.8-2-1.8-2.1c-1.1-0.7-2.6-0.5-3.4,0.4c-1,0.7-1.3,2.1-0.6,3.1c0.4,2,3,3,4.7,1.6
		C-241,405.1-240.6,403.9-240.8,402.8z M-246,401.7c0.1,0,0.1,0,0.2,0c0.9-0.8,2.2-1.3,3.2-0.4c1.1,0.9,1.1,2.6-0.1,3.4
		c-0.9,0.6-2.6,0.3-3.3-0.5C-246.6,403.4-246.5,402.4-246,401.7z M-242.5,405.6c-1.2,0.7-2.5,0.3-3.3-0.6c1.1,0.7,2.7,0.7,3.6-0.1
		c0.8-0.7,1-1.6,0.8-2.5c0.1,0.4,0.2,0.8,0.2,1.2C-241.3,404.4-241.8,405.2-242.5,405.6z"/>
	<path class="st1" d="M-244.3,402.5c-0.1,0.2-0.4,0.4-0.6,0.2c-0.2-0.1-0.2-0.5,0-0.7c0.1-0.1,0-0.3-0.1-0.2
		c-0.4,0.2-0.5,0.9-0.1,1.1c0.4,0.3,1,0,1.1-0.5C-244,402.3-244.3,402.3-244.3,402.5z"/>
	<path class="st1" d="M-244,401.6c-0.2,0-0.1,0.3,0.1,0.2c0.4-0.1,0.7,0.4,0.6,0.8c0,0.1,0.2,0.2,0.2,0.1
		C-242.8,402.1-243.4,401.5-244,401.6z"/>
	<path class="st1" d="M-244.5,403.8c0,0.1,0.1,0.2,0.2,0.1c0.1-0.2,0.3-0.3,0.6-0.3c0.2,0,0.3,0.2,0.4,0.5c0.1,0.2,0.3,0.1,0.3,0
		C-243,403.1-244.4,403-244.5,403.8z"/>
	<path class="st1" d="M-214.1,420.3c0,0,0-0.1,0-0.1c0.4-9.6-5.3-19.1-13.9-23.4c-9-4.5-19.9-3.3-28,2.6c-8.3,6-11.6,17.1-10.2,27
		c1.4,9.7,7,17.3,16.6,20.1c9.8,2.8,24.6,1.4,28.7-9.5c0.1-0.1,0-0.3-0.2-0.3c0.8-3-4-3.4-5.8-4.4c-1.9-1.1-3.7-2.4-5.4-3.6
		c0,0-0.1-0.1-0.1-0.1c-0.6-0.4-1.2-0.9-1.9-1.3c-2.3-1.5-4.7-3-6.8-4.9c5.3-0.2,10.5-0.5,15.8-0.7c1.2,0,2.4-0.2,3.6-0.1
		c1.1,0.1,2,0.5,3.1,0.6c1.6,0.2,3-0.3,4.3-1.2C-213.9,420.7-214,420.5-214.1,420.3z M-233.6,428.5c0.3,0.2,0.6,0.4,0.8,0.6
		c-0.7,1.4-1.8,2.5-3.5,2.1c-0.5-0.1-0.9-0.3-1.2-0.6C-235.9,431-234.2,430.1-233.6,428.5z M-238.5,425.2c1.4,1,2.8,2,4.3,2.9
		c-0.7,1.4-2.2,2.3-3.7,1.5c-0.8-0.4-1.2-1.2-1.3-2.1C-239.3,426.8-239.2,425.6-238.5,425.2z M-220.8,420.7
		c-2.1-0.3-4.4,0.1-6.5,0.2c-4.8,0.2-9.6,0.5-14.4,0.7c-0.3,0-0.5,0.4-0.2,0.6c1,1,2,1.9,3.1,2.7c-0.7,0.3-0.9,1.1-1,1.8
		c-0.1,0.9,0,1.7,0.4,2.4c0.6,1.4,1.9,2.5,3.2,2.8c1.7,0.3,3.6-0.8,4-2.4c1.7,1.2,3.4,2.4,5.1,3.4c0.5,0.3,1.5,0.6,2.6,1
		c-1.1,0.3-1.1,1.2-1.8,2.4c-1.1,1.8-2,1.8-3.6,2.6c-0.6,0.3-1,0.7-1.5,1.3c-0.4,0.5-0.7,1.3-1.3,1.7c-1.3,0.9-3,0.8-4.4,0.7
		c-0.9-0.1-1.9-0.2-2.8,0c-1.9,0.4-2.6,1.5-4.9,0.3c-0.8-0.4-1.3-1-2.2-1.3c-1-0.3-2.1,0-3-0.4c-1.3-0.5-1.3-1.4-2.2-2
		c-1.5-1-2.9-1.4-4.1-2.8c-1.3-1.5-2.3-3-2.8-4.9c-0.3-1-0.3-2.2-0.9-3.1c-0.7-1.4-1.6-2-1.9-3.7c-0.7-3.8,0.2-7.6,1.2-11.2
		c0.4,0.1,0.6-0.5,0.2-0.6c-0.2-0.1,2.3-4,2.7-4.5c0.9-1.3,1.8-1.8,3-2.6c0.5-0.3,0.8-0.6,1.2-1.1c0.3-0.3,0.4-0.7,0.6-1
		c0.8-1.2,1.2-1.3,2.6-1.7c2.4-0.8,4.4-2.9,7-3.1c1.2-0.1,2.5,0.4,3.8,0.4c2.1-0.1,3.9,0.3,5.8,1.2c1.1,0.5,2.3,1,3.3,1.6
		c1.3,0.8,1.4,1.7,2.1,2.9c0.4,0.8,1,1.4,1.5,2.1c1.1,1.4,1.2,2.6,1.6,4.2c0,0.1,0,0.1,0,0.2c-0.3-0.4-0.7-0.7-1.1-1
		c-0.3-0.4-0.7-0.7-1.2-0.9c-1.5-0.7-3.8-0.1-3.8,1.9c0,0.1,0,0.1,0.1,0.1c-0.6,0.9,0.1,2.5,1,3.2c0.1,0.1,0.2,0.1,0.2,0.1
		c0.9,0.9,2.2,1.3,3.6,0.8c1.2-0.4,1.9-1.4,1.8-2.7c0,0,0-0.1,0-0.1c1,1.5,2.6,2.6,2.8,4.8c0.1,1.4,0.1,2.7,1.4,3.5
		C-220.7,420.8-220.8,420.7-220.8,420.7z M-231.1,411.5c0.1-0.2,0.3-0.5,0.5-0.6c0.1-0.1,0-0.2-0.1-0.2c-0.1,0-0.3,0.1-0.4,0.1
		c0.8-2.7,5.5-0.7,4.5,2.1c-0.4,1.1-1.5,1.7-2.7,1.5c-0.4-0.1-0.7-0.2-1-0.4C-230.7,413.3-231.1,412.4-231.1,411.5z M-226.2,413.6
		c0.6-1,0.5-2.1,0-2.9c0.4,0.3,0.8,0.8,0.9,1.3c0.4,1.5-0.6,2.7-2.1,2.9c-0.3,0-0.5,0-0.7,0C-227.3,414.8-226.6,414.3-226.2,413.6z
		 M-220.6,420.8c0,0,0.1-0.1,0-0.1c-1.4-2-0.3-4.8-1.9-6.7c-0.5-0.6-1.3-1-1.7-1.6c-0.7-0.9-0.7-2.3-1-3.3c-0.3-0.8-0.5-1.4-1-2.1
		c-0.6-0.8-1.3-1.4-1.8-2.3c-0.3-0.6-0.2-1.7-0.6-2.2c-0.4-0.7-1.1-0.9-1.8-1.3c-2.4-1.3-5.1-2.9-8-2.9c-2.6-0.1-5.6-0.6-8.1,0.5
		c-0.7,0.3-1.3,0.8-2,1.2c-1.1,0.6-2.1,0.7-3.3,1.1c-0.7,0.3-1.1,0.5-1.6,1.1c-0.9,1.2-1.3,2-2.7,2.8c-0.7,0.4-1,0.4-1.6,1.1
		c-1.2,1.4-2.3,3.2-3.2,4.7c-0.5,0.8-0.9,1.1-0.7,2.1c0,0.1,0.1,0.2,0.2,0.2c-1.4,2.9-1.9,6.1-1.8,9.2c0,1.4,0.1,3,0.6,4.2
		c0.1,0.3,0.4,0.5,0.6,0.7c1.1,1.9,1.2,1.9,1.7,3.7c0.7,2.7,2.2,4.7,4.1,6.7c0.9,1,1.6,1,2.6,1.7c1,0.6,1.6,1.7,2.8,2.2
		c1.5,0.6,3.1,0.2,4.5,1.1c0.8,0.5,1.5,1.3,2.5,1.5c0.9,0.2,1.6-0.2,2.5-0.5c2.1-0.8,3.6-0.3,5.8-0.3c2.9,0,3.1-1.7,5-3.3
		c1-0.8,2.5-0.7,3.5-1.5c1.2-0.8,1.7-3.9,3-4c0.2,0,0.3-0.1,0.3-0.3c1.4,0.6,2.4,1.4,2,2.6c0,0.1,0,0.2,0.1,0.2
		c-5.3,8.6-15.7,10.9-25.2,9c-9.5-1.8-15.9-8-18.1-17.4c-2.1-9.3,0-20.4,7.3-26.9c6.9-6.3,17.4-8.5,26.2-5.3
		c10.2,3.7,16,13.1,16.5,23.7c0,0.1,0,0.1,0.1,0.2C-217,421.7-218.4,421.1-220.6,420.8z"/>
	<path class="st1" d="M-228.1,412.6c0-0.2-0.3-0.2-0.4,0c0,0.3-0.2,0.5-0.4,0.6c-0.1,0-0.3,0.1-0.4,0c-0.2-0.1,0-0.4,0.1-0.5
		c0.1-0.1,0-0.2-0.1-0.1c-0.2,0.2-0.5,0.5-0.4,0.8c0.1,0.2,0.4,0.3,0.6,0.3C-228.6,413.7-228,413.2-228.1,412.6z"/>
	<path class="st1" d="M-229.2,411.4c-0.2-0.5-1-0.8-1.3-0.3c-0.2,0.3,0,1,0.4,0.9c0.1,0,0.1-0.2,0-0.2c-0.2,0-0.3-0.4-0.1-0.5
		c0.2-0.2,0.6,0.1,0.7,0.3C-229.3,411.7-229.1,411.6-229.2,411.4z"/>
	<path class="st1" d="M-227.5,410.7c-0.1-0.2-0.4,0-0.4,0.2c0,0.2,0.1,0.5-0.1,0.6c-0.2,0.1-0.5-0.1-0.3-0.3c0.1-0.1,0-0.3-0.2-0.2
		c-0.5,0.3-0.2,1,0.3,1C-227.4,412-227.1,411.2-227.5,410.7z"/>
	<path class="st1" d="M-231.4,405.2c-0.6-0.1-1.1-0.3-1.6-0.7c-0.1-0.1-0.3-0.1-0.4,0c-0.5,0.5-0.9,1.1-1.1,1.8
		c-0.1,0.2,0.2,0.4,0.4,0.3c0.3,0.3,0.6,0.5,0.9,0.9c0.1,0.1,0.3,0.1,0.4-0.1c0.4-0.6,0.9-1.2,1.5-1.7
		C-231.1,405.6-231.1,405.2-231.4,405.2z M-233,406.9c-0.3-0.2-0.5-0.4-0.8-0.6c0.2-0.4,0.5-0.8,0.8-1.2c0.3,0.2,0.7,0.4,1.1,0.6
		C-232.4,406-232.8,406.4-233,406.9z"/>
	<path class="st1" d="M-237.1,402.9c-0.1-0.5-0.2-1-0.3-1.6c0-0.2-0.1-0.4-0.4-0.4c-0.3,0-0.7,0-1,0.1c-0.2,0-0.2,0.2-0.2,0.3
		c-0.1,1-0.3,3.1,1.1,3.2c0.4,0,1-0.1,1-0.6C-236.8,403.7-237,403.2-237.1,402.9z M-237.7,404c-0.8,0.1-0.8-1.6-0.9-2.4
		c0.2,0,0.4,0,0.5,0.1c0,0.3,0.1,0.7,0.2,1c0.1,0.3,0.1,0.6,0.2,0.8C-237.6,403.7-237.4,403.9-237.7,404z"/>
	<path class="st1" d="M-243.9,407.1c-0.5-0.1-0.9-0.3-1.3-0.6c-0.1-0.1-0.3-0.1-0.4,0.1c-0.5,0.8-1,1.5-1.5,2.3c0,0,0,0,0,0
		c-0.1,0-0.2,0.2-0.1,0.3c0.4,0.5,0.8,1,1.2,1.4c0.1,0.1,0.3,0.1,0.3,0c0.5-1.1,1-2.1,1.9-3C-243.7,407.3-243.7,407.1-243.9,407.1z
		 M-246,410c-0.3-0.3-0.5-0.6-0.8-0.9c0,0,0,0,0.1-0.1c0.5-0.7,0.9-1.4,1.4-2.1c0.3,0.2,0.6,0.3,0.9,0.4
		C-245.1,408.2-245.6,409.1-246,410z"/>
	<path class="st1" d="M-250.1,407.8c-0.6-1-1.1-2-1.5-3c-0.1-0.2-0.3-0.3-0.4-0.1c-0.3,0.4-1,0.9-0.9,1.5c0.1,0.3,0.4,0.7,0.5,1
		c0.3,0.5,0.6,1,0.9,1.6c0.1,0.2,0.4,0,0.3-0.2c0,0,0,0,0,0c0.4-0.1,0.7-0.2,1-0.3C-250.1,408.1-250.1,407.9-250.1,407.8z
		 M-252.2,406.6c-0.1-0.3-0.3-0.5-0.3-0.8c0-0.2,0.3-0.4,0.5-0.6c0.4,0.9,0.8,1.7,1.2,2.6c-0.2,0.1-0.4,0.1-0.7,0.2c0,0-0.1,0-0.1,0
		C-251.7,407.5-252,407.1-252.2,406.6z"/>
	<path class="st1" d="M-255,418.9c0-0.1-0.1-0.2-0.2-0.2c-0.7,0-1.4,0-2.1-0.1c-0.6,0-1.3-0.1-1.9,0c-0.8,0.2-0.6,1.1-0.5,1.7
		c0.1,0.3,0.6,0.2,0.5-0.1c0-0.3-0.2-0.8,0.1-1.1c0.2-0.1,1,0,1.3,0c0.8,0,1.5,0,2.3,0c0,0.4,0,0.7,0,1.1c-1.1-0.2-2.3-0.3-3.5-0.1
		c-0.2,0-0.2,0.3,0,0.3c1.2,0,2.4,0.1,3.6,0.3c0.1,0,0.3-0.1,0.3-0.2C-255,419.9-255,419.4-255,418.9z"/>
	<path class="st1" d="M-246.4,420.9c-0.1-0.6-0.3-1.2-0.4-1.8c-0.1-0.4-0.2-0.9-0.5-1.2c-0.4-0.4-1.3-0.6-1.6,0c0,0,0,0.1,0,0.1
		c0,0-0.1,0.1-0.1,0.1c0.1,0.6,0.2,1.1,0.3,1.7c0.1,0.4,0.1,0.8,0.4,1.1c0.4,0.5,1.2,0.4,1.7,0.2
		C-246.4,421.2-246.4,421-246.4,420.9z M-247.5,420.8c-0.5-0.1-0.6-0.4-0.7-0.8c-0.2-0.6-0.3-1.2-0.5-1.7c0,0,0.1,0,0.1,0
		c0.8-0.4,1.1,0.3,1.3,0.9c0.1,0.5,0.3,1.1,0.4,1.6C-247.2,420.8-247.3,420.8-247.5,420.8z"/>
	<path class="st1" d="M-253.2,431.3c-0.1-0.1-0.2-0.1-0.3,0c-0.3,0.2-0.6,0.4-0.8,0.7c-0.1,0-0.1,0-0.2,0c-0.1,0-0.1,0.1-0.1,0.2
		c0,0.3,0.3,0.7,0.4,1c0.3,0.5,0.5,0.9,0.8,1.3c0.4,0.5,0.9,0.9,1.6,0.7C-249.8,434.5-252.7,431.9-253.2,431.3z M-252.3,434.6
		c-0.5-0.1-0.8-0.7-1-1.1c-0.3-0.4-0.5-0.8-0.8-1.1c0,0,0,0,0.1,0c0.3-0.1,0.5-0.4,0.7-0.5c0.3,0.4,0.6,0.8,1,1.1
		c0.2,0.2,0.5,0.5,0.6,0.8C-251.6,434.2-251.8,434.8-252.3,434.6z"/>
	<path class="st1" d="M-244.4,425c-0.2,0-0.3,0.1-0.3,0.3c-0.1,1.1-0.4,2-0.8,3c-0.1,0.1-0.2,0.2,0,0.3c0.6,0.4,1.3,0.7,2,1
		c0.1,0.1,0.3-0.1,0.3-0.2c0-0.7,0.1-1.4,0.3-2.1c0.1-0.4,0.5-0.9,0.5-1.4C-242.4,425.1-243.9,425.1-244.4,425z M-243.3,426.9
		c-0.3,0.7-0.4,1.4-0.3,2.2c-0.4-0.1-0.9-0.3-1.3-0.5c0.4-0.9,0.7-1.9,0.8-2.9c0.4,0,0.8,0.1,1,0.2
		C-242.9,426.1-243.2,426.5-243.3,426.9z"/>
	<path class="st1" d="M-233.3,434.1c-0.9,0-1.8,0-2.7-0.1c-0.1,0-0.3,0-0.3,0.2c-0.2,0.5-0.3,1-0.3,1.6c0,0,0,0.1,0,0.1
		c0,0,0,0,0,0.1c0,0.2,0.3,0.3,0.4,0.2c0.7,0.4,1.5,0.7,2.3,1c0.1,0,0.3,0,0.3-0.2c0.2-0.8,0.4-1.7,0.6-2.5
		C-233,434.3-233.1,434.1-233.3,434.1z M-234.1,436.6c-0.7-0.2-1.4-0.5-2.1-0.8c0.1-0.4,0.1-0.9,0.2-1.3c0.8,0.1,1.5,0.1,2.3,0.1
		C-233.8,435.3-233.9,435.9-234.1,436.6z"/>
	<path class="st1" d="M-228.9,433.6c0-0.2-0.1-0.3-0.3-0.3c-0.5,0-1.1-0.1-1.6-0.3c-0.2,0-0.4,0.1-0.3,0.3c0.2,0.8,0.3,1.5,0.4,2.3
		c0,0,0,0,0,0c-0.3,0.1-0.2,0.6,0.1,0.6c0,0.1,0,0.2,0,0.3c0,0.2,0.3,0.1,0.3,0c0-0.1,0-0.2,0-0.3c0.3-0.1,0.6-0.1,1,0
		c0.2,0.1,0.4-0.1,0.4-0.3C-228.9,435.2-228.9,434.4-228.9,433.6z M-230.3,435.6c-0.1-0.6-0.2-1.3-0.2-1.9c0.4,0.1,0.7,0.1,1.1,0.2
		c0,0.6,0,1.2,0,1.7C-229.7,435.5-230,435.5-230.3,435.6z"/>
</g>
</svg>
