<?xml version="1.0" encoding="utf-8"?>
<!-- Generator: Adobe Illustrator 19.0.0, SVG Export Plug-In . SVG Version: 6.00 Build 0)  -->
<svg version="1.1" xmlns="http://www.w3.org/2000/svg" xmlns:xlink="http://www.w3.org/1999/xlink" x="0px" y="0px"
	 viewBox="-269 392.3 56.6 56.6" style="enable-background:new -269 392.3 56.6 56.6;" xml:space="preserve">
<style type="text/css">
	.st0{fill:#FFFFFF;}
</style>
<g id="Capa_2">
	<g>
		<path class="st0" d="M-241.2,418.7c1.2-1.8,0.5-4.5-1.3-5.5c-2.1-1.3-4.3,0.4-5.2,2.3c-0.6,1.3-0.5,3.6,0.9,4.3
			C-245.2,420.6-242.1,420.2-241.2,418.7z M-242.2,418.3c-0.8,0.8-2.8,1-3.7,0.6c-1.1-0.4-1.2-2-0.8-3c0.5-1.2,1.7-2.7,3.3-2.1
			C-241.8,414.4-241,417.1-242.2,418.3z"/>
		<path class="st0" d="M-250,426.5c-1.8,0.2-2.6,1.5-2.8,3.1c0,0.1,0,0.1,0,0.2c0,0.1,0,0.2,0,0.2c0.3,1.7,1.5,3.4,3.4,3
			c1.8-0.3,3.1-2.3,2.9-4.1C-246.7,427.3-248.3,426.3-250,426.5z M-248.9,431.8c-1.5,0.9-2.7-0.6-2.8-2c0.1-1.1,0.5-1.9,1.5-2.2
			c0.9-0.3,2.2,0,2.6,1C-247.3,429.8-248,431.3-248.9,431.8z"/>
		<path class="st0" d="M-232.5,425.5c0.7-1.8,0-3.6-1.9-4.3c-2-0.7-3.7,0.5-4.5,2.2c0,0,0,0,0,0.1c0,0,0,0,0,0.1
			C-240.3,427.6-233.9,429-232.5,425.5z M-235.4,422.1c1.5,0.1,2.4,1.4,2,2.8c-0.8,2.5-5.5,1.8-4.5-1
			C-237.4,422.9-236.6,422-235.4,422.1z"/>
		<path class="st0" d="M-237,416.7c0.6-0.1,1.6,0.6,1.4,1.3c-0.2,0.7,0.9,0.9,1,0.3c0.3-1.3-1.1-2.8-2.4-2.6c-0.3,0-0.5,0.2-0.5,0.5
			C-237.6,416.4-237.3,416.7-237,416.7z"/>
		<path class="st0" d="M-242.9,425.6c0.6,0.3,1.2-0.6,0.5-0.9c-0.2-0.1-0.5-0.2-0.6-0.5c-0.1-0.3-0.1-0.5,0.1-0.7
			c0.5-0.5-0.2-1.2-0.8-0.8c-0.5,0.4-0.6,1.1-0.5,1.6C-243.9,424.9-243.5,425.3-242.9,425.6z"/>
		<path class="st0" d="M-229.5,424.1c0.6,0.3,1.2-0.6,0.5-0.9c-0.8-0.4-0.9-1.3-0.4-2c0.4-0.6-0.5-1.1-0.9-0.5
			C-231.1,421.8-230.9,423.5-229.5,424.1z"/>
		<path class="st0" d="M-253.7,434c-0.5,0.1-1.3-0.1-1.2-0.8c0.2-0.7-0.9-0.9-1-0.3c-0.4,1.5,1.2,2.5,2.5,2.1
			C-252.8,434.9-253.1,433.9-253.7,434z"/>
		<path class="st0" d="M-250.6,421.4c0.4,0.1,0.6,0.2,0.7,0.6c0,0.4-0.1,0.8-0.4,0.9c-0.6,0.2-0.4,1.2,0.3,1c0.8-0.3,1.3-1.1,1.2-2
			c-0.1-0.9-0.6-1.5-1.4-1.7C-251,420.2-251.3,421.2-250.6,421.4z"/>
		<path class="st0" d="M-242.6,428.6c-0.7,0.3-1.2,0.9-1.2,1.7c0,0.7,1.1,0.7,1.1,0c0-0.4,0.2-0.6,0.5-0.8c0.4-0.1,0.7-0.1,1,0.2
			c0.5,0.5,1.2-0.3,0.8-0.8C-241,428.4-241.7,428.3-242.6,428.6z"/>
		<path class="st0" d="M-219.1,421c-0.6-3.7-3.1-6.1-5.9-8.5c-3-2.6-5.9-4.8-9.6-6.3c-3-1.2-7.6-3.1-11-2.4c-2.1,0.5-3,2.9-2.3,4.8
			c-1.3,4.3-3.9,8.2-5.7,12.4c-2,4.8-4.2,9.6-6.4,14.3c-0.5,1.1-2.1,3.1-1.6,4.5c0,0,0,0.1,0,0.1c0.6,1.7,2.3,2.8,4.1,2.5
			c3.6-0.8,7.4-2.8,10.8-4.4c0.1,0.7-0.1,1.4,0.6,2c1.3,1.1,2.1-0.2,2.3-1.4c0.1-0.4,0-1-0.1-1.6c0,0,0.1,0,0.1,0
			c0.7-0.3,1.4-0.5,2.1-0.8c0,0.4,0,0.7,0,1c0,0.9,0,1.8,0.2,2.7c0.2,1.4,1,4,2.9,2.8c2.3-1.4,1.2-5.5,1.1-8.2
			c4.6-2.4,9.3-4.5,13.9-7C-220.6,426-218.3,424.6-219.1,421z M-239.4,405.7c2.9,0.8,5.7,1.9,8.3,3.4c3.6,2.1,8.4,5.7,10.2,9.8
			c-0.4-0.1-1-0.1-1.5,0.1c-1.1,0.4-1.8,1.3-2.1,2.3c-1.9-3.2-5.4-5.4-8.4-7.4c-4.3-2.9-8.9-5-14.1-5.7
			C-248.6,403.8-241.6,405.1-239.4,405.7z M-259.5,440.8c0.7-0.1,1.5-0.5,2.1-0.7c2.1-0.7,4.2-1.4,6.3-2.2c1.1-0.4,3.1-1.9,4.1-0.8
			C-249.4,438.1-256.7,442.3-259.5,440.8z M-243.9,435.9c0-0.4,0-0.9,0.2-1.2c0.5-1,1.5-0.4,1.9,0.4
			C-242.6,435.4-243.2,435.7-243.9,435.9z M-238.9,441.5c-0.7,0.2-1.4-0.8-1.5-1.2c-0.2-0.4-0.1-1.1-0.2-1.5c-0.1-1,0-2,0-3
			c-0.1-1.7-0.9-3.6-3-2.7c-1.7,0.8-1.2,2.8-1.2,4.3c0,0.7-0.2,2.4-0.9,0.8c-0.1-0.3,0-0.8,0-1.1c-0.1-0.7-0.4-1.2-1-1.4
			c-1.8-0.8-4.9,1.3-6.5,1.8c-1.6,0.6-5,2.5-6.6,1.7c-1-0.5-0.6-0.5-0.1-1.5c0.4-0.7,0.7-1.5,1.1-2.2c2.1-4.4,4.1-8.8,6-13.3
			c1.8-4.4,4.5-8.4,5.9-12.9c4.6,0.6,8.9,2.5,12.8,5.1c3.5,2.2,8.1,5,9.5,9.1c-3.4,2.2-7,4.1-10.5,6.1c-2.9,1.6-3.4,3.5-3.2,6.7
			C-238.4,436.8-237.9,441.1-238.9,441.5z M-228,428.5c-3.1,1.5-6.3,3.1-9.3,4.7c0-0.1,0-0.1,0-0.2c0.8-2.4,3.9-3.3,5.9-4.4
			c2.6-1.4,5.1-3,7.6-4.6c0.2-0.1,0.4-0.3,0.4-0.6c-0.3-1.3,0-2.7,1.2-3.4c1.1-0.6,1.8,0.1,2.1,1.2
			C-219.2,425.2-225.2,427.1-228,428.5z"/>
		<path class="st0" d="M-242,407.1c2.7,0.5,5,1.5,7.4,2.9c0.6,0.3,1.1-0.6,0.5-0.9c-2.4-1.4-4.9-2.4-7.6-3
			C-242.4,405.9-242.6,406.9-242,407.1z"/>
		<path class="st0" d="M-232.4,411.2c0.7,0,0.7-1.1,0-1.1C-233.1,410.1-233.1,411.2-232.4,411.2z"/>
	</g>
</g>
<g id="Capa_1">
	<g>
		<path class="st0" d="M-485.6,798.9c-7-11.4-21.2-15.5-33.3-10.3c-0.1-0.1-0.1-0.1-0.3-0.1c-12.1,1.3-19.1,12.6-18.9,24.1
			c0.3,12.2,6.8,23.1,19.1,25.9c10.4,2.4,24.2,0.5,31.8-7.6C-479.5,822.7-480,808-485.6,798.9z M-498.8,836.8
			c-12,3.7-28.1,2.3-34.7-9.9c-7.4-13.5-3.5-35.2,14-37.7c0.1,0.1,0.1,0.1,0.3,0.1c13-5.4,28.2-0.7,34.4,12.5
			c3,6.3,3.4,14.5,1.4,21.1C-485.7,830.2-491.8,834.7-498.8,836.8z"/>
		<path class="st0" d="M-518.9,801.3c-0.4-0.3-1,0.1-0.8,0.6c0,0.1,0.1,0,0.1,0c0-0.3,0.3-0.6,0.6-0.4
			C-518.8,801.6-518.8,801.4-518.9,801.3z"/>
		<path class="st0" d="M-518.2,801.8c-0.1,0-0.2,0.2-0.1,0.2c-0.1,0-0.1,0.1-0.2,0.1c0-0.1-0.2-0.1-0.2,0c0,0.3,0.3,0.6,0.6,0.4
			C-517.7,802.2-517.9,801.8-518.2,801.8z"/>
		<path class="st0" d="M-516.8,802.3c-0.3,0-0.5-0.2-0.4-0.5c0-0.1-0.1-0.1-0.1-0.1c-0.4,0.4,0.1,1.1,0.6,0.8
			C-516.6,802.4-516.6,802.2-516.8,802.3z"/>
		<path class="st0" d="M-520.7,803.4c-0.1,0.1,0.1,0.2,0.1,0.1c0.3-0.3,0.6,0,0.8,0.3c0,0.1,0.1,0,0.2,0
			C-519.5,803.2-520.4,803-520.7,803.4z"/>
		<path class="st0" d="M-519.2,804.3c-0.3,0.2-0.7,0.2-0.8-0.2c0-0.1-0.2-0.1-0.2,0c0,0.6,0.9,0.9,1.2,0.4
			C-518.9,804.3-519.1,804.2-519.2,804.3z"/>
		<path class="st0" d="M-501,804.9L-501,804.9c0.1,0.2,0.2,0.3,0.4,0.2c0.1,0,0.1-0.1,0-0.1c-0.2-0.1-0.2-0.2,0.1-0.2
			c0.1,0,0.2,0.1,0.3,0.2c0.1,0.1,0.3,0,0.2-0.1C-500.1,804.3-500.9,804.4-501,804.9z"/>
		<path class="st0" d="M-499.3,804.8c-0.1-0.1-0.3,0-0.2,0.1c0.1,0.4-0.1,0.7-0.5,0.7c-0.1,0-0.1,0.2,0,0.2
			C-499.6,805.9-499,805.3-499.3,804.8z"/>
		<path class="st0" d="M-499.4,804.5c-0.1,0-0.1,0.1,0,0.1c0.5,0.1,0.6,0.4,0.7,0.8c0,0.1,0.2,0.1,0.2,0
			C-498.2,804.9-498.9,804.4-499.4,804.5z"/>
		<path class="st0" d="M-500.8,807.3c-0.2,0.2-0.1,0.6,0.2,0.6c0.1,0,0.1-0.1,0-0.1l-0.1-0.1c0-0.2,0.1-0.2,0.3-0.1
			c0.3,0.1,0.3,0.1,0.4,0.3c0.1,0.1,0.3,0,0.2-0.1C-499.9,807.3-500.4,806.8-500.8,807.3z"/>
		<path class="st0" d="M-499,808c-0.1,0.3-0.4,0.5-0.7,0.3c-0.1-0.1-0.3,0.1-0.2,0.2c0.4,0.4,1.1,0.1,1.1-0.5
			C-498.8,807.9-499,807.9-499,808z"/>
		<path class="st0" d="M-507.5,794.2C-507.6,794.2-507.6,794.3-507.5,794.2C-507.5,794.3-507.5,794.2-507.5,794.2z"/>
		<path class="st0" d="M-507.1,795.7c-0.2-0.3-0.6-0.6-0.9-0.3c-0.2,0.2-0.1,0.5,0.1,0.6c0.1,0,0.2-0.1,0.1-0.2
			c0.2-0.2,0.4-0.2,0.5,0C-507.2,795.9-507.1,795.8-507.1,795.7z"/>
		<path class="st0" d="M-506.7,795.9c0,0.3-0.2,0.4-0.4,0.3c-0.1-0.1-0.3,0.1-0.2,0.2c0.3,0.3,0.9,0.1,0.9-0.4
			C-506.4,795.7-506.7,795.7-506.7,795.9z"/>
		<path class="st0" d="M-507.1,797.7c-0.3,0.1-0.3,0.4-0.2,0.6c0.1,0.1,0.2,0,0.1-0.1c0.2-0.3,0.3-0.3,0.4,0c0,0.1,0.1,0.2,0.1,0.3
			s0.2,0,0.2,0C-506.4,798.1-506.7,797.5-507.1,797.7z"/>
		<path class="st0" d="M-507.3,797.4c0-0.1-0.2-0.1-0.2,0c0,0.3-0.3,0.6-0.6,0.4c-0.1-0.1-0.2,0.1-0.1,0.2
			C-507.8,798.3-507.2,797.9-507.3,797.4z"/>
		<path class="st0" d="M-495,806.6c-0.4-0.7-1.5,0-1.4,0.7h0.1c0-0.6,0.7-0.7,1.2-0.5C-495.1,806.7-494.9,806.6-495,806.6z"/>
		<path class="st0" d="M-494.7,806.7c-0.1-0.1-0.2,0-0.2,0.1c0,0.3-0.1,0.4-0.5,0.3c-0.1-0.1-0.2,0.1-0.1,0.2
			C-495,807.7-494.3,807.1-494.7,806.7z"/>
		<path class="st0" d="M-494.7,806.2c-0.1,0-0.1,0.2,0,0.2c0.4-0.1,0.7,0.1,0.9,0.4c0.1,0.1,0.3,0,0.2-0.1
			C-493.6,806.2-494.3,806-494.7,806.2z"/>
		<path class="st0" d="M-495.1,809.3c0,0.1,0.1,0,0.1-0.1l0.3-0.1c0.1,0.1,0.3,0,0.2-0.1C-494.7,808.4-495.5,808.9-495.1,809.3z"/>
		<path class="st0" d="M-494.2,809.2c-0.1,0.4-0.6,0.7-1,0.5c-0.1-0.1-0.2,0.1-0.1,0.2c0.5,0.4,1.3,0,1.4-0.6
			C-493.9,809.1-494.1,809-494.2,809.2z"/>
		<path class="st0" d="M-504.9,811.5c-0.4,0.4-1-0.2-0.7-0.6c0.1-0.1-0.1-0.2-0.2-0.1c-0.5,0.7,0.5,1.5,1,0.8
			C-504.7,811.5-504.8,811.4-504.9,811.5z"/>
		<path class="st0" d="M-504.7,811.1c-0.1-0.1-0.2,0.1-0.1,0.1c0.3,0.2,0.3,0.6,0.1,0.8c-0.1,0.1,0,0.2,0.1,0.1
			C-504.3,811.8-504.3,811.3-504.7,811.1z"/>
		<path class="st0" d="M-505.8,812.8c-0.3,0.2-0.5,0.1-0.5-0.5c0.1-0.1-0.1-0.2-0.2-0.1c-0.5,0.6,0.3,1.4,0.8,0.8
			C-505.5,812.9-505.7,812.7-505.8,812.8z"/>
		<path class="st0" d="M-504.3,813.5c-0.1,0.1,0.1,0.3,0.2,0.1c0.2-0.1,0.4-0.1,0.5,0c0.1,0.1,0.2,0,0.2-0.1
			C-503.5,813.1-504.2,813.1-504.3,813.5z"/>
		<path class="st0" d="M-501.5,820.6c-0.2,0.2-0.3,0.1-0.2-0.4c0.1,0,0.1-0.2,0-0.2c-0.4,0-0.7,0.4-0.4,0.8c0.2,0.3,0.7,0.2,0.9-0.1
			C-501.2,820.7-501.4,820.5-501.5,820.6z"/>
		<path class="st0" d="M-501,820.4C-501.1,820.4-501.1,820.5-501,820.4c0.5,0.3,0.6,0.8,0.4,1.3c-0.1,0.2,0.2,0.3,0.3,0.2
			C-500,821.3-500.4,820.5-501,820.4z"/>
		<path class="st0" d="M-500.6,822.3c-0.2,0.1-0.3,0.2-0.5,0.3c-0.2,0.1-0.3,0-0.4-0.2c0-0.2,0-0.3,0.2-0.4c0.1,0,0.1-0.2,0-0.2
			c-0.4,0-0.6,0.5-0.4,0.8c0.3,0.5,1.1,0.3,1.4-0.2C-500.3,822.4-500.4,822.2-500.6,822.3z"/>
		<path class="st0" d="M-498,822.3c0,0.1,0.2,0.1,0.2,0c0.3-0.4,0.5-0.4,0.6-0.1c0.1,0.1,0.3,0,0.2-0.1
			C-497,821.3-498.1,821.5-498,822.3z"/>
		<path class="st0" d="M-497.3,823.4c-0.1,0-0.2,0-0.3,0c0-0.1-0.2-0.1-0.2,0c0,0.6,0.9,0.6,0.8,0
			C-497,823.2-497.3,823.2-497.3,823.4z"/>
		<path class="st0" d="M-498.6,823.6c-0.1,0.1,0,0.2,0.1,0.1c0,0.1,0.1,0.1,0.1,0.2c0,0.1,0.1,0.2,0.2,0.1
			C-497.9,823.8-498.3,823.4-498.6,823.6z"/>
		<path class="st0" d="M-517.1,816.4c-0.2,0.1-0.3,0-0.4-0.4c0.1-0.1,0-0.2-0.1-0.2c-0.7,0.5,0.1,1.4,0.6,0.8
			C-516.9,816.5-517,816.4-517.1,816.4z"/>
		<path class="st0" d="M-516.9,816c-0.1,0-0.1,0.1,0,0.1c0.6,0,0.5,0.6,0.4,0.9c-0.1,0.1,0.1,0.2,0.2,0.1
			C-515.8,816.7-516.3,816-516.9,816z"/>
		<path class="st0" d="M-516,818c-0.1,0.3-0.3,0.2-0.6-0.1c0-0.1-0.2-0.1-0.2,0c-0.1,0.8,1,1,1.1,0.2
			C-515.7,817.9-515.9,817.8-516,818z"/>
		<path class="st0" d="M-518.5,817.3c-0.1,0-0.1,0.1,0,0.1c0.3,0.1,0.3,0.3,0.2,0.5c-0.1,0.1,0.1,0.3,0.2,0.2
			C-517.9,817.8-518.1,817.3-518.5,817.3z"/>
		<path class="st0" d="M-531,809.4c0.1,0,0-0.2-0.1-0.2c-0.3,0.1-0.7,0.4-0.7,0.7c0,0.3,0.2,0.4,0.5,0.4c0.1,0,0.1-0.2,0-0.3
			C-531.7,809.9-531.1,809.5-531,809.4z"/>
		<path class="st0" d="M-530.1,809.9c0-0.1,0-0.1-0.1-0.1c-0.2,0-0.3,0-0.5,0c-0.1,0-0.1,0.2,0,0.2s0.3,0,0.4,0c0,0.2,0,0.4,0,0.6
			c0,0.1,0.2,0.1,0.2,0C-530.1,810.3-530.1,810.1-530.1,809.9z"/>
		<path class="st0" d="M-529.7,811.1c-0.1,0-0.1,0.2,0,0.2c0.3,0.1,0.5,0.3,0.3,0.5c0,0.1,0.2,0.2,0.2,0.1
			C-528.9,811.5-529.3,811.1-529.7,811.1z"/>
		<path class="st0" d="M-486.9,810.3c0.8-1.8,0.4-4.1-0.5-5.8c-0.6-1-1.3-1.9-2.2-2.6c0.2,0,0.4-0.2,0.3-0.4
			c-5.3-9.9-17.4-13.6-27.6-9.5c-0.1,0-0.1,0.1,0,0.1c-1.5-0.1-3.1,0.1-4.5,0.8c-1.2,0.6-2.5,1.5-3,2.7c-0.2-1-2.3,0.7-2.5,1
			c-1,1.5-0.7,3.5,0.7,4.6c0,0.8,0.2,1.6,0.5,2.3c-3.5-1.7-2.9-9,1.6-8.6c0.2,0,0.2-0.3,0-0.3c-3-0.6-4.5,2.3-4.4,5.1
			c0-0.1-0.1-0.2-0.3-0.2c-4.3,1.1-6.6,5.6-4.9,9.6c-1.5,1.2-1.7,3.4-1.2,5.2c0.4,1.5,1.1,3.5,2.9,3.5c0,0.1,0,0.2,0,0.3
			c0.1,0.6,0.3,1.4,0.7,2.1c-0.3,0.1-0.4,0.7-0.5,1c-0.1,0.9,0.1,1.8,0.6,2.6c0.9,1.3,3,2,4.3,1.1c0.5,0,1,0,1.5-0.2
			c0.6-0.3,1.2-0.7,1.5-1.2c-1.1,3-4.8,3.5-7.2,1.4c-2-1.8-2.2-4.5-1-6.8c0.1-0.1-0.1-0.3-0.2-0.1c-2,2.6-1.1,6.3,1.7,8
			c0.4,0.3,0.9,0.4,1.4,0.5l0,0c0.7,2.6,3.7,4.5,5.9,5.8c2.8,1.6,6,2.5,9.2,2.6c0.3,0,0.3-0.5,0-0.5c-1.4-0.1-3-0.4-4.5-0.8
			c0.6,0.1,1.2,0.1,1.7,0.1c0.1,0,0.2,0,0.2-0.1c1.1,0.5,2.3,0.8,3.5,0.7c0,0.1,0.1,0.1,0.1,0.1c0.2,0.6,0.7,0.9,1.2,1.2
			c1.6,0.9,3.9,1,5.4,0.3c0.8-0.3,1.5-0.9,1.9-1.6c1.5,0.4,3.2,0,4.5-0.9c0,0,0,0.1,0.1,0.1c3.5,1.2,7-1.8,6.6-5.5
			c1.4,0.9,3.5,0.9,4.4-0.6c0,0,0,0,0.1,0c0.4-0.5-0.1-1-0.6-1.1c-0.1,0-0.1,0.1-0.1,0.1c-0.5,0.3-0.9,0.6-1.6,0.8
			c-0.7,0.1-1.4,0-2-0.3c1.3,0.1,2.6-0.5,3.7-2c1.7-2.2,2.2-5.2,1-7.7c0-0.1-0.1-0.1-0.2-0.1c0-0.1,0.1-0.2,0.1-0.2
			c1.3-0.2,2.2-1.7,2.5-2.8C-485.6,812.8-486,811.4-486.9,810.3z M-488.3,803.9c1.8,2.7,2.1,6.6-1.1,8.2c0.1-0.5,0.2-1,0.2-1.4
			c2-1.2,1.7-4.4,0.8-6.2c-1.3-2.6-4.2-3.9-7-2.9c0,0-0.1,0-0.1,0.1c-0.1-0.1-0.3-0.1-0.5-0.2c0-0.2-0.1-0.3-0.2-0.5
			C-493.1,800.2-490.1,801.3-488.3,803.9z M-496.6,829.9c0.4-0.1,0.7-0.3,1-0.5c-0.2,1-0.2,1.8-1,2.6c-0.8,0.7-1.8,1-2.8,0.8
			c0.2-0.3,0.4-0.5,0.6-0.9c0.6,0.1,1.3-0.1,1.7-0.6C-496.8,831-496.5,830.4-496.6,829.9z M-500.6,829.7c-2.8-0.8-4-3.8-2.7-6.3
			c0.2,0.2,0.3,0.4,0.6,0.6c-0.2,1.9,0.9,3.7,2.8,4.3c1.7,0.5,3.9-0.1,4.7-1.8c0.4,0.2,0.8,0.4,1.3,0.5
			C-495.3,829.2-498,830.4-500.6,829.7z M-508.6,833.4c0-0.1-0.2-0.1-0.2-0.1c-0.4,0.4-0.5,0.8-1,1.1c-0.1,0.1-0.3,0.1-0.4,0.1
			c0,0-0.1-0.1-0.1,0l0,0c-0.1,0-0.2,0-0.3,0s-1.2-0.2-0.9-0.5v-0.1c0.3-0.1,0.5-0.2,0.7-0.3c0,0,0,0,0-0.1c0.7,0.1,1.4-0.1,2-0.5
			c0.7-0.5,1-1.2,1.1-2c0.2,0,0.4,0,0.5,0c0,0.8-0.2,1.5-0.6,2.2c-0.2,0.3-0.5,0.6-0.9,0.9c0,0-0.1,0.1-0.3,0.1
			C-508.7,834.1-508.5,833.8-508.6,833.4z M-527.1,819c-0.1,0-0.1,0.1,0,0.2c0.1,0,0.1,0.1,0.2,0.1l0,0c-0.1,0-0.2,0-0.2,0.1
			c0,0-0.1,0-0.1,0.1c-0.2,0-0.3,0-0.5,0l0,0c-0.3-1.4,0-2.5,0.9-3.5c0.2,0.7,0.8,1.4,1.4,2c-0.3,0.3-0.8,0.3-1.1-0.1c0,0,0,0-0.1,0
			c0.1-0.2,0.3-0.3,0.4-0.5c0.1-0.1-0.1-0.3-0.2-0.2c-0.5,0.1-0.7,0.6-0.8,1.1C-527.3,818.5-527.2,818.8-527.1,819z M-528,819.6
			C-528,819.7-528,819.7-528,819.6c-0.2,0.2-0.4,0.4-0.6,0.7c-0.1-0.3-0.2-0.8-0.3-1.1c-0.1-0.5-0.3-0.9-0.3-1.4
			c0-1.1,0.4-2.1,1.2-2.7c0,0,0-0.1,0.1-0.1c0.3,0.1,0.7,0.2,1,0.3c0,0.1,0,0.1,0,0.2C-528.2,816.3-528.7,818.3-528,819.6z
			 M-529.3,822.9c-0.6-0.1-1.1-0.5-1-1.2c0.3,0.2,0.6,0.3,1,0.2l0,0c-0.1,0.3-0.1,0.6-0.1,0.8C-529.3,822.7-529.3,822.8-529.3,822.9
			z M-528.9,814.4c0.2,0.1,0.4,0.3,0.7,0.4c-0.8,0.6-1.2,1.3-1.4,2.3c-0.1,0.6,0,1.1,0.1,1.7c0.1,0.3,0.2,0.6,0.3,0.9
			c0.2,0.5,0.3,0.2,0.5,0.7c0,0,0,0,0.1,0c-0.2,0.4-0.4,0.8-0.5,1.2C-531,819.3-530.9,816.6-528.9,814.4z M-530.6,811.8
			c-0.3,0.2-0.3,0.6,0,0.8c0.1,0.1,0.2,0.1,0.2,0.1c-0.1,0-0.2,0-0.4,0c-1.3,0-2.3-0.6-2.2-1.9c0-0.1,0-0.2,0-0.3
			c0.1-0.1,0.1-0.2,0.2-0.3s0-0.3-0.1-0.3c0.3-0.8,0.9-1.5,1.7-1.6c0,0.1,0.1,0.2,0.2,0.2c1.1,0,2.2,0.6,2.4,1.8
			c0.2,1.1-0.5,1.9-1.5,2.3c0.1-0.1,0.3-0.2,0.4-0.4c0.1-0.1-0.1-0.3-0.2-0.2c-0.1,0-0.2,0.1-0.2,0.1c-0.1,0.1-0.3,0.1-0.5-0.1
			C-530.4,811.9-530.5,811.7-530.6,811.8z M-530.7,813.2c-0.3,0.4-0.6,0.8-0.8,1.3l0,0c-0.5-0.4-0.4-0.9-0.1-1.4
			C-531.4,813.2-531,813.2-530.7,813.2z M-530.2,805.9c0,0.3,0.1,0.6,0.2,0.9c-0.3-0.1-0.6,0.1-0.9,0.3c-0.3,0.3-0.3,0.5-0.2,0.8
			c-0.3,0-0.6,0.1-0.9,0.3c-0.2-1.2,0.6-2.1,1.7-2.5c0.2-0.1,0.2-0.4,0-0.3c-1.4,0.1-2.3,1.7-2,3l0,0c-0.2,0.1-0.3,0.3-0.4,0.4
			c-0.2-2.1,0.9-4,2.8-5c0.2-0.1,0.1-0.5-0.2-0.4c-1.5,0.6-2.6,2-2.9,3.6c0.2-2.3,1.3-4.3,3.8-5.1
			C-529.9,803.2-530.2,805.4-530.2,805.9z M-529.9,807c0.1,0.5,0.3,0.9,0.6,1.3c-0.4-0.2-0.9-0.3-1.4-0.3c0-0.1-0.1-0.1-0.1-0.1
			C-530.8,807.4-530.4,807.2-529.9,807C-530,807-530,807-529.9,807z M-528.1,809.7c0.3,0.2,0.6,0.4,0.9,0.5
			c-0.1,0.4-0.4,0.7-0.8,0.7c0-0.2,0-0.4,0-0.6C-527.9,810.1-528,809.9-528.1,809.7z M-528,811.1c0.5,0,1-0.4,1.1-0.9
			c0.2,0.1,0.3,0.1,0.5,0.1c-0.1,0.3-0.3,0.6-0.6,0.8c-0.4,0.3-0.8,0.4-1.3,0.4C-528.1,811.4-528,811.3-528,811.1z M-525.9,810.5
			c0.1,0,0.2,0,0.3,0c0.1,0.2,0.2,0.5,0.3,0.7c-0.8,1.2-2.1,1.4-3.4,1.1c0.1-0.1,0.3-0.3,0.4-0.5
			C-527.3,812.1-526.1,811.4-525.9,810.5z M-524.5,805.5c0.1,0.1,0.2,0.3,0.4,0.4c-1.6,2.5-0.4,6.9,3,7.1c0,0.2,0,0.4,0.1,0.6
			c-2.5-0.4-4-2.3-4.3-4.4c0,0,0.1,0,0.1-0.1c0.1-0.1,0-0.3-0.1-0.3C-525.4,807.8-525.2,806.6-524.5,805.5z M-525.5,804.9
			c-0.1-0.2-0.1-0.5,0-0.7l0,0c0.2,0.4,0.4,0.7,0.7,1.1c-0.1,0.1-0.2,0.2-0.2,0.3C-525.2,805.4-525.4,805.3-525.5,804.9z
			 M-522,804.4c-2.1-1.6-2.7-5.8,0.8-6.1l0,0c-0.1,0.2-0.1,0.5-0.2,0.7c-2.5,0-3.2,3.6-0.8,4.5h0.1c0.1,0.3,0.2,0.6,0.3,0.9l0,0
			c-0.2,0.4-0.3,0.8-0.4,1.3l0,0c-1.7-0.9-2.8-2.7-2.4-4.6c0.2-0.9,0.6-1.5,1.1-2.1c-1.3,1.6-0.8,4.6,1.3,5.7
			C-522,804.6-521.9,804.5-522,804.4z M-518.1,794.9c-0.2,0.1-0.5,0.3-0.7,0.4c-0.7-0.9-2-0.6-2.4,0.4c-0.2,0-0.5,0-0.7,0.1
			C-521.1,794.4-519.4,793.9-518.1,794.9z M-522.3,795.8c-0.4,0.1-0.8,0.3-1.2,0.5c-0.3-1.3,2.7-2.3,3.4-2.4
			c1.2-0.2,2.2,0.1,3.3,0.6c-0.3,0.1-0.5,0.1-0.8,0.2C-519.2,793.3-521.6,793.9-522.3,795.8z M-515.6,794.8
			c-0.1,0.3-0.1,0.7-0.2,1.1c-1.3-0.2-2.6,0.3-3.4,1.2c-0.7,0.8-1.4,2.3-0.9,3.3c-0.2,0.1-0.5,0.1-0.7,0.3c0,0,0,0,0-0.1
			c0.2,0,0.3-0.2,0.1-0.3c-0.1,0-0.1,0-0.2-0.1c-0.3-1.4,0.4-2.9,1.4-3.9C-518.3,795.3-517.1,795-515.6,794.8z M-506.4,794.4
			c3.9-1.8,7.9,0.4,8.5,4.4c-0.3-0.2-0.6-0.4-1-0.5l0,0c-0.5-3.2-3.8-3.9-6.6-3.3c-0.4-0.3-0.8-0.5-1.3-0.6v-0.1
			c0.1-0.1,0.1-0.2,0-0.3c-1.5-1.6-4-2-5.8-0.7c-1.1,0.9-2.7,3.8-1.1,4.9l0,0c-0.1,0.2-0.2,0.3-0.2,0.5c-3.6-4.7,5.1-9.4,8.2-5
			c-0.3,0.1-0.6,0.2-0.8,0.4C-506.7,794.3-506.5,794.5-506.4,794.4z M-492.7,800.2c-1.1-1.8-3-3.1-5.2-3.3c-0.1-0.3-0.3-0.6-0.5-0.9
			c3.4-0.3,5.8,1.7,6.8,4.8c-0.4-0.1-0.8-0.3-1.2-0.3C-492.7,800.4-492.7,800.3-492.7,800.2z M-493.3,800.3c-0.3,0-0.6-0.1-0.9,0
			v-0.1c-0.5-1.2-2.1-2-3.3-2.3l0,0c-0.1-0.2-0.1-0.5-0.2-0.7c0.8,0.2,1.7,0.5,2.4,0.9c0.4,0.3,0.8,0.6,1.2,0.9
			c0.2,0.2,0.4,0.4,0.6,0.7c0.1,0.1,0.2,0.2,0.3,0.4C-493.2,800.1-493.2,800.1-493.3,800.3C-493.3,800.1-493.4,800.2-493.3,800.3
			C-493.4,800.3-493.3,800.3-493.3,800.3z M-500.2,825.3c0.4,0.1,0.9-0.1,1.1-0.5c0.4,0.4,1,0.6,1.6,0.5c-0.5,0.6-1,1.2-2,1.1
			c-1.2,0-2-1-2.1-2.1c0.2,0,0.4,0,0.6,0C-500.9,824.8-500.7,825.2-500.2,825.3z M-500.7,824.4c0.4-0.1,0.8-0.2,1.1-0.4
			c0,0.1,0,0.2,0.1,0.3c0,0.1,0.1,0.2,0.2,0.3c-0.2,0.3-0.4,0.5-0.8,0.4C-500.4,824.8-500.6,824.6-500.7,824.4z M-500.8,823.8h-0.1
			l0,0c-1.1,0.1-2.2-0.6-2.5-1.6c-0.3-1.1,0.4-2.2,1.3-2.8l0,0c0.5,0,0.9,0,1.4-0.1c1,0.4,1.7,1.2,1.7,2.3
			C-498.9,822.6-499.7,823.6-500.8,823.8z M-508.6,827.9L-508.6,827.9c0.5,0,1.1,0,1.6,0c-0.1,0.1-0.1,0.2-0.1,0.2
			c-0.1,0.2-0.3,0.4-0.5,0.5c-0.3,0.2-0.6,0.3-0.9,0.2c-0.2-0.2-0.5-0.4-0.7-0.5C-509,828.4-508.8,828.2-508.6,827.9z M-510,828.2
			c-0.4-0.1-0.9-0.1-1.3,0c0.1-0.2,0.2-0.4,0.3-0.6c0-0.1,0-0.1,0-0.2c0.6,0.2,1.3,0.4,2,0.5C-509.3,828.1-509.6,828.2-510,828.2z
			 M-507.5,829c0.3-0.2,0.8-0.6,0.8-1.1c0.4,0,0.8,0,1.2-0.1c-0.2,0.6-0.3,1-0.8,1.5c-0.4,0.4-1,0.7-1.6,0.7
			c-0.1-0.3-0.2-0.5-0.4-0.8C-508,829.2-507.7,829.2-507.5,829z M-513.6,823.7c0.3,0,0.6,0,0.9,0c0.6,3.2,6.8,4,8.5,1.4
			c0,0,0,0,0-0.1c0,0,0,0,0.1,0c-0.1,0.7-0.1,1.4,0.2,2.1C-507,827.6-513.1,827.9-513.6,823.7z M-511.3,823.6c0.9,1.2,3.2,2,4.4,0.8
			c0.6,0.3,1.2,0.5,2,0.6c-1.1,1-2.5,1.2-4,0.9c-1.3-0.3-3.1-0.8-3.5-2.3c0.4,0,0.8-0.1,1.1-0.2
			C-511.3,823.5-511.3,823.5-511.3,823.6z M-519.5,820.3c-0.3,0.1-0.6,0-0.9-0.2c0-0.1,0-0.3,0-0.4c0.4,0,0.7-0.1,1-0.3
			c0.1,0.2,0.1,0.4,0.2,0.5C-519.2,820.2-519.3,820.3-519.5,820.3z M-518.8,820.5c0.1,0.2,0.2,0.4,0.4,0.6h-0.1
			c-0.4,0.1-0.7,0.3-1.1,0.3c-0.4,0-0.7-0.1-1-0.3c0.1-0.2,0.2-0.4,0.3-0.6C-520,820.8-519.2,820.8-518.8,820.5z M-516.1,815.1
			l0.1,0.1c1.6,0.6,1.7,2.5,0.3,3.5c-0.9,0.6-2.2,0.6-3.1,0.1C-520.8,817.6-518.3,814.1-516.1,815.1z M-520.1,817.9
			c-0.7,0.4-2.4-0.2-2.9-0.4c-0.8-0.3-2.4-1.1-2.5-2.1c0.2,0,0.3,0,0.5,0c0.9,1.4,3.4,2.8,5,1.6c0,0,0,0,0-0.1
			C-520.1,817.3-520.1,817.6-520.1,817.9z M-520.2,816.7c-0.8,0.1-1.5,0.3-2.4,0.1c-0.9-0.2-1.6-0.7-2.2-1.4
			c0.3-0.1,0.6-0.1,0.9-0.3l0,0c0.7,0.8,2.4,1.4,3.3,0.6c0.2,0.3,0.3,0.6,0.6,0.9c0,0.1-0.1,0.2-0.1,0.3
			C-520,816.8-520,816.7-520.2,816.7z M-520.9,814.6c0.1,0.3,0.2,0.5,0.3,0.7c-0.5,0.2-0.8,0.4-1.3,0.3c-0.6,0-1.1-0.3-1.5-0.7
			c0.3-0.1,0.5-0.2,0.8-0.4c0.1,0.1,0.1,0.1,0.2,0.2C-522.1,815.1-521,815.4-520.9,814.6z M-522.4,814.3c0.1-0.1,0.3-0.2,0.4-0.4
			l0,0c0.3,0.1,0.6,0.2,0.9,0.2c0,0.1,0,0.2,0.1,0.3c-0.1,0-0.1-0.1-0.2,0C-521.6,814.8-522,814.6-522.4,814.3z M-522.2,801.2
			c0.2-0.4,0.7-0.6,1.1-0.6c0,0.1,0.1,0.2,0.1,0.2c-0.5,0.4-0.9,0.9-1.1,1.6C-522.3,802.1-522.4,801.6-522.2,801.2z M-522.1,803.3
			c-1.8-1.1-1.3-3.6,0.7-3.9c0,0.3,0,0.6,0.1,0.8c-1.2,0-2,1.7-0.9,2.5C-522.1,802.9-522.1,803.1-522.1,803.3z M-520.7,801.2
			c0.1,0,0.1,0,0.1-0.1c0.4-0.3,1-0.5,1.5-0.5c0,0,0,0,0.1,0.1c0.1,0,0.2,0,0.2,0s0.1,0,0.1-0.1c0.8,0.2,1.7,0.4,2.2,1.1v0.1
			l0.1,0.1c0.1,0.2,0.2,0.5,0.2,0.8c0,0.7-0.3,1.4-0.9,1.8c-0.1,0-0.1,0-0.1,0.1c-0.2,0.1-0.4,0.3-0.6,0.4l0,0
			c-0.1-0.1-0.3,0-0.2,0.1c-0.3,0.1-0.6,0.2-0.9,0.2c-1.4,0.1-2.8-1-2.8-2.4C-521.6,802.2-521.3,801.6-520.7,801.2z M-514.3,801.1
			c0,0.1,0,0.2,0,0.2c-0.8-0.1-1.5-0.4-2.1-0.8c0.2-0.4,0.6-0.7,1-0.8C-515.8,800.3-515,801.1-514.3,801.1z M-515.3,799.7
			c0.3,0,0.7,0.1,1,0.4l0,0c0,0.2,0,0.4-0.1,0.6c-0.3,0-0.6-0.1-0.7-0.4C-515.2,800.1-515.2,799.9-515.3,799.7L-515.3,799.7z
			 M-514.3,801.8c0,0.2,0.1,0.3,0.1,0.5c-0.3,0-0.6,0.1-0.9,0c-0.3-0.1-0.5-0.2-0.8-0.3c-0.1-0.4-0.4-0.7-0.7-0.9V801
			C-515.9,801.4-515.1,801.8-514.3,801.8z M-496.7,801L-496.7,801c0.1,0.1,0.1,0.1,0.2,0.2c-0.4-0.1-0.8-0.1-1.2-0.1
			c-1.2-2.5-4.2-2.6-6.5-1.6c-0.1-0.1-0.1-0.2-0.1-0.3c2.8-1.5,5.8-0.9,7.5,1.6C-496.9,800.9-496.8,801.1-496.7,801z M-502.1,802.1
			c0.3-0.1,0.6-0.1,0.9,0c0.2,0.1,0.4,0.2,0.6,0.4c-0.2,0.2-0.3,0.4-0.5,0.6c-0.7-0.5-1.3-1-1.8-1.7c1.1-0.3,2.1-0.1,3.1,0.4
			c-0.2,0.1-0.4,0.3-0.6,0.5c-0.3-0.6-1.3-0.6-1.8-0.4C-502.3,801.9-502.3,802.1-502.1,802.1z M-498,814.6
			C-498,814.6-498,814.5-498,814.6c0.3,0.2,0.6,0.5,1,0.7c0,0-0.1,0-0.1,0.1c-2.7,3.5-7.4,3.5-9.7-0.3c0.2,0,0.4-0.1,0.6-0.2
			c0.2,0.1,0.4,0.2,0.6,0.2c-0.1,0-0.1,0.1-0.1,0.1C-504.2,819-499.3,817.9-498,814.6z M-509.5,818.3c-2-1-2.6-2.9-1.6-4.7
			c0.2,0.2,0.4,0.4,0.6,0.6c-0.9,1.2-0.4,3.1,1,3.8l0,0C-509.5,818.1-509.5,818.2-509.5,818.3z M-509.5,819.3L-509.5,819.3
			c-3-0.4-4.2-5.2-2.8-7.4c0.3,0.5,0.6,1,0.9,1.4c-1.3,1.9-0.5,4.6,1.8,5.3h0.1C-509.5,818.8-509.5,819.1-509.5,819.3z
			 M-510.8,813.2C-510.8,813.1-510.8,813.1-510.8,813.2c0.2-0.2-0.1-0.5-0.2-0.3l0,0c-0.4-0.4-0.7-0.9-0.9-1.5c0-0.1,0-0.1-0.1-0.2
			c-0.7-1.7-0.6-3.7,0.8-5.2c0.2,0.1,0.4,0.2,0.6,0.3c-1,1.2-1.2,2.9-0.5,4.4c0.6,1.2,2.3,3.2,3.8,3.3c0.1,0.1,0.1,0.2,0.2,0.2
			c0.1,0.1,0.3,0.3,0.5,0.4C-508.3,814.9-509.8,814.2-510.8,813.2z M-518.1,806.9c0.5,0.1,1.2,0,1.5-0.5c0.4,0.3,0.9,0.6,1.3,0.7
			c-0.9,0.4-1.9,0.8-3,0.5c-1-0.3-1.7-1-2-2c0.3,0.1,0.5,0.2,0.8,0.2c0.1,0,0.2,0,0.2,0C-519,806.4-518.6,806.8-518.1,806.9z
			 M-518.9,805.9c0.5,0,0.9-0.2,1.3-0.4c0.2,0.2,0.5,0.5,0.7,0.7c-0.4,0.2-0.7,0.4-1.1,0.3C-518.4,806.5-518.7,806.2-518.9,805.9z
			 M-514.7,807.4c0.7,0.2,1.4,0.2,2-0.1v0.1c-0.1,0-0.2,0-0.3,0.1c-1.9,3.3-7.5,1.2-7.9-2.2c0.1,0.1,0.2,0.1,0.3,0.2
			C-520.3,808.2-516.7,809.1-514.7,807.4z M-515.2,806.7c-0.8-0.3-1.5-0.7-2.2-1.3c0.2-0.1,0.3-0.2,0.5-0.4c1.3,1.2,3.5,1.8,5,0.9
			c-0.3,0.4-0.6,0.7-0.7,1.1c0,0,0-0.1-0.1-0.1C-513.5,806.8-514.3,806.9-515.2,806.7z M-514.5,805c0.5,0.1,1.2,0,1.7-0.3
			c0.2,0.3,0.5,0.5,0.8,0.7c-1.7,0.3-3.1,0.4-4.6-0.7c0.2-0.2,0.4-0.4,0.5-0.7C-515.7,804.6-515.1,804.9-514.5,805z M-516,803.9
			c0.1-0.2,0.2-0.4,0.2-0.6c0.3,0.3,0.6,0.5,1,0.5c0.4,0.1,0.9,0.1,1.2-0.1c0.1,0.2,0.3,0.4,0.4,0.7c-0.4,0.1-0.8,0.3-1.2,0.2
			C-515,804.6-515.5,804.3-516,803.9z M-512.1,796.4c0.1-0.6,0.5-1.1,1.1-1.1c0.4,0,0.7,0.3,1,0.5c-1,0.1-2,0.6-2.7,1.2
			c-0.4-2.3,2.2-3.9,4-2.3c-0.4,0.2-0.7,0.5-1,0.9c-0.2-0.6-1-0.9-1.6-0.8c-0.7,0.2-1.2,0.8-1.1,1.5
			C-512.3,796.6-512.1,796.5-512.1,796.4z M-509.5,798.7L-509.5,798.7c-0.4,0.7-0.2,2.1,0.7,2.2c0,0.5,0.1,1,0.2,1.4
			c-1.9-0.5-2.6-2.6-1.3-4.2C-509.7,798.3-509.6,798.5-509.5,798.7z M-509.3,798.9c0.2,0.3,0.5,0.5,0.9,0.7c-0.1,0-0.1,0-0.2,0.1
			c-0.1,0.3-0.1,0.6-0.1,0.9c-0.2-0.2-0.4-0.3-0.6-0.6C-509.4,799.6-509.4,799.2-509.3,798.9z M-510,797.8c-1.9,1.7-0.7,4.7,1.7,5
			c0.1,0.3,0.3,0.5,0.5,0.7c-0.1,0.2-0.2,0.3-0.2,0.5c-1.4-0.3-2.8-1-3.3-2.5s0.1-3.1,1.2-4.2c0,0,0,0,0-0.1
			C-510,797.5-510,797.6-510,797.8C-509.9,797.8-509.9,797.8-510,797.8z M-508.2,799.6c0.2,0.1,0.3,0.1,0.5,0.1l0,0
			c-0.1,2.9,2.4,5.3,5.3,4.5c-0.1,0.1-0.1,0.2-0.2,0.2c-1.4,0.2-2.7,0.4-4-0.4c-0.5-0.4-0.9-0.9-1.2-1.4c0-0.1,0-0.1-0.1-0.2
			c-0.4-0.8-0.5-1.8-0.3-2.7C-508.2,799.7-508.2,799.7-508.2,799.6z M-501.9,803.8C-501.9,803.9-502,803.9-501.9,803.8
			c-0.1,0-0.1,0-0.2,0c-2.7,0.6-5.3-1.3-5.2-4.1c0.3,0,0.5,0,0.7-0.1C-506.9,802.2-504.2,804.1-501.9,803.8z M-502.4,797.9
			c-0.6-0.6-1.3-0.8-2.1-0.7c0-0.1,0-0.3,0-0.4c0.6-0.2,1.3-0.2,1.9,0.1c0.3,0.1,0.6,0.3,0.8,0.6c0.2,0.2,0.3,0.4,0.5,0.5
			c-0.4,0-0.7,0.1-1.1,0.1C-502.3,798.1-502.3,798-502.4,797.9z M-502.7,798.2C-502.7,798.2-502.6,798.2-502.7,798.2
			c-0.3,0.1-0.5,0.2-0.8,0.3c-0.3-0.3-0.7-0.5-1.1-0.6c0-0.1,0.1-0.2,0.1-0.3C-503.8,797.5-503.2,797.7-502.7,798.2z M-503.8,798.6
			c-0.2,0.1-0.4,0.2-0.6,0.3c-0.1-0.3-0.3-0.5-0.3-0.8l0,0C-504.4,798.2-504.1,798.4-503.8,798.6z M-504.5,799.7c0,0,0,0.1,0.1,0.1
			c0.7,1.4,1.9,2.6,3.2,3.4c-0.1,0.1-0.1,0.2-0.2,0.3c-0.1,0-0.2,0-0.3,0c-1.8-1-3.1-2.6-3.7-4.6c0.1-0.1,0.3-0.3,0.4-0.4
			C-504.9,798.9-504.7,799.3-504.5,799.7z M-502.2,803.5c-1,0-1.9-0.4-2.7-1c-0.9-0.8-1.1-1.8-1.4-2.9c0.2-0.1,0.4-0.2,0.6-0.3
			C-505.1,801.1-503.9,802.6-502.2,803.5z M-499.2,809.4L-499.2,809.4c0.3-0.2,0.7-0.4,1-0.6c-0.4,0.6-0.6,1.2-1.3,1.6
			c-0.8,0.4-1.6,0.4-2.4,0.1c0.2-0.1,0.4-0.2,0.7-0.3C-500.6,810.6-499.3,810.4-499.2,809.4z M-501,809.9c0.1-0.1,0.3-0.2,0.4-0.4
			v-0.1c0.2,0,0.5,0.1,0.8,0h0.1C-499.9,809.9-500.5,810.2-501,809.9z M-502.6,810.7c0.1,0,0.3,0,0.4-0.1l0,0
			c0.8,0.6,1.9,0.7,2.8,0.3c0.6-0.3,1.3-0.9,1.5-1.6c0.1,0.3,0.3,0.5,0.5,0.8C-498.8,811.7-501,811.9-502.6,810.7z M-497.1,810.3
			c0.1,0.1,0.3,0.2,0.4,0.3c-0.6,0.8-1.4,1.4-2.4,1.7c-0.7,0.2-1.4,0.2-2.1,0c-0.3-0.1-2.1-0.6-1.9-1.3c0-0.2-0.2-0.2-0.3-0.1l0,0
			c0-0.1-0.1-0.2-0.1-0.3c0.2,0,0.4,0,0.5,0C-501.2,812.5-498.6,812.2-497.1,810.3z M-507.8,804.4c0.1-0.1,0.1-0.2,0-0.2
			c0-0.1,0-0.3,0.1-0.4c0.2,0.2,0.3,0.3,0.5,0.5c0,0,0.1,0,0.1,0.1c-0.8,3.4,2.8,6.2,5.9,5c0,0,0,0,0.1,0
			C-504.4,812.3-508.2,808.1-507.8,804.4z M-507.1,809c-0.2,0.3-0.3,0.9,0,1.3c-0.2,0.2-0.4,0.4-0.5,0.7c-0.6-1-0.6-2.1,0-3.2
			c0.4,0.8,1,1.5,1.8,2c-0.4,0-0.7,0.1-0.9,0.2c-0.1-0.3-0.2-0.5,0-0.9C-506.8,809-507,808.9-507.1,809z M-506.8,804.5
			c0.2,0.1,0.3,0.2,0.5,0.3c0,1,0.4,1.9,1.2,2.6c0.6,0.5,1.6,1.1,2.5,0.9c0.2,0.3,0.5,0.6,0.9,0.8
			C-504.6,809.5-506.8,807.5-506.8,804.5z M-503.2,807.1c0.1,0.3,0.2,0.5,0.3,0.7c-0.7-0.1-1.3-0.2-1.8-0.7
			c-0.7-0.6-1.1-1.3-1.2-2.2c0.3,0.1,0.5,0.2,0.8,0.2c-0.1,0-0.1,0.1-0.1,0.1C-505.1,806.2-504.2,807.2-503.2,807.1z M-505,805.1
			c0.2,0,0.5,0.1,0.7,0.1c0.2,0.4,0.6,0.8,1.1,0.9c0,0.2,0,0.4,0,0.6C-504.1,806.5-504.8,806.1-505,805.1
			C-505,805.2-505,805.2-505,805.1z M-503.2,805.7c-0.3-0.1-0.6-0.2-0.8-0.5c0.4,0,0.8-0.2,1.2-0.3
			C-503,805.1-503.1,805.4-503.2,805.7z M-510,796.5c0,0.2,0,0.5,0,0.7c0-0.1-0.1-0.1-0.2,0c-2.9,2.1-1.7,7.3,2,7.3
			c-0.1,0.3-0.1,0.7-0.1,1C-513.4,805-514.1,799-510,796.5L-510,796.5z M-508,807.1c0,0.1,0.1,0.1,0.1,0.2c-1,1.1-0.9,2.8,0.1,3.9
			c-0.1,0.3-0.1,0.6-0.1,0.9c-1.2-1.5-2.1-3.4-0.7-5.1C-508.4,807.1-508.2,807.1-508,807.1z M-508,812.6c0,0.3,0.1,0.6,0.3,0.9
			c-2.3-1.5-4.9-4.3-2.6-7c0.3,0.1,0.7,0.3,1,0.4C-510.8,808.6-509.5,811.3-508,812.6z M-506.9,813.5c-0.9-1.2-0.3-3,1.1-3.4
			c0.1,0,0.1-0.1,0.1-0.1c0.6,0.4,1.4,0.7,2.1,0.8c-0.1,1,0.4,1.8,1.2,2.4l-0.1,0.1C-502.7,815.5-506,814.7-506.9,813.5z
			 M-502.2,813.3c0.4,0.2,0.8,0.4,1.2,0.6c-0.2,0.7-1,1.1-1.7,0.8C-502.3,814.3-502.1,813.9-502.2,813.3z M-502.9,814.9
			c0.8,0.5,2,0.1,2.3-0.9c0.2,0,0.4,0.1,0.6,0.1c0.1,0,0.1,0,0.2,0c-0.8,1.5-2.6,2.1-4.1,1.2l0,0
			C-503.6,815.2-503.2,815.1-502.9,814.9z M-502.8,812.1c0.7,0.5,2,0.7,2.5,0.8c1.7,0.1,3.2-0.8,4.1-2.1c0.3,0.1,0.6,0.2,0.9,0.2
			h0.1c-0.8,1.4-2,2.4-3.7,2.5c-0.1,0-0.2,0-0.4,0c-0.1,0-0.1,0-0.2,0C-500.8,813.5-502.1,813.1-502.8,812.1z M-493.9,810.7
			c0.4-0.2,0.8-0.5,1.1-0.9c0.4,0.8,0.3,1.7-0.4,2.3c-0.7,0.6-1.8,0.7-2.7,0.5c0.1-0.1,0.3-0.3,0.4-0.5c0.5,0.2,1,0.1,1.4-0.3
			C-493.9,811.6-493.8,811.1-493.9,810.7z M-495.4,812.1c0.3-0.3,0.5-0.7,0.7-1l0,0c0.2,0,0.4-0.1,0.5-0.1
			C-494.1,811.6-494.7,812.2-495.4,812.1z M-496.2,812.9c1.2,0.4,2.7,0.3,3.6-0.7c0.6-0.7,0.8-2,0.1-2.7c0.1-0.2,0.3-0.5,0.3-0.7
			c1.1,1.2,1,3-0.2,4.2c-1.3,1.3-3.2,1.3-4.8,0.6C-496.9,813.4-496.6,813.2-496.2,812.9z M-492.9,804.7c0.8,0.2,1.4,1,1.3,1.9l0,0
			c-0.3-0.2-0.7-0.4-1.1-0.5c0,0,0,0-0.1,0l-0.1-0.1c0,0,0,0,0-0.1C-492.8,805.5-492.8,805.1-492.9,804.7z M-492.7,808.7
			c-0.5,1.4-2,1.9-3.2,1.7l0,0c0.1-0.3-0.3-0.5-0.4-0.2l-0.1,0.1c-0.2-0.1-0.4-0.2-0.5-0.3l-0.1-0.1c-0.4-0.3-0.7-0.8-0.8-1.4
			c0.5-0.6,0.9-1.3,0.9-2.1c0.1,0,0.2,0,0.2-0.1c0.5-1.5,2.4-1.1,3.2-0.3C-492.7,806.7-492.4,807.7-492.7,808.7z M-496.6,805.3
			L-496.6,805.3c-0.1,0.2-0.3,0.4-0.3,0.7c-0.1-0.7-0.4-1.2-0.8-1.6C-497.3,804.4-496.9,804.8-496.6,805.3z M-498,804.1
			c-0.2-0.2-0.4-0.3-0.7-0.4c1.3-0.6,2.7-0.1,3.4,1.1c-0.4,0-0.8,0.1-1.1,0.4C-496.5,804.4-497.3,804-498,804.1z M-494.8,804.8
			c-0.7-1.7-2.7-2.3-4.2-1.3c-0.4-0.1-0.7-0.2-1.1-0.2c0.8-0.7,2.2-0.6,3.2-0.4c1.4,0.2,2.1,0.8,2.7,2
			C-494.5,804.9-494.7,804.9-494.8,804.8z M-499.3,803.8c0,0.1,0.1,0.2,0.2,0.1l0,0c0.2,0.1,0.4,0.2,0.5,0.3l0,0
			c-0.1,0,0,0.2,0.1,0.2h0.1c0.4,0.4,0.7,0.9,0.9,1.4c0.3,1.4-0.8,3-2.3,3.2c-0.3,0-0.7,0-1-0.1h-0.1c-0.9-0.3-1.7-1.1-1.9-2.1
			c-0.2-1.2,0.5-2.2,1.5-2.8l0,0c0.1,0,0.1,0,0.1-0.1c0.2-0.1,0.3-0.2,0.5-0.2c0,0,0.1,0,0.2,0c0-0.1,0.1-0.1,0.1-0.1
			C-500,803.5-499.6,803.6-499.3,803.8z M-503.1,801.1c-0.1-0.1-0.2-0.2-0.2-0.3c1.3-0.7,3-0.4,4,0.7l0,0c-0.1,0-0.2,0.1-0.2,0.1
			s0-0.1-0.1-0.1C-500.6,800.8-501.9,800.6-503.1,801.1z M-503.5,800.6c-0.2-0.3-0.3-0.6-0.5-0.9c2.1-0.6,4.5-0.7,5.8,1.4
			c-0.3,0-0.5,0.1-0.8,0.2c0-0.1,0-0.1-0.1-0.2C-500.1,799.9-502.1,799.7-503.5,800.6z M-499.9,798.1L-499.9,798.1
			c-0.4-1-1.2-1.7-2.1-2.1c-0.7-0.3-1.8-0.6-2.6-0.2c-0.1,0-0.1,0.1,0,0.2c0.8,0.2,1.6,0.1,2.4,0.5c0.7,0.4,1.2,0.9,1.7,1.5
			c-0.3,0-0.5,0-0.8,0l0.1-0.1c0-0.6-0.8-1.1-1.3-1.3c-0.7-0.3-1.4-0.2-2.1,0c-0.1-0.5-0.3-1-0.7-1.4c1.2,0.1,2.4-0.1,3.5,0.2
			c1.3,0.4,2.1,1.5,2.4,2.7C-499.5,798.1-499.7,798.1-499.9,798.1z M-505,797c0,1.2-1.2,2.3-2.4,2.2h-0.1c-1.1-0.1-2-1.2-2-2.4
			c0-1.4,1.4-2.2,2.7-2.2h0.1C-505.8,795.1-505,795.9-505,797z M-508.2,794.5c-0.9-1-2.5-1.3-3.7-0.5c-1.1,0.7-1.4,2.1-1,3.3
			c-0.2,0.2-0.4,0.5-0.6,0.7c-0.3-0.2-0.4-1.5-0.4-1.7c0.1-0.4,0.2-0.8,0.4-1.2c0.4-0.8,1.1-1.5,2-1.8c1.5-0.5,3.1,0,4.2,1.1
			C-507.5,794.3-507.9,794.3-508.2,794.5z M-509.8,796c0,0.1-0.1,0.1-0.1,0.2h-0.1c-2.1,1.1-3.7,3.3-3.2,5.8c0.4,2.3,2.6,4.2,5,4
			c0,0.2,0.1,0.4,0.1,0.7c-2.6-0.4-5-1.9-5.5-4.6C-514.3,799.1-512.5,796.8-509.8,796z M-513.8,803.3c-0.3,0-0.6,0.2-1,0.1
			c-0.4-0.1-0.7-0.2-1-0.5c0-0.2,0-0.4,0-0.6c0.5,0.3,1.2,0.5,1.7,0.3C-514,802.9-513.9,803.1-513.8,803.3z M-521.5,804.6
			c0.1,0.1,0.2,0.3,0.3,0.4c-0.2,2.4,1.8,4,4,4.4c1.4,0.2,3.3,0.1,4.2-1c-0.1,0.5-0.1,1,0,1.6C-516.4,812.5-523.1,809.2-521.5,804.6
			z M-515.2,819.1c0.2-0.1,0.4-0.3,0.5-0.5c0,0,0,0,0,0.1c0.5,0.3,1.2,0.4,1.7,0c0.1,0.1,0.2,0.3,0.4,0.4
			C-513.4,819.6-514.4,819.7-515.2,819.1z M-512.2,819.4c0.2,0.2,0.5,0.4,0.7,0.5c-1.5,0.9-3.4,0.9-4.8-0.3c0.3-0.1,0.6-0.2,0.9-0.4
			C-514.6,820.1-513.1,820.2-512.2,819.4z M-514.5,818.4L-514.5,818.4c0.3-0.5,0.4-1,0.4-1.5c0.2,0.6,0.5,1.1,0.9,1.5
			C-513.6,818.6-514,818.6-514.5,818.4z M-515.5,814.9c-0.2-0.6,0.3-1.1,0.8-1.3c0,0.7,0,1.4,0.2,2.1
			C-514.7,815.3-515,815-515.5,814.9z M-515.7,814.8C-515.7,814.8-515.8,814.8-515.7,814.8c-0.3-0.3-0.6-0.4-1-0.5
			c0.3-1,1.1-1.5,2.1-1.7l0,0c0,0.2-0.1,0.4-0.1,0.6C-515.4,813.3-515.9,814.1-515.7,814.8z M-514.5,812.4L-514.5,812.4
			c-1.2-0.1-2.2,0.9-2.4,1.9c-0.2,0-0.5,0-0.7,0.1c0.1-0.2,0.1-0.4,0.2-0.6c0.2-0.4,0.4-0.7,0.7-1c0.6-0.6,1.3-0.9,2.1-1.1
			c0.2-0.1,0.2-0.4,0-0.4c0.2,0,0.4-0.1,0.6-0.1C-514.3,811.6-514.4,812-514.5,812.4z M-518,814.5c-0.2,0.1-0.4,0.2-0.6,0.4
			c-0.2-1.4,0.1-2.6,1.2-3.6c0.1,0,0.1-0.1,0.1-0.2c0.8,0.2,1.6,0.3,2.4,0.2c-0.8,0.1-1.6,0.6-2.1,1.1S-518.1,813.8-518,814.5z
			 M-520.4,809.7c-0.1,0.2-0.2,0.4-0.2,0.5c-0.2-0.4-0.4-0.8-0.4-1.2C-520.9,809.3-520.7,809.5-520.4,809.7z M-520.1,810
			c0.1,0.1,0.2,0.2,0.3,0.2c0.1,0,0.2,0.1,0.3,0.1l0,0c-1,1.3-0.9,2.8-0.6,4.3c0,0.2,0.2,0.9,0.5,1.3c-0.1,0.1-0.1,0.2-0.2,0.3
			C-520.7,814.2-521,812.2-520.1,810z M-519.9,813.3c0-1,0.2-1.9,0.8-2.6c0,0,0,0,0-0.1c0.4,0.2,0.8,0.4,1.3,0.5
			c-1.2,0.9-1.8,2.7-1.2,4.1c-0.2,0.2-0.3,0.3-0.5,0.5C-519.7,815-519.8,813.4-519.9,813.3z M-516.6,819.7
			C-516.6,819.7-516.6,819.8-516.6,819.7c1.4,1.6,4,1.9,5.6,0.5c0.3,0.1,0.6,0.2,0.9,0.3c-2.4,2-5.4,1.5-7.3-0.8
			C-517.1,819.7-516.9,819.7-516.6,819.7z M-510.8,819.8c0-0.1-0.1-0.1-0.2-0.1c-2.8-1.7-4.1-5.6-2.6-8.7c0.3-0.1,0.5-0.3,0.8-0.5
			c0.1,0.3,0.2,0.6,0.3,1c-1.8,2.4-0.5,8.1,3,8.1c0,0,0,0,0.1,0c0,0.3,0.1,0.6,0.1,0.9C-509.9,820.3-510.4,820.1-510.8,819.8z
			 M-509.4,817.6c-1.1-0.8-1.3-2.1-0.7-3.2c0.1,0.1,0.2,0.1,0.3,0.2c-0.4,0.6-0.4,1.4,0.2,1.9c0.1,0.1,0.3,0,0.2-0.2
			c-0.4-0.5-0.4-1.1,0-1.6c0.3,0.1,0.6,0.3,1,0.3c0,0-0.1,0-0.1,0.1C-509,815.8-509.3,816.7-509.4,817.6z M-508.3,815.6
			c0.1,0.3,0.3,0.5,0.5,0.7c-1.5,2.4-0.6,6.7,2.1,8.1C-509,823.1-509.9,818.6-508.3,815.6z M-508.8,822c0.2,0.4,0.4,0.7,0.6,1
			c-0.5,0.2-1,0.2-1.4-0.3c0.3-0.2,0.5-0.3,0.8-0.5C-508.9,822.1-508.8,822.1-508.8,822z M-508,823.4c0.2,0.3,0.5,0.5,0.8,0.7
			c-0.6,0.2-1.1,0.3-1.7,0.3c-0.8-0.1-1.5-0.5-2-1.1l0,0c0.4-0.1,0.7-0.3,1.1-0.5C-509.6,823.5-508.6,823.9-508,823.4z
			 M-504.1,824.7h-0.1c0.1-0.1,0-0.2-0.1-0.2c-3.3-0.6-4.5-5-3.2-7.7c0,0,0,0,0,0.1c-0.3,2.8,0.8,6.3,4,6.7
			C-503.8,823.9-504,824.3-504.1,824.7z M-507.1,817.3c0.2,0.2,0.5,0.4,0.7,0.6c-0.8,1.9,0.3,4.1,2.4,4.5c0.1,0,0.1,0,0.2-0.1
			c0.1,0.3,0.2,0.6,0.4,0.9l0,0c0,0,0,0,0,0.1c0,0,0-0.1-0.1-0.1C-506.3,822.4-507,819.9-507.1,817.3z M-505.2,820.2
			c0.2,0.6,0.6,1.2,1.3,1.3c0,0.2,0,0.4,0.1,0.6l0,0c-1.7-0.8-2.5-2.3-2.2-4c0.3,0.2,0.6,0.4,1,0.5
			C-505.3,819.1-505.3,819.8-505.2,820.2z M-503.7,820.5L-503.7,820.5c-0.1,0.2-0.2,0.5-0.2,0.7c-0.4-0.3-0.7-0.7-0.9-1.2
			c-0.1-0.5,0-0.8,0.1-1.2c0.2,0.1,0.4,0.1,0.5,0.2C-504.2,819.6-504,820.2-503.7,820.5z M-503.6,819.2c0.4,0.1,0.7,0.1,1.1,0.2
			c-0.4,0.2-0.7,0.5-0.9,0.8C-503.7,819.9-503.7,819.6-503.6,819.2z M-500.6,818.7c-0.1,0-0.2,0-0.3,0.1c-1.2,0.2-2.5,0-3.6-0.4
			l-0.1-0.1c-0.4-0.2-0.8-0.4-1.2-0.7v-0.1c0.1-0.2-0.2-0.3-0.3-0.1l0,0c-0.3-0.3-0.7-0.5-1-0.8c0-0.1-0.1-0.1-0.1-0.1
			c-0.1-0.1-0.1-0.1-0.2-0.2c0-0.1-0.1-0.1-0.1-0.1c-0.2-0.3-0.5-0.6-0.7-0.9c0-0.1,0-0.1,0-0.2c0.3,0,0.7,0,1.1,0
			c2,4.1,8,4.7,10.3,0.4v-0.1c0.7,0.3,1.5,0.4,2.3,0.4c-0.1,0.9-0.9,1.4-1.7,1c0.2-0.2,0.3-0.4,0.5-0.6s-0.2-0.5-0.4-0.3
			c-1.2,1.5-2.8,2.4-4.4,2.8C-500.5,818.8-500.6,818.7-500.6,818.7z M-496.9,817.6c0.2-0.2,0.4-0.4,0.6-0.6c0.9,0.6,2.2-0.1,2.2-1.2
			c0.4,0,0.8-0.1,1.2-0.2C-493.3,817.4-495.4,817.6-496.9,817.6z M-492.7,815.4c0.2-0.1,0.4-0.2,0.5-0.2c0.2,3.2-3.4,3.6-5.8,3.1
			c0.2-0.2,0.5-0.3,0.7-0.5C-495.5,818-492.6,817.8-492.7,815.4z M-498.2,818.4C-498.2,818.5-498.1,818.5-498.2,818.4
			c1.6,0.6,3.5,0.8,5-0.2c1.1-0.7,1.7-2,1.4-3.3l0,0c0.3-0.2,0.6-0.4,0.8-0.6c0.9,2.1,0,4.3-2.1,5.3c-2,0.9-4.1,0.3-5.8-0.9
			C-498.6,818.7-498.4,818.6-498.2,818.4z M-491.2,813.9C-491.1,813.9-491.1,813.9-491.2,813.9c-1.8,1.9-5.2,2-7,0.1
			c-0.1-0.1-0.3,0-0.2,0.1c0,0.1,0.1,0.1,0.1,0.2c-0.1,0-0.2,0-0.2,0.1c-1.3,3-5.2,3.9-7,0.8l0,0c0.5,0.1,0.9,0.2,1.4,0.1
			c-0.1,0-0.1,0.2,0,0.2c1.7,1.2,4,0.5,4.7-1.4c0.7,0,1.3-0.2,1.9-0.4l0,0c1.8,1.2,4.4,0.9,5.7-0.8c1.1-1.4,1-3.5-0.4-4.7
			c0.1-0.5,0-1-0.3-1.5c2.5,1.1,3.4,4.1,1.9,6.5c-0.1,0.2-0.2,0.3-0.3,0.5C-491,813.5-491.3,813.7-491.2,813.9z M-491.3,806.7
			c0.1,0,0.2-0.1,0.2-0.2c0.1-1.1-0.7-2-1.8-2.1c-0.1-0.4-0.3-0.7-0.5-1.1c0.9-0.7,2.6,1,3,1.7c0.6,1,0.8,2,0.6,3.1
			c0,0.3,0.3,0.4,0.4,0.1c0.3-1.5-0.2-3.1-1.2-4.2c-0.6-0.6-2.2-1.8-2.9-0.9c-0.4-0.6-0.9-1.1-1.5-1.4c4.7-1.2,8.9,4.5,5.8,8.3
			C-489.5,808.7-490.2,807.5-491.3,806.7z M-493.2,805.5c-0.2-0.2-0.4-0.3-0.7-0.5c0-2.7-4.9-3.5-6.6-1.7c0,0,0,0-0.1,0
			c-0.2,0-0.3,0.1-0.5,0.1C-498.7,800.2-493.5,801.3-493.2,805.5z M-497.3,799.2c0-0.1,0-0.1,0-0.2c0.7,0.3,1.2,0.8,1.6,1.4
			c-0.2,0-0.4,0.1-0.6,0.1C-496.5,800.1-496.9,799.6-497.3,799.2z M-497.4,798.8c0-0.2-0.1-0.4-0.1-0.5c0.6,0.2,1.1,0.4,1.6,0.8
			c0.5,0.4,0.9,0.9,1.4,1.3c-0.3,0-0.6,0-0.9,0.1v-0.1C-495.8,799.5-496.5,799-497.4,798.8z M-514.2,799.5
			C-514.2,799.6-514.2,799.6-514.2,799.5C-514.2,799.6-514.2,799.6-514.2,799.5c-0.8-0.7-2.2-0.3-2.5,0.7c0,0,0,0-0.1-0.1
			c-0.1-0.1-0.3,0-0.2,0.1c0.1,0.1,0.1,0.2,0.2,0.2c0,0.1,0,0.1,0,0.2c-0.2-0.1-0.5-0.3-0.8-0.4c0.4-1.2,1.6-1.9,2.8-1.5
			C-514.7,799.1-514.5,799.3-514.2,799.5z M-517.9,800.3c-0.2,0-0.4-0.1-0.6-0.1c0-0.1,0-0.1,0-0.2c0.1-0.5,0.2-1,0.6-1.4
			c0.6-0.7,1.5-0.9,2.4-0.9c0.1,0.2,0.1,0.3,0.2,0.5C-516.4,798.2-517.7,799.1-517.9,800.3z M-517.8,798c-0.3,0.3-0.6,0.6-0.8,1
			c-0.1,0.1-0.2,0.8-0.3,1.1c-0.1,0-0.2,0-0.2,0.1c-0.1,0.1-0.1,0.2-0.1,0.2c-0.3,0-0.5,0-0.8,0c0.3-1.1,0.3-2,1.1-2.9
			c0.8-0.9,1.9-1.2,3.1-1.1c0,0.3,0.1,0.7,0.2,1C-516.3,797.2-517.2,797.5-517.8,798z M-521,797.9c0,0-0.1-0.1-0.2-0.1
			c-0.5,0-0.9,0.1-1.2,0.3c0.5-0.3,1.1-0.6,1.7-0.8C-520.9,797.5-521,797.7-521,797.9z M-522.1,806.8c0,0.1,0,0.2,0.1,0.3h-0.1
			c-0.6,0.4-0.6,1.5-0.5,2.1c0.2,0.8,0.7,1.8,1.5,2.2c0.2,0.1,0.4-0.1,0.2-0.3c-0.5-0.5-0.9-0.9-1.2-1.6c-0.1-0.3-0.2-0.6-0.2-0.9
			c0-0.2,0-0.4,0-0.6s0.1-0.4,0.3-0.6l0,0c0.1,0.4,0.3,0.9,0.6,1.2c-0.2,0.7,0,1.5,0.6,1.9l0,0c-0.1,0.3-0.2,0.6-0.2,0.9
			c-0.8-0.4-1.4-0.8-1.9-1.6c-0.4-0.6-0.9-2.7,0.1-3.1c0.2,0.1,0.4,0.1,0.6,0.2C-522.2,806.9-522.1,806.9-522.1,806.8z
			 M-523.7,809.2c0.3,1.2,1.3,2.5,2.6,2.6c0,0.3-0.1,0.5-0.1,0.8c-1.1-0.6-2-1-2.7-2.1c-0.9-1.4-0.8-3-0.1-4.5
			c0.3,0.2,0.6,0.4,0.9,0.5C-523.8,807.1-523.9,808.5-523.7,809.2z M-524.2,812.6c-1.5,1.2-3.5,1.3-5,0.2c0.1-0.1,0.3-0.2,0.4-0.3
			c1.2,0.9,3,0.3,3.8-0.9C-524.8,811.9-524.5,812.3-524.2,812.6z M-529.4,812.9c1.5,1.5,4.1,1.5,5.5-0.1c0.4,0.4,0.9,0.7,1.5,0.9
			c-0.1,0.1-0.2,0.1-0.3,0.2c-0.1,0-0.1,0-0.2,0.1c-2,1.1-4.1,1.2-5.9,0.1c0-0.1-0.1-0.1-0.2-0.1c-0.4-0.2-0.7-0.5-1.1-0.8
			C-529.8,813.1-529.6,813-529.4,812.9z M-526.8,818.2c0-0.1,0-0.1,0.1-0.1c0.4,0.5,1.2,0.6,1.5,0.1c0.3,0.2,0.5,0.4,0.8,0.6
			c0,0,0,0,0.1,0c-0.4,0.2-0.9,0.4-1.3,0.4c-0.2,0-0.4-0.1-0.6,0c-0.1,0-0.3-0.1-0.4-0.1C-526.9,818.8-526.9,818.5-526.8,818.2z
			 M-524.2,818.9c0.3,0.2,0.7,0.4,1,0.5c-0.5,0.2-0.9,0.4-1.4,0.3c-0.1-0.1-0.3-0.2-0.4-0.2C-524.7,819.4-524.4,819.2-524.2,818.9z
			 M-523.8,818.6c-0.9-0.5-2.5-1.7-2.8-2.9v-0.1c0-0.1,0-0.2,0-0.2c0.3,0,0.5,0.1,0.8,0.1c0.1,2,4.5,3.6,5.9,3
			c0.1,0.2,0.3,0.4,0.5,0.6C-520.9,819.5-522.4,819.4-523.8,818.6z M-521.8,819.8c0.3,0,0.7,0.1,1,0c-0.1,0.5-0.2,1-0.7,1.4
			c-0.6,0.5-1.3,0.7-2.1,0.5c0-0.2,0-0.4-0.1-0.6C-522.7,821.3-521.9,820.7-521.8,819.8z M-523.5,822.3c0-0.1,0-0.1,0-0.2
			c0.5,0.2,1.1,0.1,1.6-0.1c1,1.1,3.3,1.6,4.3,0.4c0.1-0.1,0-0.4-0.2-0.3c-0.7,0.3-1.2,0.6-1.9,0.6c-0.7,0-1.4-0.3-2-0.7
			c0.1-0.1,0.3-0.1,0.4-0.2c0.1-0.1,0.3-0.2,0.4-0.4c0.7,0.5,1.8,0.8,2.5,0.2c0,0,0.1-0.1,0-0.2c0.5,0.6,1,1.1,1.7,1.5l-0.1,0.1
			c0,1.1-2.9,1.2-3.6,1.1C-521,824-523.5,823.4-523.5,822.3z M-521.9,824.2c-0.2,0.2-0.4,0.4-0.7,0.5c-0.2,0.1-0.4,0.1-0.6,0
			c-0.3-0.1-0.3-0.2-0.4-0.5c0,0,0-0.1-0.1-0.1c0.1-0.3,0.2-0.6,0.2-1C-523.1,823.6-522.5,823.9-521.9,824.2z M-518.5,820.1
			c0-0.1,0.1-0.1,0.1-0.2c0-0.1-0.2-0.2-0.3-0.1c-0.1-0.1-0.1-0.2-0.2-0.4h0.1c0.3,0.2,0.7,0.3,1.1,0.3c1.6,3.1,5.8,3.5,8.2,1.1
			c0.1-0.1,0.1-0.1,0.1-0.2c0.1,0,0.1,0,0.2,0c0,0,0,0,0.1,0c0.1,0.4,0.2,0.8,0.4,1.2c-0.1-0.1-0.3-0.1-0.4,0
			C-512.5,824.3-516.5,823.3-518.5,820.1z M-514.1,823.6c-0.1,0.8-0.7,1.5-1.6,1.6c0.2-0.6,0.4-1.2,0.4-1.8
			C-514.8,823.5-514.5,823.6-514.1,823.6z M-513.9,824.5c0.1,0.3,0.2,0.6,0.3,0.8c0-0.1-0.1-0.1-0.2,0c-0.5,0.4-0.8,0.9-1.4,1.1
			c-0.4,0.2-0.9,0.2-1.3,0.2c0.3-0.3,0.5-0.7,0.7-1.1C-515,825.6-514.2,825.2-513.9,824.5z M-513.5,825.5
			C-513.5,825.4-513.5,825.4-513.5,825.5c0.2,0.3,0.4,0.6,0.7,0.8c-0.7,0.6-1.1,1.2-2.1,1.5c-0.9,0.3-1.9,0.2-2.7-0.2
			c0.3-0.2,0.6-0.5,0.9-0.8C-515.5,827.2-513.8,826.7-513.5,825.5z M-512.5,826.5c0.4,0.3,0.8,0.5,1.2,0.7c0,0-0.1,0-0.1,0.1
			c-0.6,1.2-1.7,2-3,2.3c-1.1,0.2-4,0.2-4.8-1c0.4-0.2,0.9-0.4,1.3-0.6C-516.4,828.8-513.1,828.5-512.5,826.5z M-514,831.1
			c0.2,0.2,0.5,0.4,0.8,0.3c0,0.2,0.1,0.5,0.2,0.7c-0.1,0-0.3,0-0.4,0c-0.3,0-0.7-0.2-1-0.4c-0.6-0.4-0.9-0.9-1.1-1.5l0,0
			c0.4,0,0.7,0,1.1-0.1C-514.5,830.5-514.3,830.8-514,831.1z M-513.2,831c-0.2,0-0.3,0-0.5-0.1c-0.3-0.2-0.4-0.5-0.4-0.8
			c0.5-0.1,1-0.3,1.4-0.6C-513,829.9-513.2,830.5-513.2,831z M-515.9,830.2c0.1,0.8,0.5,1.4,1.1,1.9c0.5,0.3,1.3,0.7,2,0.5l0,0
			c0.1,0.1,0.2,0.2,0.3,0.3c-2.1,0.5-4.2-0.6-4.6-2.8C-516.6,830.2-516.2,830.2-515.9,830.2z M-511.7,829.1
			C-511.7,829-511.7,829-511.7,829.1c1-0.4,2-0.5,2.8,0.4c0.1,0.2,0.2,0.4,0.3,0.6c-0.1,0-0.2,0.2,0,0.2h0.1c0.2,0.8,0,1.8-0.7,2.4
			c-0.9,0.8-2.5,0.6-3.2-0.5C-513,831.1-512.6,829.8-511.7,829.1z M-507.8,830.8c0-0.2,0-0.3,0-0.5c1.4-0.1,2.9-1.1,2.8-2.5
			c0.4-0.1,0.8-0.2,1.1-0.3c0.1,0.1,0.1,0.3,0.2,0.4l-0.1,0.1c-0.3,1.2-1.2,2.2-2.3,2.6c-0.1,0-0.2,0-0.2,0.1
			C-506.7,830.8-507.2,830.9-507.8,830.8z M-503.3,828.4c0.3,0.4,0.7,0.8,1.2,1.1c-0.1,0-0.1,0.1-0.1,0.2c0,0.8-0.7,1.5-1.5,1.6
			c0-0.3-0.1-0.5-0.1-0.8c0.7,0,1.4-0.6,1.1-1.4c-0.1-0.2-0.3-0.2-0.3,0c0,0.5-0.3,1-0.9,1c0-0.1,0-0.2-0.1-0.2l-0.1-0.1
			C-503.7,829.5-503.4,829-503.3,828.4z M-501.8,829.8c0.1,0,0.2,0.1,0.3,0.1c0.2,0.1,0.3,0.1,0.5,0.2h-0.1
			c-0.2,0.2-0.2,0.5-0.3,0.8c-0.2,0.3-0.4,0.6-0.7,0.8c-0.5,0.4-1,0.5-1.6,0.5c0-0.2,0-0.4,0-0.6
			C-502.7,831.5-501.9,830.8-501.8,829.8z M-503.8,832.5c0.6,0.2,1.3,0,1.9-0.4c0.5-0.4,1.3-1.2,1.1-1.9l0,0c0.3,0.1,0.6,0.2,1,0.2
			c-0.4,0.8-0.8,1.6-1.6,2.1c-0.8,0.5-1.6,0.6-2.5,0.7C-503.9,832.9-503.8,832.7-503.8,832.5z M-500.4,827.6c-1.3-0.7-2-2-2.1-3.5
			c0.2,0.1,0.4,0.2,0.6,0.2l0,0c0.1,1.2,0.9,2.3,2.1,2.5c1.1,0.2,2.4-0.5,2.7-1.6h0.1l0,0c0.4,0.4,0.8,0.7,1.3,0.9
			C-496.6,827.9-498.7,828.4-500.4,827.6z M-497.5,824.8c-0.2,0-0.5,0-0.7-0.1c-0.2-0.1-0.4-0.2-0.6-0.4l-0.1-0.1l0,0
			c0-0.1-0.1-0.1-0.1-0.1c-0.1-0.1-0.1-0.3-0.1-0.5c0.1,0.1,0.2,0,0.1-0.1l0,0c0.8-0.9,0.9-2.3,0.3-3.4c0.6,0.4,1.3,0.8,2,1
			c0,0,0,0.1,0.1,0.1c0.8,0.7,1.4,1.9,0.5,2.9C-496.5,824.5-497,824.8-497.5,824.8z M-495.8,824.5c0.5,0.6,2.3,0.3,2.8,0
			c1.3-0.6,1.9-2.1,1.7-3.5c0-0.1,0-0.1-0.1-0.1c0.3-0.2,0.7-0.4,1-0.7c0.3,1.8,0.1,3.9-1.7,4.8c-1.4,0.6-2.6-0.2-4-0.2
			C-496,824.7-495.9,824.6-495.8,824.5z M-494,821.6c0.3,0,0.6-0.1,1-0.1c0,0,0,0,0,0.1c0,1.1-1.1,2-2.2,1.8c0-0.2,0-0.5,0-0.7
			c0.6,0.1,1.2-0.2,1.4-0.8C-493.8,821.7-493.9,821.6-494,821.6z M-492.8,821.4c0.4-0.1,0.7-0.2,1-0.4c0,0,0,0,0,0.1
			c0.2,1.1-0.2,2.2-1.2,2.8c-0.4,0.3-0.8,0.4-1.3,0.5c-0.1,0-1,0-1.4-0.1c0.2-0.2,0.3-0.5,0.3-0.7c1.2,0.4,2.7-0.7,2.6-2
			C-492.7,821.5-492.7,821.4-492.8,821.4z M-494.2,821.7c-0.2,0.5-0.7,0.7-1.2,0.6c-0.1-0.3-0.2-0.6-0.5-0.9
			c0.6,0.1,1.2,0.2,1.8,0.2C-494.1,821.6-494.1,821.6-494.2,821.7z M-491.2,820.2c-2.8,1.8-6,0.8-8.4-1.1c0.2-0.1,0.4-0.1,0.5-0.2
			l0,0c2,1.7,4.8,2.4,7.1,0.8c1.9-1.3,2.5-3.7,1.4-5.6c0.1-0.1,0.3-0.3,0.4-0.4c0.3-0.4,0.4-0.7,0.6-1.1h0.1c0,0,0,0,0.1,0
			C-488.3,815.1-488.6,818.5-491.2,820.2z M-489.7,801.8c-0.4-0.3-0.9-0.6-1.4-0.8c0,0,0,0,0-0.1c-0.1-1.1-0.6-2-1.2-2.8
			C-491.4,799.2-490.5,800.4-489.7,801.8z M-492.9,797.4c-1.5-1.4-3.6-2.1-5.7-1.7c-1.1-1.4-2.8-2.3-4.6-2.4c0-0.1,0.1-0.1,0-0.2
			c-0.4-0.8-1.1-1.3-1.8-1.8C-500.4,792-496.2,793.9-492.9,797.4z M-508.8,791.2c0.3,0,0.6,0,0.9,0c1.7,0.1,3.4,0.7,4.2,2.2
			c-0.5,0-1.1,0.1-1.6,0.2c-3-4.4-10.5-0.8-10,3.2c-0.3-2.2,0.9-4.4,3.4-5.1C-510.9,791.4-509.8,791.2-508.8,791.2z M-520,793
			c1.7-0.5,3.3-0.3,5,0.2c0.3,0.1,0.5-0.4,0.1-0.5c-0.6-0.2-1.3-0.3-1.9-0.4c1.4-0.3,2.8-0.6,4.2-0.8c-0.2,0.1-0.4,0.2-0.5,0.3
			c-1.1,0.6-1.9,1.6-2.3,2.7c-0.2,0-0.5,0-0.7,0c0,0,0-0.1-0.1-0.1c-1.4-1.2-3.6-1.1-5.2-0.5c-0.8,0.3-2.9,1.5-2.3,2.7
			c-0.2,0.1-0.4,0.3-0.6,0.4C-524.4,794.8-521.7,793.4-520,793z M-526.3,800.6c-0.6-0.7-0.9-1.5-0.8-2.5c0.1-0.6,0.3-1.1,0.7-1.5
			c0.1-0.1,1.5-1.4,1.7-0.7l0,0c0,0.1-0.1,0.2-0.1,0.3c-0.8,0.1-1.6,1.3-0.9,1.9l0,0c-0.3,0.5-0.6,1.1-0.7,1.8
			C-526.3,800.2-526.3,800.4-526.3,800.6z M-524.6,797.1c-0.2,0.2-0.4,0.5-0.6,0.7c0-0.2-0.1-0.4,0-0.7c0.1-0.3,0.3-0.5,0.6-0.6
			C-524.7,796.7-524.7,796.9-524.6,797.1C-524.7,797.1-524.7,797.1-524.6,797.1z M-525.8,800.6c0.2-3,2.9-4.7,5.7-4.4
			c0.2,0,0.3-0.4,0.1-0.4c-0.3-0.1-0.6-0.1-0.9-0.1c0.4-0.7,1.3-0.8,1.8-0.2c-0.5,0.4-1,0.9-1.4,1.4c0-0.1-0.1-0.1-0.2-0.1
			c-4.4,0.8-6.3,7.3-1.5,9h0.1c0,0.3,0,0.6,0,0.9l0,0c-0.1-0.1-0.2-0.1-0.3-0.2l0,0C-524.5,805.3-526,803.1-525.8,800.6z
			 M-526.4,803.9c0.2,0.1,0.4,0.2,0.6,0.3c-0.1,0.3-0.1,0.6-0.1,0.9c0.1,0.3,0.3,0.7,0.6,0.9c-0.1,0.2-0.3,0.5-0.4,0.7
			c-0.3-0.4-0.7-0.7-0.8-1.3C-526.6,804.9-526.5,804.4-526.4,803.9z M-526.6,803.8c-0.6,0.9-0.3,2.8,0.8,3.2h0.1
			c-0.1,0.2-0.1,0.5-0.2,0.7c-1.4-1.1-1.9-2.7-1.3-4.3C-527,803.5-526.8,803.6-526.6,803.8z M-527.4,803.1c-0.9,1.7-0.4,4.1,1.4,5
			l0,0c0,0.3,0,0.6,0,0.8c-1.2-0.1-2.3-1.8-2.6-2.8c-0.2-0.9-0.2-3,0.7-3.7C-527.7,802.7-527.5,802.9-527.4,803.1z M-527.9,802.2
			c-0.5,0.2-0.7,0.8-0.9,1.3c-0.4,1-0.4,2.1,0,3.1c0.3,0.9,1.8,2.9,3,2.9c0,0.2,0.1,0.4,0.1,0.5c-0.1,0-0.1,0-0.2-0.1
			c0,0-0.1-0.1-0.1,0c-1.5-0.4-2.8-1.3-3.3-2.9c-0.3-0.9-0.3-2-0.1-2.9c0.1-0.6,0.3-1.1,0.6-1.6c0.1-0.4,0.4-0.7,0.8-0.9
			C-528.1,801.8-528,802-527.9,802.2z M-528.7,800c0.1,0,0.2-0.2,0.2-0.3c0,0.4,0.1,0.8,0.2,1.2c-0.3,0-0.5,0.2-0.7,0.6
			c0-0.1-0.1-0.1-0.2-0.1c-3.5,0.6-4.7,4.5-4,7.6c0-0.1-0.1-0.1-0.1-0.1C-534.6,805.1-532.8,801.2-528.7,800z M-532.1,817.7
			c-1.4-0.4-2-2.1-2.3-3.4c-0.4-1.8-0.2-3.2,0.9-4.6c0,0.1,0.1,0.2,0.1,0.2l0.1,0.1c-0.1,0.2-0.1,0.4-0.1,0.6
			c-1.3,2.1-1,4.9,0.9,6.6c0.2,0.1,0.4-0.1,0.2-0.2c-1.4-1.4-1.8-3.6-1.1-5.4c0.1,0.4,0.3,0.8,0.6,1c-0.8,0.9-0.2,2.5,0.7,3.1
			c0.2,0.1,0.3-0.1,0.2-0.3c-0.5-0.3-0.7-0.9-0.8-1.5c0-0.4,0.1-0.8,0.3-1.1c0.1,0.1,0.3,0.2,0.5,0.2c-0.4,0.5-0.2,1.5,0.4,1.7l0,0
			C-532,815.7-532.2,816.6-532.1,817.7z M-531.6,817.4c0-1.5,0.5-2.9,1.4-4.1c0.3,0.3,0.6,0.6,0.9,0.9c-2.2,1.9-2.2,5.3-0.3,7.4
			C-531,821.1-531.6,818.6-531.6,817.4z M-530.4,824.1c-0.4-0.4-0.8-0.9-0.9-1.4c-0.1-0.2-0.3-2,0.1-2.1c0.2,0.4,0.5,0.7,0.8,0.9
			c0,0,0,0-0.1,0.1c-0.3,0.8,0.4,1.9,1.3,1.7c0.2,0.7,0.7,1.2,1.3,1.5C-528.7,824.8-529.6,824.8-530.4,824.1z M-525.2,823.9
			c-1.2,0.7-2.8,0.8-3.4-0.6c-0.3-0.6-0.2-1.2-0.1-1.8c0.2-0.6,0.8-1.9,1.6-1.8h0.1c1-0.1,2.1,0.1,2.7,1.1c0,0-0.1,0.1,0,0.2h0.1
			C-523.7,822.1-524.2,823.4-525.2,823.9z M-524.2,820.1c0.5,0,1-0.1,1.3-0.4v-0.1c0.2,0.1,0.5,0.1,0.7,0.2l0,0
			c0,0.7-0.8,1.2-1.4,1.2C-523.8,820.6-524,820.3-524.2,820.1z M-523.8,824.6c0,0.1,0.1,0.3,0.3,0.4c0.3,0.2,0.6,0.2,0.9,0.2
			c0.5-0.1,1-0.3,1.1-0.8c0.3,0.1,0.6,0.2,0.8,0.2c0.1,0,0.2,0,0.4,0.1c-0.5,0.6-1,1-1.8,1.3c-0.4,0.1-2.1,0.3-2.3-0.4
			C-524.2,825.2-524,824.9-523.8,824.6z M-524.8,825.7c0.3,0.7,1.6,0.8,2.2,0.7c1.1-0.1,2.2-0.7,2.7-1.7v-0.1c0.5,0,1.1,0,1.7-0.1
			c-0.5,1.3-1.6,2-2.9,2.4c-1.1,0.3-3.5,0.4-4.2-0.8C-525.2,826-525,825.9-524.8,825.7z M-525.7,826.2c1.1,2.8,8.1,1.3,7.9-1.8
			c0.8-0.2,1.4-0.6,1.6-1.3V823c0.2,0.1,0.4,0.2,0.6,0.3c0,0,0,0,0,0.1c-0.5,2.2-1.6,4-3.9,4.7c-2.1,0.7-5.4,0.4-6.6-1.7
			C-526,826.3-525.8,826.3-525.7,826.2z M-519.5,831.1C-519.4,831.1-519.4,831.1-519.5,831.1c0.2,0.2,0.4,0.4,0.6,0.7
			c-0.9-0.1-1.7-0.1-2.6-0.6c-1.1-0.6-1.9-1.5-2.3-2.7c0.5,0.2,1,0.3,1.5,0.3l0,0C-522.2,830.3-520.9,831.3-519.5,831.1z
			 M-519.6,830.2c0,0.2,0.1,0.3,0.1,0.5l0,0c-1.2,0.1-2.3-0.6-2.6-1.8c0.3,0,0.7,0,1,0C-521.1,829.6-520.4,830.5-519.6,830.2z
			 M-520.9,828.9c0.3,0,0.6-0.1,0.8-0.1c0.2,0,0.4-0.1,0.6-0.2c0,0.1,0,0.1,0.1,0.2c-0.2,0.4-0.3,0.7-0.2,1.1c-0.2,0-0.5,0-0.7-0.2
			C-520.7,829.5-520.9,829.2-520.9,828.9z M-528.9,826.5c0.8,0.2,1.6,0.2,2.4,0c0.2,0.6,0.6,1,1.1,1.3c-0.4,1.3-0.1,2.3,0.7,3.1
			C-526.5,829.8-528,828.3-528.9,826.5z M-525.2,828c0.3,0.2,0.7,0.4,1.1,0.6v0.1c0.3,1.3,1.1,2.3,2.2,3c0.9,0.5,2.3,1.1,3.3,0.6
			c0.3,0.4,0.7,0.7,1.1,1C-520.4,833-525.7,831.6-525.2,828z M-515.6,833.5c-1.7-0.6-4-2.3-3.6-4.4c0.4,0.5,1.1,0.8,1.9,0.9
			c0.1,2.6,2.8,4.4,5.3,3.2l0,0c0.1,0.1,0.3,0.2,0.4,0.2C-512.9,833.9-514.3,833.9-515.6,833.5z M-512.8,834.3
			c0.3,0,0.6-0.1,0.9-0.2c-0.1,0.2,0,0.4,0.2,0.6c0.3,0.3,0.9,0.4,1.3,0.4c0.1,0,0.2,0,0.3,0s0.1,0,0.2,0.1c0.6,0.1,1.3-0.3,1.8-0.7
			c0.9-0.7,1.6-2,1.3-3.2c0.2,0,0.5,0,0.7-0.1c0.4,1.7-0.3,3.3-2,4C-509.5,835.6-512,835.7-512.8,834.3z M-506.7,835.5
			c-0.6,0.3-1.4,0.4-2.2,0.4c0.4-0.1,0.7-0.2,1-0.3c1.7-0.7,3.2-2.8,2.2-4.6c0.5-0.2,1-0.5,1.4-0.8c0.1,0.4,0.2,0.7,0.2,1.1l0,0
			c-0.2,0-0.2,0.2-0.1,0.2h0.1C-504.2,833.2-505.1,834.7-506.7,835.5z M-504.4,834.1c0.1-0.2,0.2-0.4,0.3-0.6c1.9,0.6,4.3-1.2,4.6-3
			v-0.1c0.8,0,1.6-0.1,2.3-0.3c0,0.1,0,0.1,0,0.2c0,0.3-0.1,0.5-0.3,0.7c-0.3,0.4-0.8,0.7-1.3,0.7c0.1-0.3,0.2-0.7,0.2-1.1
			c0-0.2-0.3-0.2-0.4-0.1C-499.9,832.9-501.6,834.5-504.4,834.1z M-494,828.1c0.3,3.4-2.6,5.8-5.9,5.2c0.1-0.1,0.1-0.1,0.2-0.2
			c1.1,0.3,2.3,0.1,3.2-0.6c0.8-0.7,1.6-2.1,1.2-3.2c0-0.1-0.1-0.1-0.1-0.1c0.6-0.4,1.1-0.9,1.5-1.4c0,0,0,0,0.1,0.1
			C-493.9,827.9-494,827.9-494,828.1z M-489.4,826.7c0.2,0.1,0.1,0.3,0.1,0.6l0,0c-1.3,1.1-3.1,1.4-4.4,0.3c0.1-0.1,0.2-0.3,0.3-0.5
			l0,0C-492.4,828-490,828.2-489.4,826.7z M-489.3,824c-0.7,1.2-1.6,2.1-3,2.5c-1.1,0.4-2,0.1-2.9-0.3c0-0.1,0.1-0.1,0.1-0.2
			c0.1-0.3-0.3-0.4-0.4-0.1v0.1c-0.4-0.2-0.8-0.5-1.2-0.7c0.1,0,0.2-0.1,0.3-0.2c1.4,0.9,3.8,1.1,5.1,0c1.5-1.2,1.7-3.3,1.3-5.1
			c0-0.1-0.1-0.1-0.1-0.1c0.6-0.6,1-1.3,1.3-2C-488,819.9-488.2,822.1-489.3,824z M-489,812.4c0.3-0.1,0.5-0.2,0.7-0.4
			c0.5,0.8,0.5,1.7,0.1,2.5c-0.1,0.1,0.1,0.2,0.2,0.1c0.6-0.9,0.6-2,0-2.9c0.1-0.1,0.2-0.2,0.3-0.4c0.6,1.4,0.3,2.9-0.6,4.1
			C-488.3,814.5-488.6,813.4-489,812.4z M-486.5,814.3c-0.4,1.2-1.2,1.7-2,2.6c0.1-0.3,0.1-0.7,0.1-1c0,0,0,0,0.1,0
			c1.4-1.1,1.8-3.2,0.9-4.7c0.1-0.1,0.2-0.3,0.2-0.4C-486.4,811.8-486.1,813-486.5,814.3z"/>
		<path class="st0" d="M-526.3,821.5c-0.1,0.1-0.3,0.2-0.4,0.2c0-0.2,0.1-0.3,0.2-0.4c0.1,0,0-0.2-0.1-0.2c-0.3,0.1-0.5,0.4-0.4,0.8
			l0.1,0.1c0.4,0.1,0.7-0.1,0.8-0.4C-526.1,821.5-526.2,821.4-526.3,821.5z"/>
		<path class="st0" d="M-526.2,820.8c-0.1,0-0.1,0.2,0,0.1c0.5-0.1,0.6,0.3,0.7,0.6c0,0.1,0.2,0.1,0.2,0
			C-525.1,821-525.8,820.7-526.2,820.8z"/>
		<path class="st0" d="M-527.7,821c0,0.2-0.1,0.3-0.4,0.3c0-0.2-0.2-0.2-0.3,0c0,0.2,0.1,0.4,0.3,0.4c0.3,0,0.5-0.3,0.5-0.6
			C-527.5,821-527.7,820.9-527.7,821z"/>
		<path class="st0" d="M-527.4,822.9c-0.1,0,0,0.2,0.1,0.2c0.3-0.1,0.5,0.2,0.5,0.4c0,0.1,0.2,0.2,0.2,0.1
			C-526.4,823.1-527,822.7-527.4,822.9z"/>
		<path class="st0" d="M-510.9,829.8c-0.2,0.2-0.5,0.3-0.6-0.1c0-0.2-0.3-0.1-0.3,0c0,0.6,1.1,0.8,1.1,0.2
			C-510.6,829.7-510.8,829.7-510.9,829.8z"/>
		<path class="st0" d="M-510.4,829.2c-0.2-0.1-0.5,0-0.6,0.2c-0.1,0.1,0.1,0.2,0.2,0.1c0.3,0,0.5,0.1,0.5,0.3c0,0.1,0,0.2,0.1,0.3
			c0,0.1,0.2,0.1,0.2,0C-510,829.7-510,829.3-510.4,829.2z"/>
		<path class="st0" d="M-510.4,831.9c-0.1,0-0.2,0.1-0.3,0.1c-0.3-0.1-0.4-0.1-0.2-0.2c0.1,0,0.1-0.1,0.1-0.2
			c-0.3-0.2-0.6,0.1-0.5,0.4c0.1,0.6,0.8,0.4,1.1,0.1C-510.2,832.1-510.3,831.9-510.4,831.9z"/>
		<path class="st0" d="M-509.7,831.3c-0.1,0-0.1,0.1-0.1,0.1c0.1,0.3,0,0.4-0.2,0.5c-0.1,0-0.1,0.2,0,0.2
			C-509.4,832.3-509.3,831.6-509.7,831.3z"/>
		<path class="st0" d="M-517.1,791.7c-0.1,0.1-0.1,0.2-0.2,0.3l0,0C-517.2,791.9-517.1,791.8-517.1,791.7L-517.1,791.7z"/>
		<path class="st0" d="M-517.2,792.1C-517.2,792.1-517.2,792-517.2,792.1"/>
	</g>
</g>
</svg>
