<?xml version="1.0" encoding="utf-8"?>
<!-- Generator: Adobe Illustrator 19.0.0, SVG Export Plug-In . SVG Version: 6.00 Build 0)  -->
<svg version="1.1" id="Capa_2" xmlns="http://www.w3.org/2000/svg" xmlns:xlink="http://www.w3.org/1999/xlink" x="0px" y="0px"
	 viewBox="-269 392.3 56.6 56.6" style="enable-background:new -269 392.3 56.6 56.6;" xml:space="preserve">
<style type="text/css">
	.st0{fill:#FFFFFF;}
</style>
<g>
	<path class="st0" d="M-232.4,442.7C-232.4,442.7-232.5,442.7-232.4,442.7C-232.5,442.6-232.5,442.6-232.4,442.7
		c0.2-0.2,0.1-0.6-0.2-0.5c-2,0.5-4.2,0.4-5.4-1.6c-1.1-1.8-1-4.4-0.9-6.5c7.7-0.8,13.8-8.3,12.1-16.1c0-0.1-0.1-0.1-0.1-0.2
		c-0.2-0.9-0.9-1.9-1.9-2.1c1.1-1.3-0.1-3.2-1.6-3.4c0.6-1,0-2.3-1.2-2.3c2.9-1.8,5.5-3.9,7.9-6.3c0.1,0,0.1,0,0.2-0.1
		c0.6-0.3,0.7-0.9,0.4-1.5c-0.3-0.6-1.2-1-1.8-0.9c-0.1,0-0.1,0-0.1,0.1c-0.1-0.1-0.2-0.1-0.3,0c-2.7,2.7-5.3,5.3-8.2,7.6
		c0.3-0.5,0.3-1.1,0.2-1.5c-0.2-0.7-0.7-1.3-1.3-1.8c-0.8-0.7-1.7-1.3-2.6-1.9c1.1-1.2,1.7-2.9,1.1-4.6c-0.5-1.5-2.4-2.6-3.6-1.2
		c-0.4,0.4-0.5,1-0.7,1.5c-0.4,1-0.8,1.7-1.7,2.4c-0.9,0.7-2,1.3-2.3,2.5c-0.1,0.4,0,0.8,0.1,1.2c-2.5-0.3-4,1.9-3.8,4.2
		c-0.9-0.6-2.2-0.8-3.1,0c-0.9,0.8-0.9,2.1,0,2.9c0,0,0,0,0.1,0c-0.1,0-0.1,0.1-0.2,0.2c-1-0.8-2.6-0.8-3.3,0.3
		c-0.7,1.1,0.1,2.7,1.4,2.7c0.1,0,0.2-0.2,0.1-0.2c-1.2-0.3-1.7-2.1-0.4-2.7c0.7-0.3,1.5,0,2.1,0.5c0.1,0.1,0.3,0,0.4-0.1
		c1-1.1,2.2-0.5,2.7,0.7c0,0.1,0.1,0.1,0.2,0.1c0,0,0,0,0,0c0,0.2,0.3,0.2,0.3,0c0.1-0.7,0.4-1.2,1.1-1.2c1.1-0.6,1.5,0.1,1.3,2.1
		c-0.1,0.2,0,0.4,0.2,0.5c0.9,0,1.5,0.5,1.7,1.5c0,0.2,0.1,0.3,0.3,0.3c1.3,0,1.7,2.2-0.2,2.1c-0.2-0.7-0.6-1.5-1-2c0,0,0-0.1,0-0.1
		c0-0.3-0.4-0.4-0.5-0.1c-0.3,1.5-0.9,1.6-2.1,0.2c0-0.3-0.5-0.4-0.5-0.1c0,1.9-2.9,2.2-2.9,0c0-0.2-0.2-0.4-0.4-0.2
		c-1-0.7-1.3-1.3-1-1.8c0,0,0,0,0,0c0,0,0,0,0-0.1c0.1-0.1,0.2-0.2,0.4-0.3c0.1-0.1,0-0.2-0.1-0.2c-0.1,0.1-0.2,0.1-0.4,0.2
		c0,0-0.1-0.1-0.2,0c-1,0.3-1.6,1.2-1.8,2.3c-0.5-0.1-1,0.1-1.4,0.3c-0.3,0.2-0.5,0.5-0.6,0.9c0-0.2-0.3-0.2-0.3,0
		c-1.4,7.6,5.5,13.9,12.6,15.4c-0.3,1.5,0.3,3.1,0,4.6c-0.5,2.8-2.3,4-4.8,4.5c0,0,0-0.1-0.1-0.1c-1.5,0.3-3.3,1.2-2.2,3
		c1.2,2,5.6,2.1,7.6,2.2C-241.4,448-229.1,446.5-232.4,442.7z M-228.9,418.3c-0.2,0.5-0.9,1-1.2,1.2c-0.4,0.3-1.1,0.4-1.6,0.6
		c-0.7,0.2-1.5,0.4-2.2,0.6c0.4-2.4-0.3-4.9-2-6.5C-232.4,412.8-229.7,414.9-228.9,418.3z M-234.5,418.4c-0.1,0-0.2,0-0.3,0.1
		c-0.8,1.2-1.9-1.3-2.2-1.7c-0.4-0.4-0.7-0.6-1.3-0.7c-0.5-0.1-1,0-1.5,0.1c-1.6,0.1-2.3-1.1-1.9-2.4c0.3-0.2,0.6-0.3,0.8-0.3
		c0.5-0.1,1.1-0.1,1.6-0.1c1.2,0.1,2.4,0.7,3.3,1.6C-235.2,416-234.7,417.1-234.5,418.4z M-225.2,401.4c0,0,0.1,0.1,0.1,0.1
		c0.4,0.2,0.9,0.2,1.3,0.6c0.1,0.2,0.2,0.4,0.2,0.6c0,0-0.1,0-0.1,0c-0.1,0.1-0.2,0.2-0.3,0.3c-0.7,0.1-1.2-0.7-1.2-1.4
		C-225.3,401.6-225.2,401.5-225.2,401.4z M-225.6,402.1c0,0.3,0.1,0.6,0.4,0.9c0.2,0.2,0.4,0.4,0.7,0.5c-1.3,1.2-2.6,2.3-3.9,3.4
		c0.1-0.6,0.1-1.2,0.1-1.6c0,0,0,0,0,0C-227.4,404.2-226.4,403.2-225.6,402.1z M-228.6,405.4c0,0.4-0.1,0.9-0.3,1.3
		c-0.1,0.3-0.3,0.5-0.4,0.8c-1.1,0.8-2.1,1.6-3.3,2.3c0.2-0.4,0.3-0.8,0.3-1.2c0,0,0-0.1,0-0.1C-231,407.6-229.7,406.5-228.6,405.4z
		 M-232.6,408.8c-0.1,0.3-0.2,0.6-0.3,0.9c-0.2,0.2-0.4,0.4-0.5,0.7c0,0,0,0,0,0c-0.6,0.4-1.2,0.7-1.9,1.1c-0.2,0-0.4-0.1-0.5-0.1
		c0.2-0.2,0.3-0.4,0.4-0.7C-234.5,410.1-233.6,409.5-232.6,408.8z M-244.8,414.9c0.4-1,0.1-2.3-1-2.7c-1-0.3-1.9,0.3-2.2,1.1
		c-0.5-1.1-1.8-1.5-2.8-0.9c0-0.1,0-0.1,0-0.2c-0.8-1.6-0.2-2.5,1.9-2.4c0.4,0.2,0.8,0.4,1.1,0.8c0.2,0.2,0.5-0.1,0.5-0.4
		c-0.7-2.5,1-4.1,3.3-4.5c0.5,0.8,1.4,1.3,2.4,1.1c0.2,0,0.2-0.4,0-0.4c-0.6,0.1-1.2-0.2-1.7-0.7c0-0.7,0-1.4,0-2.1
		c0.2-0.5,1.1-1,1.5-1.3c0.6-0.5,1.2-0.9,1.6-1.6c0.3-0.5,0.3-1,0.6-1.5c0.8-1.5,2.8-1.5,3.3,0.3c0.4,1.9-0.7,3.6-2.1,4.7
		c-0.1,0.1,0,0.2,0.1,0.2c0.4-0.2,0.8-0.4,1.1-0.7c0.8,0.8,1.7,1.4,2.5,2.1c1,0.9,1.8,2.6,0.1,3.1c-0.2,0.1-0.1,0.4,0.1,0.4
		c0.2,0,0.3,0,0.4,0c-0.3,0.3-0.7,0.5-1.1,0.8c0-0.1,0-0.3-0.1-0.4c0-0.1-0.2-0.2-0.3-0.1c-0.5,0.1-1.1,0.1-1.6,0.2
		c-0.2,0-0.2,0.3,0,0.3c0.5,0,0.9,0,1.4-0.1c0,0.2,0,0.3-0.1,0.5c0,0,0,0,0,0c-0.1,0-0.1,0.1-0.1,0.1c-0.1,0.2-0.3,0.4-0.5,0.4
		c-0.2,0.1-0.2,0.4,0,0.5c0.2,0.1,0.4,0.2,0.6,0.2c0.1,0,0.3,0,0.4,0c0.2,0,0.3,0.1,0.3,0.4c-0.1,0-0.3,0.1-0.2,0.3
		c0.2,0.6,1,0.2,1-0.4c0-0.3-0.1-0.5-0.3-0.6c0.9-0.5,1.8-1,2.7-1.5c0,0.1,0.1,0.1,0.2,0.1c1,0,1.8,1.3,0.7,2
		c-0.3,0.2-0.2,0.6,0.2,0.6c0.8-0.1,1.7,0.2,1.9,1.1c0.2,0.5,0,0.9-0.1,1.3c-1.5-2.1-4.7-2.9-7.1-1.4c0,0,0,0,0,0
		c-0.3-0.2-0.6-0.4-0.9-0.5c-2.1-1-6-0.8-6.5,2C-244.1,415.1-244.4,415-244.8,414.9z M-242.9,416.6c0-0.5-0.2-0.8-0.5-1.1
		c0,0,0,0,0-0.1c0.1-0.5,0.6-1,1.1-1.4c-0.4,1.4,0.1,2.7,1.9,2.8c0.4,0,0.7-0.1,1.1-0.1c1.1,0,1.6,0.4,2.3,1.3
		c0.4,0.5,0.5,1,1.1,1.3c0.6,0.3,1.2,0.2,1.6-0.3c0,0.6,0,1.2-0.1,1.8c-0.1,0-0.3,0.1-0.4,0.1c-1.9,0.4-3.9,0.6-5.9,0.7
		c-0.8,0-1.6,0-2.4,0c0.2-0.5,0.2-1.1,0.1-1.7C-241.2,420.3-240.7,416.9-242.9,416.6z M-252.5,416c-0.2,1,0.5,2.1,1.6,1.7
		c0.3,2,2.8,2.3,3.6,0.8c0.7,0.8,2.2,0.6,2.7-0.7c0.2,0.5,0.4,1.1,0.5,1.6c0.1,0.7,0,1.5,0.1,2.2c-1.1-0.1-2.1-0.2-3.2-0.4
		c-1-0.2-3.1-0.4-4.8-1c0-0.1,0-0.1-0.1-0.1h-0.1c0-0.1,0-0.1,0-0.2c0-0.1-0.2-0.1-0.3,0c0,0,0,0,0,0c-0.4-0.2-0.7-0.4-1-0.7
		c0.1,0,0.2-0.1,0.2-0.2c-0.1-0.5-0.2-0.9-0.1-1.4c0.1-0.1,0.1-0.2,0.1-0.3c0-0.2,0.1-0.4,0.2-0.6
		C-252.9,416.5-252.7,416.2-252.5,416z M-255.8,419.2c0,0.1,0.2,0.1,0.2,0c0-0.5,0.3-0.9,0.7-1.2c0.4-0.2,0.7-0.3,1.1-0.3
		c0,0.5,0,1,0.2,1.4c-0.2-0.2-0.2-0.5-0.3-0.8c0-0.2-0.3-0.2-0.3,0c-0.2,2.1,2.5,2.7,4.1,3.1c3,0.8,6.1,1.1,9.2,1.1
		c1.7,0,14.5-1.1,12.4-4.6c0-0.5-0.1-0.9-0.2-1.3c0.2,0.1,0.5,0.3,0.7,0.5c0.2,0.2,0.4,0.5,0.5,0.8c-0.1,0.1-0.1,0.2-0.1,0.3
		c1.5,7.6-4.6,15-12.2,15.4C-247.4,433.7-256.2,427.3-255.8,419.2z M-237.6,446.6c-1.2,0.3-2.5,0.5-3.8,0.6c-1.5,0.1-2.9,0-4.4-0.2
		c-0.6-0.1-1.2-0.2-1.8-0.4c-0.4-0.1-0.8-0.2-1.1-0.3c-0.8-1.5-0.9-2.5-0.3-3c0,0.1,0.1,0.2,0.2,0.2c1.9,0.3,4-0.8,5.1-2.4
		c0.6-0.9,0.9-1.9,1-2.9c0-0.5,0-1,0-1.5c0-0.3,0-2.2-0.2-2.8c0.9,0.2,1.8,0.2,2.7,0.2c0.3,0,0.6,0,0.9,0c-0.3,2.5-0.5,5.8,1.3,7.6
		c1.2,1.3,3.3,1.9,5,1.2c0,0.1,0,0.1,0.1,0.2C-231.4,444.9-236.9,446.4-237.6,446.6z"/>
</g>
</svg>
