<?xml version="1.0" encoding="utf-8"?>
<!-- Generator: Adobe Illustrator 19.0.0, SVG Export Plug-In . SVG Version: 6.00 Build 0)  -->
<svg version="1.1" id="Capa_2" xmlns="http://www.w3.org/2000/svg" xmlns:xlink="http://www.w3.org/1999/xlink" x="0px" y="0px"
	 viewBox="-269 392.3 56.6 56.6" style="enable-background:new -269 392.3 56.6 56.6;" xml:space="preserve">
<style type="text/css">
	.st0{fill:#FFFFFF;}
</style>
<g>
	<path class="st0" d="M-226.5,414c-9.2-2.6-19.5-1.5-29-0.9c-0.1,0-0.2,0.1-0.2,0.1c-0.7-2.1-1.5-4.2-2.3-6.3
		c-0.5-1.2-1.2-4.3-2.8-4.8c-0.7-0.7-1.7-0.8-2.5-0.3c-1.4,0.9-1.3,2.8-0.9,4.2c0.8,2.9,2.2,5.8,4,8.5c-2.3,1.4-1.4,5.3-1.2,7.5
		c0.4,3.5,1.3,7,3.1,10c2,3.1,4.7,5,7.8,6.1c-4.1,5.6,18.6,6.1,15.3,0.5c4.7-1.4,8.5-4.7,10.9-9.5c1.6-3.2,3-7,3.2-10.6
		C-220.9,415.8-224.4,414.5-226.5,414z M-261.8,402.4c0.1,0,0.3,0,0.4,0c2.5,0.8,4,7.3,4.7,9.4c0.9,2.7,1.8,5.4,2.7,8.1
		c-0.5-0.1-1-0.3-1.6-0.5c-1.2-2.4-2.5-4.7-3.8-7c-0.6-1.1-1.2-2.2-1.7-3.4C-261.7,407.7-264.2,403.6-261.8,402.4z M-222.9,418
		c1.4,4-7.9,3.9-9.8,4c-3,0.2-6.1,0.1-9.1-0.1c-3.3-0.2-6.6-0.7-9.8-1.4c-0.4-0.1-1.1-0.2-1.8-0.4c-0.5-1.8-1.1-3.6-1.7-5.4
		c5.3-0.2,10.7-0.5,16-0.2c2.8,0.1,5.5,0.4,8.2,0.9c1.7,0.3,6.6,0.8,8,2.5C-222.9,417.9-222.9,417.9-222.9,418z M-261.3,411.8
		c-0.7-1.3-1.4-2.6-1.9-4c-0.2-0.6-0.5-1.3-0.6-1.9c0-0.2-0.1-0.4-0.1-0.6c-0.4-1.5,0-2.3,1.2-2.7c-1,1-0.4,3.1,0.2,4.4
		c1.9,4.2,4,8.4,6.4,12.3c-0.1,0-0.2-0.1-0.3-0.1c0,0,0-0.1,0-0.1C-258,416.6-259.8,414.4-261.3,411.8z M-256.9,419
		c-1.6-0.7-3-1.6-3.1-2.9c0,0,0.1-0.1,0.1-0.1c0-0.3,0.3-0.3,0.5-0.4C-258.7,416.8-257.8,417.9-256.9,419z M-235.7,438.8
		c1.4,2.6-6.6,2.9-7.5,2.9c-1.9,0-8.1-0.1-6.9-3.6c3.1,1,6.6,1.3,10.1,1.2C-238.6,439.3-237.1,439.1-235.7,438.8
		C-235.8,438.7-235.8,438.8-235.7,438.8z M-228.3,433.7c-3.1,3.2-7,4.7-11.4,4.9c-4.1,0.2-8.8,0-12.5-1.9c-3.5-1.7-5.9-5.1-7.2-8.7
		c-0.8-2.2-1.2-4.5-1.4-6.8c-0.2-1.9-0.7-4.9,0.9-6.4c0.1,0.1,0.1,0.2,0.2,0.3c-0.2,0-0.3,0.2-0.4,0.3c-0.1,0-0.3,0-0.3,0.1
		c-0.8,2.7,4,4.2,5.8,4.7c0.3,0.1,0.6,0.2,0.8,0.2c0,0,0,0,0,0.1c0.1,0.2,0.3,0.2,0.5,0.1c4,1,8.2,1.6,12.3,1.8
		c2.3,0.1,20.4,1,18.8-4.2c0,0,0-0.1,0-0.1c0-0.1-0.1-0.3-0.1-0.4c0,0,0,0,0,0c-0.6-1.5-2.7-1.8-4.1-2.2c-3-0.8-6-1.3-9.1-1.6
		c-6.5-0.6-13.1-0.3-19.6,0.1c0,0-0.1,0-0.1,0c-0.1-0.2-0.1-0.4-0.2-0.6c0,0,0.1,0,0.1,0c8.8-0.6,17.7-1.1,26.5,0.4
		c1.9,0.3,4,0.8,5.7,1.9c2.3,1.6,1.3,4.4,0.7,6.6C-223.6,426.7-225.3,430.6-228.3,433.7z"/>
	<path class="st0" d="M-223.3,419.3c-2.8-0.7-5.7-1-8.5-1.4c-1.5-0.2-2.9-0.3-4.4-0.2c-1.8,0.1-3.1-0.3-4.7-0.9
		c-0.9-0.3-1.7-0.6-2.7-0.4c-1.5,0.2-2.7,1.1-4.3,1c-2.2-0.1-4-1.4-6.2-0.5c-0.1,0,0,0.2,0.1,0.2c2.4-0.8,4.5,1,6.8,0.8
		c1.1-0.1,2.1-0.7,3.1-0.9c1.8-0.4,3,0.4,4.6,1c2.3,0.8,5.1,0.2,7.6,0.6c2.8,0.4,5.6,0.8,8.5,1.3
		C-223.1,419.8-223,419.4-223.3,419.3z"/>
	<path class="st0" d="M-250.3,411.1c-1.5-0.9-0.4-2.9-0.9-4.3c-0.3-1.1-1.4-1.1-1.9-1.9c-0.2-0.2-0.6-0.2-0.6,0.2
		c0,0.5,0.2,0.7,0.6,0.9c0.5,0.3,0.8,0.4,1.1,0.9c0.3,0.5,0.3,1.1,0.2,1.7c0,1.2,0,2.4,1.3,3C-250.2,411.5-250.1,411.2-250.3,411.1z
		"/>
	<path class="st0" d="M-243.9,406.4c0.1-0.9-0.6-1.6-1.2-2.2c-0.3-0.3-0.8,0.2-0.5,0.5c0.6,0.7,1.2,1.4,0.7,2.3
		c-0.2,0.4-0.5,0.8-0.6,1.3c-0.2,0.8,0.2,1.5,0.7,2.2c0.2,0.2,0.4-0.1,0.3-0.3c-0.4-0.9-0.5-1.7,0.1-2.5
		C-244.2,407.3-243.9,406.9-243.9,406.4z"/>
	<path class="st0" d="M-234.1,405.3c-0.2-0.3-0.8-0.1-0.6,0.3c0.3,0.8,0.3,1.7-0.5,2.3c-0.5,0.3-1,0.4-1.3,1
		c-0.4,0.7-0.1,1.5,0.5,1.9c0.2,0.1,0.3-0.1,0.2-0.2c-1.2-1.3,1.3-1.9,1.8-2.9C-233.7,406.9-233.6,406-234.1,405.3z"/>
	<path class="st0" d="M-223.6,404.7c0-0.4-0.6-0.5-0.7-0.1c-0.2,1.3,0.7,2.6-0.5,3.6c-0.7,0.6-1.8,0.5-2.4,1.2
		c-0.5,0.5-1.1,2.2,0.1,2.2c0.1,0,0.2-0.1,0.1-0.2c-0.3-0.3-0.2-0.6,0.2-0.9c0.1-0.6,0.4-0.9,0.9-1c0.4-0.1,0.7-0.2,1.1-0.4
		c0.4-0.2,0.8-0.4,1.1-0.8C-223,407.3-223.6,405.9-223.6,404.7z"/>
</g>
</svg>
